solid OpenSCAD_Model
  facet normal 0.608736 -0.793373 0
    outer loop
      vertex 11 -52.4282 0
      vertex 12.6569 -51.1569 4
      vertex 11 -52.4282 4
    endloop
  endfacet
  facet normal 0.608736 -0.793373 0
    outer loop
      vertex 12.6569 -51.1569 4
      vertex 11 -52.4282 0
      vertex 12.6569 -51.1569 0
    endloop
  endfacet
  facet normal -0.92388 0.382683 -2.07621e-18
    outer loop
      vertex -14.7274 5.57056 0
      vertex -13.9282 7.5 4
      vertex -13.9282 7.5 0
    endloop
  endfacet
  facet normal -0.92388 0.382683 -2.07621e-18
    outer loop
      vertex -13.9282 7.5 4
      vertex -14.7274 5.57056 0
      vertex -14.7274 5.57056 4
    endloop
  endfacet
  facet normal -0.608748 0.793364 0
    outer loop
      vertex -11 10.4282 0
      vertex -12.6569 9.15686 4
      vertex -11 10.4282 4
    endloop
  endfacet
  facet normal -0.608748 0.793364 0
    outer loop
      vertex -12.6569 9.15686 4
      vertex -11 10.4282 0
      vertex -12.6569 9.15686 0
    endloop
  endfacet
  facet normal 0.991445 -0.130526 -3.92844e-18
    outer loop
      vertex 14.7274 -47.5706 4
      vertex 15 -45.5 0
      vertex 15 -45.5 4
    endloop
  endfacet
  facet normal 0.991445 -0.130526 -3.92844e-18
    outer loop
      vertex 15 -45.5 0
      vertex 14.7274 -47.5706 4
      vertex 14.7274 -47.5706 0
    endloop
  endfacet
  facet normal 0.608748 0.793364 -0
    outer loop
      vertex 12.6569 9.15686 0
      vertex 11 10.4282 4
      vertex 12.6569 9.15686 4
    endloop
  endfacet
  facet normal 0.608748 0.793364 0
    outer loop
      vertex 11 10.4282 4
      vertex 12.6569 9.15686 0
      vertex 11 10.4282 0
    endloop
  endfacet
  facet normal 0.793373 -0.608736 -1.40907e-17
    outer loop
      vertex 12.6569 -51.1569 4
      vertex 13.9282 -49.5 0
      vertex 13.9282 -49.5 4
    endloop
  endfacet
  facet normal 0.793373 -0.608736 -1.40907e-17
    outer loop
      vertex 13.9282 -49.5 0
      vertex 12.6569 -51.1569 4
      vertex 12.6569 -51.1569 0
    endloop
  endfacet
  facet normal -0.130529 0.991445 0
    outer loop
      vertex -7 11.5 0
      vertex -9.07056 11.2274 4
      vertex -7 11.5 4
    endloop
  endfacet
  facet normal -0.130529 0.991445 0
    outer loop
      vertex -9.07056 11.2274 4
      vertex -7 11.5 0
      vertex -9.07056 11.2274 0
    endloop
  endfacet
  facet normal 1 -0 0
    outer loop
      vertex 15 -45.5 4
      vertex 15 -28.3043 0
      vertex 15 -28.3043 4
    endloop
  endfacet
  facet normal 1 0 0
    outer loop
      vertex 15 -28.3043 0
      vertex 15 -45.5 4
      vertex 15 -45.5 0
    endloop
  endfacet
  facet normal -0.382683 0.92388 0
    outer loop
      vertex -9.07056 11.2274 0
      vertex -11 10.4282 4
      vertex -9.07056 11.2274 4
    endloop
  endfacet
  facet normal -0.382683 0.92388 0
    outer loop
      vertex -11 10.4282 4
      vertex -9.07056 11.2274 0
      vertex -11 10.4282 0
    endloop
  endfacet
  facet normal -0.991445 -0.130526 3.92844e-18
    outer loop
      vertex -14.7274 -47.5706 0
      vertex -15 -45.5 4
      vertex -15 -45.5 0
    endloop
  endfacet
  facet normal -0.991445 -0.130526 3.92844e-18
    outer loop
      vertex -15 -45.5 4
      vertex -14.7274 -47.5706 0
      vertex -14.7274 -47.5706 4
    endloop
  endfacet
  facet normal 0 1 -0
    outer loop
      vertex 7 11.5 0
      vertex -7 11.5 4
      vertex 7 11.5 4
    endloop
  endfacet
  facet normal 0 1 0
    outer loop
      vertex -7 11.5 4
      vertex 7 11.5 0
      vertex -7 11.5 0
    endloop
  endfacet
  facet normal -0.130529 -0.991445 0
    outer loop
      vertex -9.07056 -53.2274 0
      vertex -7 -53.5 4
      vertex -9.07056 -53.2274 4
    endloop
  endfacet
  facet normal -0.130529 -0.991445 -0
    outer loop
      vertex -7 -53.5 4
      vertex -9.07056 -53.2274 0
      vertex -7 -53.5 0
    endloop
  endfacet
  facet normal 0 0 -1
    outer loop
      vertex 7 -53.5 0
      vertex 15 -45.5 0
      vertex 14.7274 -47.5706 0
    endloop
  endfacet
  facet normal 0 0 -1
    outer loop
      vertex 30.6593 -0.588191 0
      vertex 30.6593 4.58819 0
      vertex 31 2 0
    endloop
  endfacet
  facet normal 0 0 -1
    outer loop
      vertex 29.6603 -3 0
      vertex 30.6593 4.58819 0
      vertex 30.6593 -0.588191 0
    endloop
  endfacet
  facet normal 0 0 -1
    outer loop
      vertex 29.6603 -3 0
      vertex 29.6603 7 0
      vertex 30.6593 4.58819 0
    endloop
  endfacet
  facet normal 0 0 -1
    outer loop
      vertex 29.6603 -3 0
      vertex 28.0711 9.07107 0
      vertex 29.6603 7 0
    endloop
  endfacet
  facet normal 0 0 -1
    outer loop
      vertex 29.6603 -3 0
      vertex 26 10.6603 0
      vertex 28.0711 9.07107 0
    endloop
  endfacet
  facet normal 0 0 -1
    outer loop
      vertex 29.6603 -3 0
      vertex 23.5882 11.6593 0
      vertex 26 10.6603 0
    endloop
  endfacet
  facet normal 0 0 -1
    outer loop
      vertex 13.2768 8.34888 0
      vertex 29.6603 -3 0
      vertex 21 -21 0
    endloop
  endfacet
  facet normal 0 0 -1
    outer loop
      vertex 29.6603 -3 0
      vertex 13.2768 8.34888 0
      vertex 23.5882 11.6593 0
    endloop
  endfacet
  facet normal -0 0 -1
    outer loop
      vertex 23.5882 11.6593 0
      vertex 13.2768 8.34888 0
      vertex 21 12 0
    endloop
  endfacet
  facet normal 0 0 -1
    outer loop
      vertex 21 12 0
      vertex 13.2768 8.34888 0
      vertex 18.4118 11.6593 0
    endloop
  endfacet
  facet normal 0 0 -1
    outer loop
      vertex -15 3.5 0
      vertex 21 -21 0
      vertex 15 -28.3043 0
    endloop
  endfacet
  facet normal 0 0 -1
    outer loop
      vertex 18.4118 11.6593 0
      vertex 13.2768 8.34888 0
      vertex 16 10.6603 0
    endloop
  endfacet
  facet normal 0 0 -1
    outer loop
      vertex -15 -45.5 0
      vertex 15 -45.5 0
      vertex 7 -53.5 0
    endloop
  endfacet
  facet normal 0 0 -1
    outer loop
      vertex 7 -53.5 0
      vertex 14.7274 -47.5706 0
      vertex 13.9282 -49.5 0
    endloop
  endfacet
  facet normal 0 0 -1
    outer loop
      vertex 16 10.6603 0
      vertex 13.2768 8.34888 0
      vertex 13.9289 9.07107 0
    endloop
  endfacet
  facet normal 0 0 -1
    outer loop
      vertex 7 -53.5 0
      vertex 13.9282 -49.5 0
      vertex 12.6569 -51.1569 0
    endloop
  endfacet
  facet normal -0 0 -1
    outer loop
      vertex 15 -28.3043 0
      vertex -15 -45.5 0
      vertex -15 3.5 0
    endloop
  endfacet
  facet normal 0 0 -1
    outer loop
      vertex 7 -53.5 0
      vertex 12.6569 -51.1569 0
      vertex 11 -52.4282 0
    endloop
  endfacet
  facet normal 0 0 -1
    outer loop
      vertex 21 -21 0
      vertex -15 3.5 0
      vertex 13.2768 8.34888 0
    endloop
  endfacet
  facet normal 0 0 -1
    outer loop
      vertex 7 -53.5 0
      vertex 11 -52.4282 0
      vertex 9.07056 -53.2274 0
    endloop
  endfacet
  facet normal 0 -0 -1
    outer loop
      vertex 7 11.5 0
      vertex 13.2768 8.34888 0
      vertex -15 3.5 0
    endloop
  endfacet
  facet normal 0 0 -1
    outer loop
      vertex 15 -45.5 0
      vertex -15 -45.5 0
      vertex 15 -28.3043 0
    endloop
  endfacet
  facet normal -0 -0 -1
    outer loop
      vertex 9.07056 11.2274 0
      vertex 13.2768 8.34888 0
      vertex 7 11.5 0
    endloop
  endfacet
  facet normal 0 0 -1
    outer loop
      vertex -15 -45.5 0
      vertex 7 -53.5 0
      vertex -7 -53.5 0
    endloop
  endfacet
  facet normal 0 0 -1
    outer loop
      vertex 13.2768 8.34888 0
      vertex 11 10.4282 0
      vertex 12.6569 9.15686 0
    endloop
  endfacet
  facet normal 0 0 -1
    outer loop
      vertex -15 -45.5 0
      vertex -7 -53.5 0
      vertex -9.07056 -53.2274 0
    endloop
  endfacet
  facet normal 0 0 -1
    outer loop
      vertex 13.2768 8.34888 0
      vertex 9.07056 11.2274 0
      vertex 11 10.4282 0
    endloop
  endfacet
  facet normal 0 0 -1
    outer loop
      vertex -15 -45.5 0
      vertex -9.07056 -53.2274 0
      vertex -11 -52.4282 0
    endloop
  endfacet
  facet normal -0 0 -1
    outer loop
      vertex 7 11.5 0
      vertex -15 3.5 0
      vertex -7 11.5 0
    endloop
  endfacet
  facet normal 0 0 -1
    outer loop
      vertex -15 -45.5 0
      vertex -11 -52.4282 0
      vertex -12.6569 -51.1569 0
    endloop
  endfacet
  facet normal 0 0 -1
    outer loop
      vertex -7 11.5 0
      vertex -15 3.5 0
      vertex -9.07056 11.2274 0
    endloop
  endfacet
  facet normal 0 0 -1
    outer loop
      vertex -15 -45.5 0
      vertex -12.6569 -51.1569 0
      vertex -13.9282 -49.5 0
    endloop
  endfacet
  facet normal 0 0 -1
    outer loop
      vertex -9.07056 11.2274 0
      vertex -15 3.5 0
      vertex -11 10.4282 0
    endloop
  endfacet
  facet normal 0 0 -1
    outer loop
      vertex -15 -45.5 0
      vertex -13.9282 -49.5 0
      vertex -14.7274 -47.5706 0
    endloop
  endfacet
  facet normal 0 0 -1
    outer loop
      vertex -11 10.4282 0
      vertex -15 3.5 0
      vertex -12.6569 9.15686 0
    endloop
  endfacet
  facet normal 0 0 -1
    outer loop
      vertex -12.6569 9.15686 0
      vertex -15 3.5 0
      vertex -13.9282 7.5 0
    endloop
  endfacet
  facet normal 0 0 -1
    outer loop
      vertex -13.9282 7.5 0
      vertex -15 3.5 0
      vertex -14.7274 5.57056 0
    endloop
  endfacet
  facet normal 0.382683 0.92388 -0
    outer loop
      vertex 11 10.4282 0
      vertex 9.07056 11.2274 4
      vertex 11 10.4282 4
    endloop
  endfacet
  facet normal 0.382683 0.92388 0
    outer loop
      vertex 9.07056 11.2274 4
      vertex 11 10.4282 0
      vertex 9.07056 11.2274 0
    endloop
  endfacet
  facet normal -0.793366 0.608745 2.4589e-17
    outer loop
      vertex -13.9282 7.5 0
      vertex -12.6569 9.15686 4
      vertex -12.6569 9.15686 0
    endloop
  endfacet
  facet normal -0.793366 0.608745 2.4589e-17
    outer loop
      vertex -12.6569 9.15686 4
      vertex -13.9282 7.5 0
      vertex -13.9282 7.5 4
    endloop
  endfacet
  facet normal 0.923877 -0.38269 -1.08327e-17
    outer loop
      vertex 13.9282 -49.5 4
      vertex 14.7274 -47.5706 0
      vertex 14.7274 -47.5706 4
    endloop
  endfacet
  facet normal 0.923877 -0.38269 -1.08327e-17
    outer loop
      vertex 14.7274 -47.5706 0
      vertex 13.9282 -49.5 4
      vertex 13.9282 -49.5 0
    endloop
  endfacet
  facet normal 0 -1 0
    outer loop
      vertex -7 -53.5 0
      vertex 7 -53.5 4
      vertex -7 -53.5 4
    endloop
  endfacet
  facet normal 0 -1 -0
    outer loop
      vertex 7 -53.5 4
      vertex -7 -53.5 0
      vertex 7 -53.5 0
    endloop
  endfacet
  facet normal -0.923877 -0.38269 1.08327e-17
    outer loop
      vertex -13.9282 -49.5 0
      vertex -14.7274 -47.5706 4
      vertex -14.7274 -47.5706 0
    endloop
  endfacet
  facet normal -0.923877 -0.38269 1.08327e-17
    outer loop
      vertex -14.7274 -47.5706 4
      vertex -13.9282 -49.5 0
      vertex -13.9282 -49.5 4
    endloop
  endfacet
  facet normal 0 0 1
    outer loop
      vertex 11 10.4282 4
      vertex 13.2768 8.34888 4
      vertex 12.6569 9.15686 4
    endloop
  endfacet
  facet normal 0 0 1
    outer loop
      vertex 9.07056 11.2274 4
      vertex 13.2768 8.34888 4
      vertex 11 10.4282 4
    endloop
  endfacet
  facet normal 0 0 1
    outer loop
      vertex 7 11.5 4
      vertex 13.2768 8.34888 4
      vertex 9.07056 11.2274 4
    endloop
  endfacet
  facet normal 0 0 1
    outer loop
      vertex 7 11.5 4
      vertex -6 -13 4
      vertex 13.2768 8.34888 4
    endloop
  endfacet
  facet normal -0 0 1
    outer loop
      vertex -15 3.5 4
      vertex -6 -13 4
      vertex -7 11.5 4
    endloop
  endfacet
  facet normal -0 0 1
    outer loop
      vertex -7 11.5 4
      vertex -6 -13 4
      vertex 7 11.5 4
    endloop
  endfacet
  facet normal 0 0 1
    outer loop
      vertex -2 -49 4
      vertex 15 -45.5 4
      vertex 15 -28.3043 4
    endloop
  endfacet
  facet normal 0 -0 1
    outer loop
      vertex 7 -53.5 4
      vertex 15 -45.5 4
      vertex -2 -49 4
    endloop
  endfacet
  facet normal 0 0 1
    outer loop
      vertex 15 -45.5 4
      vertex 7 -53.5 4
      vertex 14.7274 -47.5706 4
    endloop
  endfacet
  facet normal 0 0 1
    outer loop
      vertex 14.7274 -47.5706 4
      vertex 7 -53.5 4
      vertex 13.9282 -49.5 4
    endloop
  endfacet
  facet normal 0 0 1
    outer loop
      vertex 13.9282 -49.5 4
      vertex 7 -53.5 4
      vertex 12.6569 -51.1569 4
    endloop
  endfacet
  facet normal 0 0 1
    outer loop
      vertex 12.6569 -51.1569 4
      vertex 7 -53.5 4
      vertex 11 -52.4282 4
    endloop
  endfacet
  facet normal 0 0 1
    outer loop
      vertex 11 -52.4282 4
      vertex 7 -53.5 4
      vertex 9.07056 -53.2274 4
    endloop
  endfacet
  facet normal 0 0 1
    outer loop
      vertex -7 -53.5 4
      vertex -2 -49 4
      vertex -6 -49 4
    endloop
  endfacet
  facet normal 0 0 1
    outer loop
      vertex -2 -49 4
      vertex -7 -53.5 4
      vertex 7 -53.5 4
    endloop
  endfacet
  facet normal 0 0 1
    outer loop
      vertex -15 -45.5 4
      vertex -6 -13 4
      vertex -15 3.5 4
    endloop
  endfacet
  facet normal 0 0 1
    outer loop
      vertex -15 3.5 4
      vertex -7 11.5 4
      vertex -9.07056 11.2274 4
    endloop
  endfacet
  facet normal 0 0 1
    outer loop
      vertex -6 -13 4
      vertex -15 -45.5 4
      vertex -6 -49 4
    endloop
  endfacet
  facet normal 0 0 1
    outer loop
      vertex -15 3.5 4
      vertex -9.07056 11.2274 4
      vertex -11 10.4282 4
    endloop
  endfacet
  facet normal -0 -0 1
    outer loop
      vertex -14.7274 -47.5706 4
      vertex -6 -49 4
      vertex -15 -45.5 4
    endloop
  endfacet
  facet normal 0 0 1
    outer loop
      vertex -15 3.5 4
      vertex -11 10.4282 4
      vertex -12.6569 9.15686 4
    endloop
  endfacet
  facet normal 0 0 1
    outer loop
      vertex -6 -49 4
      vertex -9.07056 -53.2274 4
      vertex -7 -53.5 4
    endloop
  endfacet
  facet normal 0 0 1
    outer loop
      vertex -15 3.5 4
      vertex -12.6569 9.15686 4
      vertex -13.9282 7.5 4
    endloop
  endfacet
  facet normal 0 0 1
    outer loop
      vertex -6 -49 4
      vertex -11 -52.4282 4
      vertex -9.07056 -53.2274 4
    endloop
  endfacet
  facet normal 0 0 1
    outer loop
      vertex -15 3.5 4
      vertex -13.9282 7.5 4
      vertex -14.7274 5.57056 4
    endloop
  endfacet
  facet normal 0 0 1
    outer loop
      vertex -6 -49 4
      vertex -12.6569 -51.1569 4
      vertex -11 -52.4282 4
    endloop
  endfacet
  facet normal 0 0 1
    outer loop
      vertex -6 -49 4
      vertex -13.9282 -49.5 4
      vertex -12.6569 -51.1569 4
    endloop
  endfacet
  facet normal 0 0 1
    outer loop
      vertex -6 -49 4
      vertex -14.7274 -47.5706 4
      vertex -13.9282 -49.5 4
    endloop
  endfacet
  facet normal 0.130529 0.991445 -0
    outer loop
      vertex 9.07056 11.2274 0
      vertex 7 11.5 4
      vertex 9.07056 11.2274 4
    endloop
  endfacet
  facet normal 0.130529 0.991445 0
    outer loop
      vertex 7 11.5 4
      vertex 9.07056 11.2274 0
      vertex 7 11.5 0
    endloop
  endfacet
  facet normal -0.382683 -0.92388 0
    outer loop
      vertex -11 -52.4282 0
      vertex -9.07056 -53.2274 4
      vertex -11 -52.4282 4
    endloop
  endfacet
  facet normal -0.382683 -0.92388 -0
    outer loop
      vertex -9.07056 -53.2274 4
      vertex -11 -52.4282 0
      vertex -9.07056 -53.2274 0
    endloop
  endfacet
  facet normal -1 0 0
    outer loop
      vertex -15 -45.5 0
      vertex -15 3.5 4
      vertex -15 3.5 0
    endloop
  endfacet
  facet normal -1 -0 0
    outer loop
      vertex -15 3.5 4
      vertex -15 -45.5 0
      vertex -15 -45.5 4
    endloop
  endfacet
  facet normal 0.130529 -0.991445 0
    outer loop
      vertex 7 -53.5 0
      vertex 9.07056 -53.2274 4
      vertex 7 -53.5 4
    endloop
  endfacet
  facet normal 0.130529 -0.991445 0
    outer loop
      vertex 9.07056 -53.2274 4
      vertex 7 -53.5 0
      vertex 9.07056 -53.2274 0
    endloop
  endfacet
  facet normal 0.382683 -0.92388 0
    outer loop
      vertex 9.07056 -53.2274 0
      vertex 11 -52.4282 4
      vertex 9.07056 -53.2274 4
    endloop
  endfacet
  facet normal 0.382683 -0.92388 0
    outer loop
      vertex 11 -52.4282 4
      vertex 9.07056 -53.2274 0
      vertex 11 -52.4282 0
    endloop
  endfacet
  facet normal -0.793373 -0.608736 1.40907e-17
    outer loop
      vertex -12.6569 -51.1569 0
      vertex -13.9282 -49.5 4
      vertex -13.9282 -49.5 0
    endloop
  endfacet
  facet normal -0.793373 -0.608736 1.40907e-17
    outer loop
      vertex -13.9282 -49.5 4
      vertex -12.6569 -51.1569 0
      vertex -12.6569 -51.1569 4
    endloop
  endfacet
  facet normal -0.608736 -0.793373 0
    outer loop
      vertex -12.6569 -51.1569 0
      vertex -11 -52.4282 4
      vertex -12.6569 -51.1569 4
    endloop
  endfacet
  facet normal -0.608736 -0.793373 -0
    outer loop
      vertex -11 -52.4282 4
      vertex -12.6569 -51.1569 0
      vertex -11 -52.4282 0
    endloop
  endfacet
  facet normal -0.991445 0.130529 -3.63378e-18
    outer loop
      vertex -15 3.5 0
      vertex -14.7274 5.57056 4
      vertex -14.7274 5.57056 0
    endloop
  endfacet
  facet normal -0.991445 0.130529 -3.63378e-18
    outer loop
      vertex -14.7274 5.57056 4
      vertex -15 3.5 0
      vertex -15 3.5 4
    endloop
  endfacet
  facet normal 0.793394 0.608709 -7.76024e-18
    outer loop
      vertex 13.2768 8.34888 4
      vertex 12.6569 9.15686 0
      vertex 12.6569 9.15686 4
    endloop
  endfacet
  facet normal 0.793394 0.608709 -7.76024e-18
    outer loop
      vertex 12.6569 9.15686 0
      vertex 13.2768 8.34888 4
      vertex 13.2768 8.34888 0
    endloop
  endfacet
  facet normal 0.793351 0.608764 1.45337e-18
    outer loop
      vertex 29.6603 7 12
      vertex 28.0711 9.07107 0
      vertex 28.0711 9.07107 12
    endloop
  endfacet
  facet normal 0.793351 0.608764 1.45337e-18
    outer loop
      vertex 28.0711 9.07107 0
      vertex 29.6603 7 12
      vertex 29.6603 7 0
    endloop
  endfacet
  facet normal -1 0 0
    outer loop
      vertex -6 -49 4
      vertex -6 -13 12
      vertex -6 -13 4
    endloop
  endfacet
  facet normal -1 -0 0
    outer loop
      vertex -6 -13 12
      vertex -6 -49 4
      vertex -6 -49 12
    endloop
  endfacet
  facet normal -0.13051 0.991447 0
    outer loop
      vertex 21 12 0
      vertex 18.4118 11.6593 12
      vertex 21 12 12
    endloop
  endfacet
  facet normal -0.13051 0.991447 0
    outer loop
      vertex 18.4118 11.6593 12
      vertex 21 12 0
      vertex 18.4118 11.6593 0
    endloop
  endfacet
  facet normal 0.901126 -0.433557 -5.9286e-17
    outer loop
      vertex 21 -21 12
      vertex 29.6603 -3 0
      vertex 29.6603 -3 12
    endloop
  endfacet
  facet normal 0.901126 -0.433557 -5.9286e-17
    outer loop
      vertex 29.6603 -3 0
      vertex 21 -21 12
      vertex 21 -21 0
    endloop
  endfacet
  facet normal 0 0 1
    outer loop
      vertex 30.6593 4.58819 12
      vertex 30.6593 -0.588191 12
      vertex 31 2 12
    endloop
  endfacet
  facet normal 0 0 1
    outer loop
      vertex 29.6603 7 12
      vertex 30.6593 -0.588191 12
      vertex 30.6593 4.58819 12
    endloop
  endfacet
  facet normal 0 0 1
    outer loop
      vertex 29.6603 7 12
      vertex 29.6603 -3 12
      vertex 30.6593 -0.588191 12
    endloop
  endfacet
  facet normal 0 0 1
    outer loop
      vertex 28.0711 9.07107 12
      vertex 29.6603 -3 12
      vertex 29.6603 7 12
    endloop
  endfacet
  facet normal 0 0 1
    outer loop
      vertex 26 10.6603 12
      vertex 29.6603 -3 12
      vertex 28.0711 9.07107 12
    endloop
  endfacet
  facet normal 0 0 1
    outer loop
      vertex 23.5882 11.6593 12
      vertex 29.6603 -3 12
      vertex 26 10.6603 12
    endloop
  endfacet
  facet normal 0 0 1
    outer loop
      vertex 21 12 12
      vertex 29.6603 -3 12
      vertex 23.5882 11.6593 12
    endloop
  endfacet
  facet normal -0 0 1
    outer loop
      vertex 13.9289 9.07107 12
      vertex 29.6603 -3 12
      vertex 21 12 12
    endloop
  endfacet
  facet normal 0 0 1
    outer loop
      vertex 13.9289 9.07107 12
      vertex 21 12 12
      vertex 18.4118 11.6593 12
    endloop
  endfacet
  facet normal 0 0 1
    outer loop
      vertex 13.9289 9.07107 12
      vertex 18.4118 11.6593 12
      vertex 16 10.6603 12
    endloop
  endfacet
  facet normal 0 0 1
    outer loop
      vertex 29.6603 -3 12
      vertex 13.9289 9.07107 12
      vertex 21 -21 12
    endloop
  endfacet
  facet normal -0 0 1
    outer loop
      vertex -6 -13 12
      vertex 21 -21 12
      vertex 13.9289 9.07107 12
    endloop
  endfacet
  facet normal 0 0 1
    outer loop
      vertex 21 -21 12
      vertex -6 -13 12
      vertex -2 -49 12
    endloop
  endfacet
  facet normal 0 0 1
    outer loop
      vertex -2 -49 12
      vertex -6 -13 12
      vertex -6 -49 12
    endloop
  endfacet
  facet normal 0.772724 -0.634742 0
    outer loop
      vertex 21 -21 12
      vertex 15 -28.3043 4
      vertex 21 -21 0
    endloop
  endfacet
  facet normal 0.772726 -0.634739 -3.79464e-06
    outer loop
      vertex -2 -49 12
      vertex 15 -28.3043 4
      vertex 21 -21 12
    endloop
  endfacet
  facet normal 0.772727 -0.634739 4.97436e-17
    outer loop
      vertex 15 -28.3043 4
      vertex -2 -49 12
      vertex -2 -49 4
    endloop
  endfacet
  facet normal 0.772724 -0.634742 0
    outer loop
      vertex 21 -21 0
      vertex 15 -28.3043 4
      vertex 15 -28.3043 0
    endloop
  endfacet
  facet normal 0 -1 0
    outer loop
      vertex -6 -49 4
      vertex -2 -49 12
      vertex -6 -49 12
    endloop
  endfacet
  facet normal 0 -1 -0
    outer loop
      vertex -2 -49 12
      vertex -6 -49 4
      vertex -2 -49 4
    endloop
  endfacet
  facet normal 0.991447 0.13051 -8.39298e-19
    outer loop
      vertex 31 2 12
      vertex 30.6593 4.58819 0
      vertex 30.6593 4.58819 12
    endloop
  endfacet
  facet normal 0.991447 0.13051 -8.39298e-19
    outer loop
      vertex 30.6593 4.58819 0
      vertex 31 2 12
      vertex 31 2 0
    endloop
  endfacet
  facet normal 0.13051 0.991447 -0
    outer loop
      vertex 23.5882 11.6593 0
      vertex 21 12 12
      vertex 23.5882 11.6593 12
    endloop
  endfacet
  facet normal 0.13051 0.991447 0
    outer loop
      vertex 21 12 12
      vertex 23.5882 11.6593 0
      vertex 21 12 0
    endloop
  endfacet
  facet normal -0.742205 0.670173 0
    outer loop
      vertex 13.2768 8.34888 4
      vertex 13.9289 9.07107 0
      vertex 13.2768 8.34888 0
    endloop
  endfacet
  facet normal -0.742205 0.670173 0
    outer loop
      vertex 13.9289 9.07107 0
      vertex 13.2768 8.34888 4
      vertex 13.9289 9.07107 12
    endloop
  endfacet
  facet normal -0.742207 0.67017 0
    outer loop
      vertex -6 -13 12
      vertex 13.2768 8.34888 4
      vertex -6 -13 4
    endloop
  endfacet
  facet normal -0.742207 0.67017 3.8864e-07
    outer loop
      vertex 13.2768 8.34888 4
      vertex -6 -13 12
      vertex 13.9289 9.07107 12
    endloop
  endfacet
  facet normal 0.382683 0.92388 -0
    outer loop
      vertex 26 10.6603 0
      vertex 23.5882 11.6593 12
      vertex 26 10.6603 12
    endloop
  endfacet
  facet normal 0.382683 0.92388 0
    outer loop
      vertex 23.5882 11.6593 12
      vertex 26 10.6603 0
      vertex 23.5882 11.6593 0
    endloop
  endfacet
  facet normal -0.382683 0.92388 0
    outer loop
      vertex 18.4118 11.6593 0
      vertex 16 10.6603 12
      vertex 18.4118 11.6593 12
    endloop
  endfacet
  facet normal -0.382683 0.92388 0
    outer loop
      vertex 16 10.6603 12
      vertex 18.4118 11.6593 0
      vertex 16 10.6603 0
    endloop
  endfacet
  facet normal -0.608766 0.79335 0
    outer loop
      vertex 16 10.6603 0
      vertex 13.9289 9.07107 12
      vertex 16 10.6603 12
    endloop
  endfacet
  facet normal -0.608766 0.79335 0
    outer loop
      vertex 13.9289 9.07107 12
      vertex 16 10.6603 0
      vertex 13.9289 9.07107 0
    endloop
  endfacet
  facet normal 0.92388 0.382682 -6.22591e-18
    outer loop
      vertex 30.6593 4.58819 12
      vertex 29.6603 7 0
      vertex 29.6603 7 12
    endloop
  endfacet
  facet normal 0.92388 0.382682 -6.22591e-18
    outer loop
      vertex 29.6603 7 0
      vertex 30.6593 4.58819 12
      vertex 30.6593 4.58819 0
    endloop
  endfacet
  facet normal 0.92388 -0.382682 3.58906e-18
    outer loop
      vertex 29.6603 -3 12
      vertex 30.6593 -0.588191 0
      vertex 30.6593 -0.588191 12
    endloop
  endfacet
  facet normal 0.92388 -0.382682 3.58906e-18
    outer loop
      vertex 30.6593 -0.588191 0
      vertex 29.6603 -3 12
      vertex 29.6603 -3 0
    endloop
  endfacet
  facet normal 0.991447 -0.13051 -8.64747e-19
    outer loop
      vertex 30.6593 -0.588191 12
      vertex 31 2 0
      vertex 31 2 12
    endloop
  endfacet
  facet normal 0.991447 -0.13051 -8.64747e-19
    outer loop
      vertex 31 2 0
      vertex 30.6593 -0.588191 12
      vertex 30.6593 -0.588191 0
    endloop
  endfacet
  facet normal 0.608766 0.79335 -0
    outer loop
      vertex 28.0711 9.07107 0
      vertex 26 10.6603 12
      vertex 28.0711 9.07107 12
    endloop
  endfacet
  facet normal 0.608766 0.79335 0
    outer loop
      vertex 26 10.6603 12
      vertex 28.0711 9.07107 0
      vertex 26 10.6603 0
    endloop
  endfacet
endsolid OpenSCAD_Model
