solid OpenSCAD_Model
  facet normal -0.13053 0.991444 0
    outer loop
      vertex -28.5 83.5 -6.25
      vertex -31.6058 83.0911 6.25
      vertex -28.5 83.5 6.25
    endloop
  endfacet
  facet normal -0.13053 0.991444 0
    outer loop
      vertex -31.6058 83.0911 6.25
      vertex -28.5 83.5 -6.25
      vertex -31.6058 83.0911 -6.25
    endloop
  endfacet
  facet normal -0.793359 0.608754 2.59322e-18
    outer loop
      vertex -38.8923 77.5 -6.25
      vertex -36.9853 79.9853 6.25
      vertex -36.9853 79.9853 -6.25
    endloop
  endfacet
  facet normal -0.793359 0.608754 2.59322e-18
    outer loop
      vertex -36.9853 79.9853 6.25
      vertex -38.8923 77.5 -6.25
      vertex -38.8923 77.5 6.25
    endloop
  endfacet
  facet normal 0.923881 0.382679 -3.8779e-19
    outer loop
      vertex 40.0911 74.6058 6.25
      vertex 38.8923 77.5 -6.25
      vertex 38.8923 77.5 6.25
    endloop
  endfacet
  facet normal 0.923881 0.382679 -3.8779e-19
    outer loop
      vertex 38.8923 77.5 -6.25
      vertex 40.0911 74.6058 6.25
      vertex 40.0911 74.6058 -6.25
    endloop
  endfacet
  facet normal -0.382679 -0.923881 0
    outer loop
      vertex -34.5 -81.8923 -6.25
      vertex -31.6058 -83.0911 6.25
      vertex -34.5 -81.8923 6.25
    endloop
  endfacet
  facet normal -0.382679 -0.923881 -0
    outer loop
      vertex -31.6058 -83.0911 6.25
      vertex -34.5 -81.8923 -6.25
      vertex -31.6058 -83.0911 -6.25
    endloop
  endfacet
  facet normal -0.382679 0.923881 0
    outer loop
      vertex -31.6058 83.0911 -6.25
      vertex -34.5 81.8923 6.25
      vertex -31.6058 83.0911 6.25
    endloop
  endfacet
  facet normal -0.382679 0.923881 0
    outer loop
      vertex -34.5 81.8923 6.25
      vertex -31.6058 83.0911 -6.25
      vertex -34.5 81.8923 -6.25
    endloop
  endfacet
  facet normal 0.382679 -0.923881 0
    outer loop
      vertex 31.6058 -83.0911 -6.25
      vertex 34.5 -81.8923 6.25
      vertex 31.6058 -83.0911 6.25
    endloop
  endfacet
  facet normal 0.382679 -0.923881 0
    outer loop
      vertex 34.5 -81.8923 6.25
      vertex 31.6058 -83.0911 -6.25
      vertex 34.5 -81.8923 -6.25
    endloop
  endfacet
  facet normal -0.13053 -0.991444 0
    outer loop
      vertex -31.6058 -83.0911 -6.25
      vertex -28.5 -83.5 6.25
      vertex -31.6058 -83.0911 6.25
    endloop
  endfacet
  facet normal -0.13053 -0.991444 -0
    outer loop
      vertex -28.5 -83.5 6.25
      vertex -31.6058 -83.0911 -6.25
      vertex -28.5 -83.5 -6.25
    endloop
  endfacet
  facet normal 0.991444 -0.13053 1.02317e-18
    outer loop
      vertex 40.0911 -74.6058 6.25
      vertex 40.5 -71.5 -6.25
      vertex 40.5 -71.5 6.25
    endloop
  endfacet
  facet normal 0.991444 -0.13053 1.02317e-18
    outer loop
      vertex 40.5 -71.5 -6.25
      vertex 40.0911 -74.6058 6.25
      vertex 40.0911 -74.6058 -6.25
    endloop
  endfacet
  facet normal 0 1 -0
    outer loop
      vertex 28.5 83.5 -6.25
      vertex -28.5 83.5 6.25
      vertex 28.5 83.5 6.25
    endloop
  endfacet
  facet normal 0 1 0
    outer loop
      vertex -28.5 83.5 6.25
      vertex 28.5 83.5 -6.25
      vertex -28.5 83.5 -6.25
    endloop
  endfacet
  facet normal 0.13053 0.991444 -0
    outer loop
      vertex 31.6058 83.0911 -6.25
      vertex 28.5 83.5 6.25
      vertex 31.6058 83.0911 6.25
    endloop
  endfacet
  facet normal 0.13053 0.991444 0
    outer loop
      vertex 28.5 83.5 6.25
      vertex 31.6058 83.0911 -6.25
      vertex 28.5 83.5 -6.25
    endloop
  endfacet
  facet normal -0.608754 0.793359 0
    outer loop
      vertex -34.5 81.8923 -6.25
      vertex -36.9853 79.9853 6.25
      vertex -34.5 81.8923 6.25
    endloop
  endfacet
  facet normal -0.608754 0.793359 0
    outer loop
      vertex -36.9853 79.9853 6.25
      vertex -34.5 81.8923 -6.25
      vertex -36.9853 79.9853 -6.25
    endloop
  endfacet
  facet normal 0.13053 -0.991444 0
    outer loop
      vertex 28.5 -83.5 -6.25
      vertex 31.6058 -83.0911 6.25
      vertex 28.5 -83.5 6.25
    endloop
  endfacet
  facet normal 0.13053 -0.991444 0
    outer loop
      vertex 31.6058 -83.0911 6.25
      vertex 28.5 -83.5 -6.25
      vertex 31.6058 -83.0911 -6.25
    endloop
  endfacet
  facet normal -0.991444 -0.13053 -1.02317e-18
    outer loop
      vertex -40.0911 -74.6058 -6.25
      vertex -40.5 -71.5 6.25
      vertex -40.5 -71.5 -6.25
    endloop
  endfacet
  facet normal -0.991444 -0.13053 -1.02317e-18
    outer loop
      vertex -40.5 -71.5 6.25
      vertex -40.0911 -74.6058 -6.25
      vertex -40.0911 -74.6058 6.25
    endloop
  endfacet
  facet normal 0 0 1
    outer loop
      vertex 28.5 83.5 6.25
      vertex 40.5 71.5 6.25
      vertex 40.0911 74.6058 6.25
    endloop
  endfacet
  facet normal 0 0 1
    outer loop
      vertex 40.5 71.5 6.25
      vertex -40.5 71.5 6.25
      vertex 40.5 -71.5 6.25
    endloop
  endfacet
  facet normal 0 0 1
    outer loop
      vertex 28.5 83.5 6.25
      vertex 40.0911 74.6058 6.25
      vertex 38.8923 77.5 6.25
    endloop
  endfacet
  facet normal 0 0 1
    outer loop
      vertex -40.5 -71.5 6.25
      vertex 40.5 -71.5 6.25
      vertex -40.5 71.5 6.25
    endloop
  endfacet
  facet normal 0 0 1
    outer loop
      vertex 28.5 83.5 6.25
      vertex 38.8923 77.5 6.25
      vertex 36.9853 79.9853 6.25
    endloop
  endfacet
  facet normal 0 -0 1
    outer loop
      vertex 28.5 -83.5 6.25
      vertex 40.5 -71.5 6.25
      vertex -40.5 -71.5 6.25
    endloop
  endfacet
  facet normal 0 0 1
    outer loop
      vertex 28.5 83.5 6.25
      vertex 36.9853 79.9853 6.25
      vertex 34.5 81.8923 6.25
    endloop
  endfacet
  facet normal 0 0 1
    outer loop
      vertex 40.5 71.5 6.25
      vertex 28.5 83.5 6.25
      vertex -40.5 71.5 6.25
    endloop
  endfacet
  facet normal 0 0 1
    outer loop
      vertex 28.5 83.5 6.25
      vertex 34.5 81.8923 6.25
      vertex 31.6058 83.0911 6.25
    endloop
  endfacet
  facet normal 0 0 1
    outer loop
      vertex 40.5 -71.5 6.25
      vertex 28.5 -83.5 6.25
      vertex 40.0911 -74.6058 6.25
    endloop
  endfacet
  facet normal 0 0 1
    outer loop
      vertex 36.9853 -79.9853 6.25
      vertex 28.5 -83.5 6.25
      vertex 34.5 -81.8923 6.25
    endloop
  endfacet
  facet normal 0 0 1
    outer loop
      vertex 34.5 -81.8923 6.25
      vertex 28.5 -83.5 6.25
      vertex 31.6058 -83.0911 6.25
    endloop
  endfacet
  facet normal 0 0 1
    outer loop
      vertex -40.5 71.5 6.25
      vertex 28.5 83.5 6.25
      vertex -28.5 83.5 6.25
    endloop
  endfacet
  facet normal 0 0 1
    outer loop
      vertex 40.0911 -74.6058 6.25
      vertex 28.5 -83.5 6.25
      vertex 38.8923 -77.5 6.25
    endloop
  endfacet
  facet normal 0 0 1
    outer loop
      vertex -40.5 71.5 6.25
      vertex -28.5 83.5 6.25
      vertex -31.6058 83.0911 6.25
    endloop
  endfacet
  facet normal 0 0 1
    outer loop
      vertex 38.8923 -77.5 6.25
      vertex 28.5 -83.5 6.25
      vertex 36.9853 -79.9853 6.25
    endloop
  endfacet
  facet normal 0 0 1
    outer loop
      vertex -40.5 71.5 6.25
      vertex -31.6058 83.0911 6.25
      vertex -34.5 81.8923 6.25
    endloop
  endfacet
  facet normal 0 0 1
    outer loop
      vertex 28.5 -83.5 6.25
      vertex -40.5 -71.5 6.25
      vertex -28.5 -83.5 6.25
    endloop
  endfacet
  facet normal 0 0 1
    outer loop
      vertex -40.5 71.5 6.25
      vertex -34.5 81.8923 6.25
      vertex -36.9853 79.9853 6.25
    endloop
  endfacet
  facet normal 0 0 1
    outer loop
      vertex -28.5 -83.5 6.25
      vertex -40.5 -71.5 6.25
      vertex -31.6058 -83.0911 6.25
    endloop
  endfacet
  facet normal 0 0 1
    outer loop
      vertex -40.5 71.5 6.25
      vertex -36.9853 79.9853 6.25
      vertex -38.8923 77.5 6.25
    endloop
  endfacet
  facet normal 0 0 1
    outer loop
      vertex -31.6058 -83.0911 6.25
      vertex -40.5 -71.5 6.25
      vertex -34.5 -81.8923 6.25
    endloop
  endfacet
  facet normal 0 0 1
    outer loop
      vertex -40.5 71.5 6.25
      vertex -38.8923 77.5 6.25
      vertex -40.0911 74.6058 6.25
    endloop
  endfacet
  facet normal 0 0 1
    outer loop
      vertex -34.5 -81.8923 6.25
      vertex -40.5 -71.5 6.25
      vertex -36.9853 -79.9853 6.25
    endloop
  endfacet
  facet normal 0 0 1
    outer loop
      vertex -36.9853 -79.9853 6.25
      vertex -40.5 -71.5 6.25
      vertex -38.8923 -77.5 6.25
    endloop
  endfacet
  facet normal 0 0 1
    outer loop
      vertex -38.8923 -77.5 6.25
      vertex -40.5 -71.5 6.25
      vertex -40.0911 -74.6058 6.25
    endloop
  endfacet
  facet normal 1 0 0
    outer loop
      vertex 40.5 65 -1.25
      vertex 40.5 71.5 6.25
      vertex 40.5 65 1.75
    endloop
  endfacet
  facet normal 1 0 0
    outer loop
      vertex 40.5 71.5 6.25
      vertex 40.5 35 1.75
      vertex 40.5 65 1.75
    endloop
  endfacet
  facet normal 1 0 0
    outer loop
      vertex 40.5 35 1.75
      vertex 40.5 27.5 1.75
      vertex 40.5 35 -1.25
    endloop
  endfacet
  facet normal 1 0 0
    outer loop
      vertex 40.5 71.5 6.25
      vertex 40.5 27.5 1.75
      vertex 40.5 35 1.75
    endloop
  endfacet
  facet normal 1 0 0
    outer loop
      vertex 40.5 71.5 6.25
      vertex 40.5 12.5 1.75
      vertex 40.5 27.5 1.75
    endloop
  endfacet
  facet normal 1 0 0
    outer loop
      vertex 40.5 12.5 1.75
      vertex 40.5 -71.5 6.25
      vertex 40.5 12.5 -1.25
    endloop
  endfacet
  facet normal 1 -0 0
    outer loop
      vertex 40.5 -71.5 6.25
      vertex 40.5 12.5 1.75
      vertex 40.5 71.5 6.25
    endloop
  endfacet
  facet normal 1 0 0
    outer loop
      vertex 40.5 71.5 6.25
      vertex 40.5 65 -1.25
      vertex 40.5 71.5 -6.25
    endloop
  endfacet
  facet normal 1 -0 0
    outer loop
      vertex 40.5 35 -1.25
      vertex 40.5 71.5 -6.25
      vertex 40.5 65 -1.25
    endloop
  endfacet
  facet normal 1 0 0
    outer loop
      vertex 40.5 27.5 -1.25
      vertex 40.5 35 -1.25
      vertex 40.5 27.5 1.75
    endloop
  endfacet
  facet normal 1 -0 0
    outer loop
      vertex 40.5 27.5 -1.25
      vertex 40.5 71.5 -6.25
      vertex 40.5 35 -1.25
    endloop
  endfacet
  facet normal 1 -0 0
    outer loop
      vertex 40.5 12.5 -1.25
      vertex 40.5 71.5 -6.25
      vertex 40.5 27.5 -1.25
    endloop
  endfacet
  facet normal 1 0 0
    outer loop
      vertex 40.5 12.5 -1.25
      vertex 40.5 -71.5 -6.25
      vertex 40.5 71.5 -6.25
    endloop
  endfacet
  facet normal 1 0 0
    outer loop
      vertex 40.5 -71.5 -6.25
      vertex 40.5 12.5 -1.25
      vertex 40.5 -71.5 6.25
    endloop
  endfacet
  facet normal 0.608754 0.793359 -0
    outer loop
      vertex 36.9853 79.9853 -6.25
      vertex 34.5 81.8923 6.25
      vertex 36.9853 79.9853 6.25
    endloop
  endfacet
  facet normal 0.608754 0.793359 0
    outer loop
      vertex 34.5 81.8923 6.25
      vertex 36.9853 79.9853 -6.25
      vertex 34.5 81.8923 -6.25
    endloop
  endfacet
  facet normal -1 0 0
    outer loop
      vertex -40.5 -71.5 -6.25
      vertex -40.5 71.5 6.25
      vertex -40.5 71.5 -6.25
    endloop
  endfacet
  facet normal -1 -0 0
    outer loop
      vertex -40.5 71.5 6.25
      vertex -40.5 -71.5 -6.25
      vertex -40.5 -71.5 6.25
    endloop
  endfacet
  facet normal 0.991444 0.13053 -1.02317e-18
    outer loop
      vertex 40.5 71.5 6.25
      vertex 40.0911 74.6058 -6.25
      vertex 40.0911 74.6058 6.25
    endloop
  endfacet
  facet normal 0.991444 0.13053 -1.02317e-18
    outer loop
      vertex 40.0911 74.6058 -6.25
      vertex 40.5 71.5 6.25
      vertex 40.5 71.5 -6.25
    endloop
  endfacet
  facet normal 0.923881 -0.382679 3.8779e-19
    outer loop
      vertex 38.8923 -77.5 6.25
      vertex 40.0911 -74.6058 -6.25
      vertex 40.0911 -74.6058 6.25
    endloop
  endfacet
  facet normal 0.923881 -0.382679 3.8779e-19
    outer loop
      vertex 40.0911 -74.6058 -6.25
      vertex 38.8923 -77.5 6.25
      vertex 38.8923 -77.5 -6.25
    endloop
  endfacet
  facet normal 0.793359 -0.608754 2.59322e-18
    outer loop
      vertex 36.9853 -79.9853 6.25
      vertex 38.8923 -77.5 -6.25
      vertex 38.8923 -77.5 6.25
    endloop
  endfacet
  facet normal 0.793359 -0.608754 2.59322e-18
    outer loop
      vertex 38.8923 -77.5 -6.25
      vertex 36.9853 -79.9853 6.25
      vertex 36.9853 -79.9853 -6.25
    endloop
  endfacet
  facet normal 0 -1 0
    outer loop
      vertex -28.5 -83.5 6.25
      vertex -5 -83.5 2.75
      vertex 28.5 -83.5 6.25
    endloop
  endfacet
  facet normal 0 -1 0
    outer loop
      vertex -28.5 -83.5 6.25
      vertex -5 -83.5 -2.25
      vertex -5 -83.5 2.75
    endloop
  endfacet
  facet normal 0 -1 -0
    outer loop
      vertex -5 -83.5 -2.25
      vertex -28.5 -83.5 -6.25
      vertex 5 -83.5 -2.25
    endloop
  endfacet
  facet normal 0 -1 0
    outer loop
      vertex -28.5 -83.5 -6.25
      vertex -5 -83.5 -2.25
      vertex -28.5 -83.5 6.25
    endloop
  endfacet
  facet normal 0 -1 0
    outer loop
      vertex 5 -83.5 2.75
      vertex 28.5 -83.5 6.25
      vertex -5 -83.5 2.75
    endloop
  endfacet
  facet normal 0 -1 0
    outer loop
      vertex 5 -83.5 -2.25
      vertex 28.5 -83.5 6.25
      vertex 5 -83.5 2.75
    endloop
  endfacet
  facet normal 0 -1 0
    outer loop
      vertex 5 -83.5 -2.25
      vertex 28.5 -83.5 -6.25
      vertex 28.5 -83.5 6.25
    endloop
  endfacet
  facet normal 0 -1 0
    outer loop
      vertex 28.5 -83.5 -6.25
      vertex 5 -83.5 -2.25
      vertex -28.5 -83.5 -6.25
    endloop
  endfacet
  facet normal 0.382679 0.923881 -0
    outer loop
      vertex 34.5 81.8923 -6.25
      vertex 31.6058 83.0911 6.25
      vertex 34.5 81.8923 6.25
    endloop
  endfacet
  facet normal 0.382679 0.923881 0
    outer loop
      vertex 31.6058 83.0911 6.25
      vertex 34.5 81.8923 -6.25
      vertex 31.6058 83.0911 -6.25
    endloop
  endfacet
  facet normal -0.991444 0.13053 1.02317e-18
    outer loop
      vertex -40.5 71.5 -6.25
      vertex -40.0911 74.6058 6.25
      vertex -40.0911 74.6058 -6.25
    endloop
  endfacet
  facet normal -0.991444 0.13053 1.02317e-18
    outer loop
      vertex -40.0911 74.6058 6.25
      vertex -40.5 71.5 -6.25
      vertex -40.5 71.5 6.25
    endloop
  endfacet
  facet normal -0.923881 0.382679 3.8779e-19
    outer loop
      vertex -40.0911 74.6058 -6.25
      vertex -38.8923 77.5 6.25
      vertex -38.8923 77.5 -6.25
    endloop
  endfacet
  facet normal -0.923881 0.382679 3.8779e-19
    outer loop
      vertex -38.8923 77.5 6.25
      vertex -40.0911 74.6058 -6.25
      vertex -40.0911 74.6058 6.25
    endloop
  endfacet
  facet normal -0.793359 -0.608754 -2.59322e-18
    outer loop
      vertex -36.9853 -79.9853 -6.25
      vertex -38.8923 -77.5 6.25
      vertex -38.8923 -77.5 -6.25
    endloop
  endfacet
  facet normal -0.793359 -0.608754 -2.59322e-18
    outer loop
      vertex -38.8923 -77.5 6.25
      vertex -36.9853 -79.9853 -6.25
      vertex -36.9853 -79.9853 6.25
    endloop
  endfacet
  facet normal -0.608754 -0.793359 0
    outer loop
      vertex -36.9853 -79.9853 -6.25
      vertex -34.5 -81.8923 6.25
      vertex -36.9853 -79.9853 6.25
    endloop
  endfacet
  facet normal -0.608754 -0.793359 -0
    outer loop
      vertex -34.5 -81.8923 6.25
      vertex -36.9853 -79.9853 -6.25
      vertex -34.5 -81.8923 -6.25
    endloop
  endfacet
  facet normal 0.793359 0.608754 -2.59322e-18
    outer loop
      vertex 38.8923 77.5 6.25
      vertex 36.9853 79.9853 -6.25
      vertex 36.9853 79.9853 6.25
    endloop
  endfacet
  facet normal 0.793359 0.608754 -2.59322e-18
    outer loop
      vertex 36.9853 79.9853 -6.25
      vertex 38.8923 77.5 6.25
      vertex 38.8923 77.5 -6.25
    endloop
  endfacet
  facet normal 0 0 -1
    outer loop
      vertex 28.5 -83.5 -6.25
      vertex 40.5 -71.5 -6.25
      vertex 40.0911 -74.6058 -6.25
    endloop
  endfacet
  facet normal 0 0 -1
    outer loop
      vertex 40.5 -71.5 -6.25
      vertex 33.75 54.25 -6.25
      vertex 40.5 71.5 -6.25
    endloop
  endfacet
  facet normal 0 0 -1
    outer loop
      vertex 28.5 -83.5 -6.25
      vertex 40.0911 -74.6058 -6.25
      vertex 38.8923 -77.5 -6.25
    endloop
  endfacet
  facet normal 0 0 -1
    outer loop
      vertex 33.75 69.25 -6.25
      vertex 40.5 71.5 -6.25
      vertex 33.75 54.25 -6.25
    endloop
  endfacet
  facet normal 0 0 -1
    outer loop
      vertex 28.5 -83.5 -6.25
      vertex 38.8923 -77.5 -6.25
      vertex 36.9853 -79.9853 -6.25
    endloop
  endfacet
  facet normal -0 0 -1
    outer loop
      vertex 40.5 71.5 -6.25
      vertex 33.75 69.25 -6.25
      vertex 40.0911 74.6058 -6.25
    endloop
  endfacet
  facet normal 0 0 -1
    outer loop
      vertex 28.5 -83.5 -6.25
      vertex 36.9853 -79.9853 -6.25
      vertex 34.5 -81.8923 -6.25
    endloop
  endfacet
  facet normal -0 0 -1
    outer loop
      vertex 40.0911 74.6058 -6.25
      vertex 33.75 69.25 -6.25
      vertex 38.8923 77.5 -6.25
    endloop
  endfacet
  facet normal -0 0 -1
    outer loop
      vertex 38.8923 77.5 -6.25
      vertex 33.75 69.25 -6.25
      vertex 36.9853 79.9853 -6.25
    endloop
  endfacet
  facet normal 0 0 -1
    outer loop
      vertex 28.5 -83.5 -6.25
      vertex 34.5 -81.8923 -6.25
      vertex 31.6058 -83.0911 -6.25
    endloop
  endfacet
  facet normal -0 0 -1
    outer loop
      vertex 40.5 -71.5 -6.25
      vertex 28.5 -83.5 -6.25
      vertex -40.5 -71.5 -6.25
    endloop
  endfacet
  facet normal 0 0 -1
    outer loop
      vertex -40.5 -71.5 -6.25
      vertex 28.5 -83.5 -6.25
      vertex -28.5 -83.5 -6.25
    endloop
  endfacet
  facet normal 0 0 -1
    outer loop
      vertex -40.5 -71.5 -6.25
      vertex -28.5 -83.5 -6.25
      vertex -31.6058 -83.0911 -6.25
    endloop
  endfacet
  facet normal 0 0 -1
    outer loop
      vertex 40.5 -71.5 -6.25
      vertex -40.5 -71.5 -6.25
      vertex 33.75 54.25 -6.25
    endloop
  endfacet
  facet normal -0 0 -1
    outer loop
      vertex 33.75 54.25 -6.25
      vertex -40.5 -71.5 -6.25
      vertex -33.75 54.25 -6.25
    endloop
  endfacet
  facet normal 0 0 -1
    outer loop
      vertex -40.5 -71.5 -6.25
      vertex -31.6058 -83.0911 -6.25
      vertex -34.5 -81.8923 -6.25
    endloop
  endfacet
  facet normal -0 0 -1
    outer loop
      vertex 36.9853 79.9853 -6.25
      vertex 33.75 69.25 -6.25
      vertex 34.5 81.8923 -6.25
    endloop
  endfacet
  facet normal 0 0 -1
    outer loop
      vertex 33.75 69.25 -6.25
      vertex 31.6058 83.0911 -6.25
      vertex 34.5 81.8923 -6.25
    endloop
  endfacet
  facet normal 0 0 -1
    outer loop
      vertex 33.75 69.25 -6.25
      vertex 28.5 83.5 -6.25
      vertex 31.6058 83.0911 -6.25
    endloop
  endfacet
  facet normal 0 0 -1
    outer loop
      vertex 33.75 69.25 -6.25
      vertex -28.5 83.5 -6.25
      vertex 28.5 83.5 -6.25
    endloop
  endfacet
  facet normal 0 0 -1
    outer loop
      vertex -33.75 69.25 -6.25
      vertex -28.5 83.5 -6.25
      vertex 33.75 69.25 -6.25
    endloop
  endfacet
  facet normal 0 0 -1
    outer loop
      vertex -28.5 83.5 -6.25
      vertex -33.75 69.25 -6.25
      vertex -31.6058 83.0911 -6.25
    endloop
  endfacet
  facet normal 0 0 -1
    outer loop
      vertex -33.75 69.25 -6.25
      vertex -34.5 81.8923 -6.25
      vertex -31.6058 83.0911 -6.25
    endloop
  endfacet
  facet normal 0 0 -1
    outer loop
      vertex -40.5 71.5 -6.25
      vertex -33.75 54.25 -6.25
      vertex -40.5 -71.5 -6.25
    endloop
  endfacet
  facet normal 0 0 -1
    outer loop
      vertex -40.5 -71.5 -6.25
      vertex -34.5 -81.8923 -6.25
      vertex -36.9853 -79.9853 -6.25
    endloop
  endfacet
  facet normal 0 0 -1
    outer loop
      vertex -33.75 54.25 -6.25
      vertex -40.5 71.5 -6.25
      vertex -33.75 69.25 -6.25
    endloop
  endfacet
  facet normal 0 0 -1
    outer loop
      vertex -40.5 -71.5 -6.25
      vertex -36.9853 -79.9853 -6.25
      vertex -38.8923 -77.5 -6.25
    endloop
  endfacet
  facet normal 0 -0 -1
    outer loop
      vertex -40.0911 74.6058 -6.25
      vertex -33.75 69.25 -6.25
      vertex -40.5 71.5 -6.25
    endloop
  endfacet
  facet normal 0 0 -1
    outer loop
      vertex -40.5 -71.5 -6.25
      vertex -38.8923 -77.5 -6.25
      vertex -40.0911 -74.6058 -6.25
    endloop
  endfacet
  facet normal 0 0 -1
    outer loop
      vertex -33.75 69.25 -6.25
      vertex -36.9853 79.9853 -6.25
      vertex -34.5 81.8923 -6.25
    endloop
  endfacet
  facet normal 0 0 -1
    outer loop
      vertex -33.75 69.25 -6.25
      vertex -38.8923 77.5 -6.25
      vertex -36.9853 79.9853 -6.25
    endloop
  endfacet
  facet normal 0 0 -1
    outer loop
      vertex -33.75 69.25 -6.25
      vertex -40.0911 74.6058 -6.25
      vertex -38.8923 77.5 -6.25
    endloop
  endfacet
  facet normal -0.923881 -0.382679 -3.8779e-19
    outer loop
      vertex -38.8923 -77.5 -6.25
      vertex -40.0911 -74.6058 6.25
      vertex -40.0911 -74.6058 -6.25
    endloop
  endfacet
  facet normal -0.923881 -0.382679 -3.8779e-19
    outer loop
      vertex -40.0911 -74.6058 6.25
      vertex -38.8923 -77.5 -6.25
      vertex -38.8923 -77.5 6.25
    endloop
  endfacet
  facet normal 0.608754 -0.793359 0
    outer loop
      vertex 34.5 -81.8923 -6.25
      vertex 36.9853 -79.9853 6.25
      vertex 34.5 -81.8923 6.25
    endloop
  endfacet
  facet normal 0.608754 -0.793359 0
    outer loop
      vertex 36.9853 -79.9853 6.25
      vertex 34.5 -81.8923 -6.25
      vertex 36.9853 -79.9853 -6.25
    endloop
  endfacet
  facet normal 0 1 -0
    outer loop
      vertex 28.5 -81.75 -5.5
      vertex -28.5 -81.75 6
      vertex 28.5 -81.75 6
    endloop
  endfacet
  facet normal 0 1 0
    outer loop
      vertex -28.5 -81.75 6
      vertex 28.5 -81.75 -5.5
      vertex -28.5 -81.75 -5.5
    endloop
  endfacet
  facet normal 0 0 1
    outer loop
      vertex 33.75 69.25 -5.5
      vertex 38.75 71.5 -5.5
      vertex 38.4007 74.1529 -5.5
    endloop
  endfacet
  facet normal 0 0 1
    outer loop
      vertex 38.75 71.5 -5.5
      vertex 33.75 54.25 -5.5
      vertex 38.75 -71.5 -5.5
    endloop
  endfacet
  facet normal 0 0 1
    outer loop
      vertex 33.75 69.25 -5.5
      vertex 38.4007 74.1529 -5.5
      vertex 37.3768 76.625 -5.5
    endloop
  endfacet
  facet normal 0 0 1
    outer loop
      vertex -38.75 -71.5 -5.5
      vertex 38.75 -71.5 -5.5
      vertex 33.75 54.25 -5.5
    endloop
  endfacet
  facet normal 0 0 1
    outer loop
      vertex 33.75 69.25 -5.5
      vertex 37.3768 76.625 -5.5
      vertex 35.7478 78.7478 -5.5
    endloop
  endfacet
  facet normal 0 -0 1
    outer loop
      vertex 28.5 -81.75 -5.5
      vertex 38.75 -71.5 -5.5
      vertex -38.75 -71.5 -5.5
    endloop
  endfacet
  facet normal 0 0 1
    outer loop
      vertex 38.75 71.5 -5.5
      vertex 33.75 69.25 -5.5
      vertex 33.75 54.25 -5.5
    endloop
  endfacet
  facet normal 0 0 1
    outer loop
      vertex 33.625 80.3768 -5.5
      vertex 33.75 69.25 -5.5
      vertex 35.7478 78.7478 -5.5
    endloop
  endfacet
  facet normal 0 0 1
    outer loop
      vertex 31.1529 81.4007 -5.5
      vertex 33.75 69.25 -5.5
      vertex 33.625 80.3768 -5.5
    endloop
  endfacet
  facet normal 0 0 1
    outer loop
      vertex 28.5 81.75 -5.5
      vertex 33.75 69.25 -5.5
      vertex 31.1529 81.4007 -5.5
    endloop
  endfacet
  facet normal -0 0 1
    outer loop
      vertex -28.5 81.75 -5.5
      vertex 33.75 69.25 -5.5
      vertex 28.5 81.75 -5.5
    endloop
  endfacet
  facet normal 0 0 1
    outer loop
      vertex -33.75 69.25 -5.5
      vertex -28.5 81.75 -5.5
      vertex -31.1529 81.4007 -5.5
    endloop
  endfacet
  facet normal 0 0 1
    outer loop
      vertex -33.75 69.25 -5.5
      vertex -31.1529 81.4007 -5.5
      vertex -33.625 80.3768 -5.5
    endloop
  endfacet
  facet normal 0 0 1
    outer loop
      vertex -28.5 81.75 -5.5
      vertex -33.75 69.25 -5.5
      vertex 33.75 69.25 -5.5
    endloop
  endfacet
  facet normal -0 0 1
    outer loop
      vertex -37.3768 76.625 -5.5
      vertex -33.75 69.25 -5.5
      vertex -35.7478 78.7478 -5.5
    endloop
  endfacet
  facet normal -0 0 1
    outer loop
      vertex -35.7478 78.7478 -5.5
      vertex -33.75 69.25 -5.5
      vertex -33.625 80.3768 -5.5
    endloop
  endfacet
  facet normal 0 0 1
    outer loop
      vertex 38.75 -71.5 -5.5
      vertex 28.5 -81.75 -5.5
      vertex 38.4007 -74.1529 -5.5
    endloop
  endfacet
  facet normal 0 0 1
    outer loop
      vertex 37.3768 -76.625 -5.5
      vertex 28.5 -81.75 -5.5
      vertex 35.7478 -78.7478 -5.5
    endloop
  endfacet
  facet normal 0 0 1
    outer loop
      vertex 35.7478 -78.7478 -5.5
      vertex 28.5 -81.75 -5.5
      vertex 33.625 -80.3768 -5.5
    endloop
  endfacet
  facet normal 0 0 1
    outer loop
      vertex 33.625 -80.3768 -5.5
      vertex 28.5 -81.75 -5.5
      vertex 31.1529 -81.4007 -5.5
    endloop
  endfacet
  facet normal 0 0 1
    outer loop
      vertex 38.4007 -74.1529 -5.5
      vertex 28.5 -81.75 -5.5
      vertex 37.3768 -76.625 -5.5
    endloop
  endfacet
  facet normal 0 0 1
    outer loop
      vertex 28.5 -81.75 -5.5
      vertex -38.75 -71.5 -5.5
      vertex -28.5 -81.75 -5.5
    endloop
  endfacet
  facet normal 0 0 1
    outer loop
      vertex -28.5 -81.75 -5.5
      vertex -38.75 -71.5 -5.5
      vertex -31.1529 -81.4007 -5.5
    endloop
  endfacet
  facet normal 0 0 1
    outer loop
      vertex -38.75 -71.5 -5.5
      vertex 33.75 54.25 -5.5
      vertex -33.75 54.25 -5.5
    endloop
  endfacet
  facet normal 0 0 1
    outer loop
      vertex -33.75 69.25 -5.5
      vertex -38.75 71.5 -5.5
      vertex -33.75 54.25 -5.5
    endloop
  endfacet
  facet normal 0 0 1
    outer loop
      vertex -38.75 -71.5 -5.5
      vertex -33.75 54.25 -5.5
      vertex -38.75 71.5 -5.5
    endloop
  endfacet
  facet normal -0 0 1
    outer loop
      vertex -38.4007 74.1529 -5.5
      vertex -33.75 69.25 -5.5
      vertex -37.3768 76.625 -5.5
    endloop
  endfacet
  facet normal 0 0 1
    outer loop
      vertex -31.1529 -81.4007 -5.5
      vertex -38.75 -71.5 -5.5
      vertex -33.625 -80.3768 -5.5
    endloop
  endfacet
  facet normal 0 0 1
    outer loop
      vertex -33.75 69.25 -5.5
      vertex -38.4007 74.1529 -5.5
      vertex -38.75 71.5 -5.5
    endloop
  endfacet
  facet normal 0 0 1
    outer loop
      vertex -33.625 -80.3768 -5.5
      vertex -38.75 -71.5 -5.5
      vertex -35.7478 -78.7478 -5.5
    endloop
  endfacet
  facet normal 0 0 1
    outer loop
      vertex -35.7478 -78.7478 -5.5
      vertex -38.75 -71.5 -5.5
      vertex -37.3768 -76.625 -5.5
    endloop
  endfacet
  facet normal 0 0 1
    outer loop
      vertex -37.3768 -76.625 -5.5
      vertex -38.75 -71.5 -5.5
      vertex -38.4007 -74.1529 -5.5
    endloop
  endfacet
  facet normal -0.92389 0.382659 -6.38156e-18
    outer loop
      vertex 37.3768 -76.625 -5.5
      vertex 38.4007 -74.1529 6
      vertex 38.4007 -74.1529 -5.5
    endloop
  endfacet
  facet normal -0.92389 0.382659 -6.38156e-18
    outer loop
      vertex 38.4007 -74.1529 6
      vertex 37.3768 -76.625 -5.5
      vertex 37.3768 -76.625 6
    endloop
  endfacet
  facet normal 0 -1 0
    outer loop
      vertex -28.5 81.75 -5.5
      vertex 28.5 81.75 6
      vertex -28.5 81.75 6
    endloop
  endfacet
  facet normal 0 -1 -0
    outer loop
      vertex 28.5 81.75 6
      vertex -28.5 81.75 -5.5
      vertex 28.5 81.75 -5.5
    endloop
  endfacet
  facet normal -0.130541 0.991443 0
    outer loop
      vertex 31.1529 -81.4007 -5.5
      vertex 28.5 -81.75 6
      vertex 31.1529 -81.4007 6
    endloop
  endfacet
  facet normal -0.130541 0.991443 0
    outer loop
      vertex 28.5 -81.75 6
      vertex 31.1529 -81.4007 -5.5
      vertex 28.5 -81.75 -5.5
    endloop
  endfacet
  facet normal -0.382659 -0.92389 0
    outer loop
      vertex 31.1529 81.4007 -5.5
      vertex 33.625 80.3768 6
      vertex 31.1529 81.4007 6
    endloop
  endfacet
  facet normal -0.382659 -0.92389 -0
    outer loop
      vertex 33.625 80.3768 6
      vertex 31.1529 81.4007 -5.5
      vertex 33.625 80.3768 -5.5
    endloop
  endfacet
  facet normal -1 0 0
    outer loop
      vertex 38.75 -71.5 -5.5
      vertex 38.75 71.5 6
      vertex 38.75 71.5 -5.5
    endloop
  endfacet
  facet normal -1 -0 0
    outer loop
      vertex 38.75 71.5 6
      vertex 38.75 -71.5 -5.5
      vertex 38.75 -71.5 6
    endloop
  endfacet
  facet normal 0.991443 -0.130541 1.32445e-18
    outer loop
      vertex -38.75 71.5 6
      vertex -38.4007 74.1529 -5.5
      vertex -38.4007 74.1529 6
    endloop
  endfacet
  facet normal 0.991443 -0.130541 1.32445e-18
    outer loop
      vertex -38.4007 74.1529 -5.5
      vertex -38.75 71.5 6
      vertex -38.75 71.5 -5.5
    endloop
  endfacet
  facet normal 0.608789 0.793332 -0
    outer loop
      vertex -33.625 -80.3768 -5.5
      vertex -35.7478 -78.7478 6
      vertex -33.625 -80.3768 6
    endloop
  endfacet
  facet normal 0.608789 0.793332 0
    outer loop
      vertex -35.7478 -78.7478 6
      vertex -33.625 -80.3768 -5.5
      vertex -35.7478 -78.7478 -5.5
    endloop
  endfacet
  facet normal -0.793332 0.608789 -6.81491e-18
    outer loop
      vertex 35.7478 -78.7478 -5.5
      vertex 37.3768 -76.625 6
      vertex 37.3768 -76.625 -5.5
    endloop
  endfacet
  facet normal -0.793332 0.608789 -6.81491e-18
    outer loop
      vertex 37.3768 -76.625 6
      vertex 35.7478 -78.7478 -5.5
      vertex 35.7478 -78.7478 6
    endloop
  endfacet
  facet normal -0.92389 -0.382659 6.38156e-18
    outer loop
      vertex 38.4007 74.1529 -5.5
      vertex 37.3768 76.625 6
      vertex 37.3768 76.625 -5.5
    endloop
  endfacet
  facet normal -0.92389 -0.382659 6.38156e-18
    outer loop
      vertex 37.3768 76.625 6
      vertex 38.4007 74.1529 -5.5
      vertex 38.4007 74.1529 6
    endloop
  endfacet
  facet normal 0.92389 0.382659 6.38156e-18
    outer loop
      vertex -37.3768 -76.625 6
      vertex -38.4007 -74.1529 -5.5
      vertex -38.4007 -74.1529 6
    endloop
  endfacet
  facet normal 0.92389 0.382659 6.38156e-18
    outer loop
      vertex -38.4007 -74.1529 -5.5
      vertex -37.3768 -76.625 6
      vertex -37.3768 -76.625 -5.5
    endloop
  endfacet
  facet normal -0.130541 -0.991443 0
    outer loop
      vertex 28.5 81.75 -5.5
      vertex 31.1529 81.4007 6
      vertex 28.5 81.75 6
    endloop
  endfacet
  facet normal -0.130541 -0.991443 -0
    outer loop
      vertex 31.1529 81.4007 6
      vertex 28.5 81.75 -5.5
      vertex 31.1529 81.4007 -5.5
    endloop
  endfacet
  facet normal -0.991443 -0.130541 -1.32445e-18
    outer loop
      vertex 38.75 71.5 -5.5
      vertex 38.4007 74.1529 6
      vertex 38.4007 74.1529 -5.5
    endloop
  endfacet
  facet normal -0.991443 -0.130541 -1.32445e-18
    outer loop
      vertex 38.4007 74.1529 6
      vertex 38.75 71.5 -5.5
      vertex 38.75 71.5 6
    endloop
  endfacet
  facet normal 0.92389 -0.382659 -6.38156e-18
    outer loop
      vertex -38.4007 74.1529 6
      vertex -37.3768 76.625 -5.5
      vertex -37.3768 76.625 6
    endloop
  endfacet
  facet normal 0.92389 -0.382659 -6.38156e-18
    outer loop
      vertex -37.3768 76.625 -5.5
      vertex -38.4007 74.1529 6
      vertex -38.4007 74.1529 -5.5
    endloop
  endfacet
  facet normal 1 -0 0
    outer loop
      vertex -38.75 -71.5 6
      vertex -38.75 71.5 -5.5
      vertex -38.75 71.5 6
    endloop
  endfacet
  facet normal 1 0 0
    outer loop
      vertex -38.75 71.5 -5.5
      vertex -38.75 -71.5 6
      vertex -38.75 -71.5 -5.5
    endloop
  endfacet
  facet normal -0.991443 0.130541 1.32445e-18
    outer loop
      vertex 38.4007 -74.1529 -5.5
      vertex 38.75 -71.5 6
      vertex 38.75 -71.5 -5.5
    endloop
  endfacet
  facet normal -0.991443 0.130541 1.32445e-18
    outer loop
      vertex 38.75 -71.5 6
      vertex 38.4007 -74.1529 -5.5
      vertex 38.4007 -74.1529 6
    endloop
  endfacet
  facet normal 0.130541 -0.991443 0
    outer loop
      vertex -31.1529 81.4007 -5.5
      vertex -28.5 81.75 6
      vertex -31.1529 81.4007 6
    endloop
  endfacet
  facet normal 0.130541 -0.991443 0
    outer loop
      vertex -28.5 81.75 6
      vertex -31.1529 81.4007 -5.5
      vertex -28.5 81.75 -5.5
    endloop
  endfacet
  facet normal 0.608789 -0.793332 0
    outer loop
      vertex -35.7478 78.7478 -5.5
      vertex -33.625 80.3768 6
      vertex -35.7478 78.7478 6
    endloop
  endfacet
  facet normal 0.608789 -0.793332 0
    outer loop
      vertex -33.625 80.3768 6
      vertex -35.7478 78.7478 -5.5
      vertex -33.625 80.3768 -5.5
    endloop
  endfacet
  facet normal 0.130541 0.991443 -0
    outer loop
      vertex -28.5 -81.75 -5.5
      vertex -31.1529 -81.4007 6
      vertex -28.5 -81.75 6
    endloop
  endfacet
  facet normal 0.130541 0.991443 0
    outer loop
      vertex -31.1529 -81.4007 6
      vertex -28.5 -81.75 -5.5
      vertex -31.1529 -81.4007 -5.5
    endloop
  endfacet
  facet normal -0.382659 0.92389 0
    outer loop
      vertex 33.625 -80.3768 -5.5
      vertex 31.1529 -81.4007 6
      vertex 33.625 -80.3768 6
    endloop
  endfacet
  facet normal -0.382659 0.92389 0
    outer loop
      vertex 31.1529 -81.4007 6
      vertex 33.625 -80.3768 -5.5
      vertex 31.1529 -81.4007 -5.5
    endloop
  endfacet
  facet normal 0.991443 0.130541 -1.32445e-18
    outer loop
      vertex -38.4007 -74.1529 6
      vertex -38.75 -71.5 -5.5
      vertex -38.75 -71.5 6
    endloop
  endfacet
  facet normal 0.991443 0.130541 -1.32445e-18
    outer loop
      vertex -38.75 -71.5 -5.5
      vertex -38.4007 -74.1529 6
      vertex -38.4007 -74.1529 -5.5
    endloop
  endfacet
  facet normal -0.608789 -0.793332 0
    outer loop
      vertex 33.625 80.3768 -5.5
      vertex 35.7478 78.7478 6
      vertex 33.625 80.3768 6
    endloop
  endfacet
  facet normal -0.608789 -0.793332 -0
    outer loop
      vertex 35.7478 78.7478 6
      vertex 33.625 80.3768 -5.5
      vertex 35.7478 78.7478 -5.5
    endloop
  endfacet
  facet normal 0.793332 0.608789 6.81491e-18
    outer loop
      vertex -35.7478 -78.7478 6
      vertex -37.3768 -76.625 -5.5
      vertex -37.3768 -76.625 6
    endloop
  endfacet
  facet normal 0.793332 0.608789 6.81491e-18
    outer loop
      vertex -37.3768 -76.625 -5.5
      vertex -35.7478 -78.7478 6
      vertex -35.7478 -78.7478 -5.5
    endloop
  endfacet
  facet normal -0.793332 -0.608789 6.81491e-18
    outer loop
      vertex 37.3768 76.625 -5.5
      vertex 35.7478 78.7478 6
      vertex 35.7478 78.7478 -5.5
    endloop
  endfacet
  facet normal -0.793332 -0.608789 6.81491e-18
    outer loop
      vertex 35.7478 78.7478 6
      vertex 37.3768 76.625 -5.5
      vertex 37.3768 76.625 6
    endloop
  endfacet
  facet normal -0.608789 0.793332 0
    outer loop
      vertex 35.7478 -78.7478 -5.5
      vertex 33.625 -80.3768 6
      vertex 35.7478 -78.7478 6
    endloop
  endfacet
  facet normal -0.608789 0.793332 0
    outer loop
      vertex 33.625 -80.3768 6
      vertex 35.7478 -78.7478 -5.5
      vertex 33.625 -80.3768 -5.5
    endloop
  endfacet
  facet normal 0.793332 -0.608789 -6.81491e-18
    outer loop
      vertex -37.3768 76.625 6
      vertex -35.7478 78.7478 -5.5
      vertex -35.7478 78.7478 6
    endloop
  endfacet
  facet normal 0.793332 -0.608789 -6.81491e-18
    outer loop
      vertex -35.7478 78.7478 -5.5
      vertex -37.3768 76.625 6
      vertex -37.3768 76.625 -5.5
    endloop
  endfacet
  facet normal 0 0 -1
    outer loop
      vertex 28.5 -81.75 6
      vertex 38.75 -71.5 6
      vertex 38.4007 -74.1529 6
    endloop
  endfacet
  facet normal 0 0 -1
    outer loop
      vertex 38.75 -71.5 6
      vertex -38.75 -71.5 6
      vertex 38.75 71.5 6
    endloop
  endfacet
  facet normal 0 0 -1
    outer loop
      vertex 28.5 -81.75 6
      vertex 38.4007 -74.1529 6
      vertex 37.3768 -76.625 6
    endloop
  endfacet
  facet normal 0 0 -1
    outer loop
      vertex -38.75 71.5 6
      vertex 38.75 71.5 6
      vertex -38.75 -71.5 6
    endloop
  endfacet
  facet normal 0 0 -1
    outer loop
      vertex 28.5 -81.75 6
      vertex 37.3768 -76.625 6
      vertex 35.7478 -78.7478 6
    endloop
  endfacet
  facet normal 0 -0 -1
    outer loop
      vertex 28.5 81.75 6
      vertex 38.75 71.5 6
      vertex -38.75 71.5 6
    endloop
  endfacet
  facet normal 0 0 -1
    outer loop
      vertex 28.5 -81.75 6
      vertex 35.7478 -78.7478 6
      vertex 33.625 -80.3768 6
    endloop
  endfacet
  facet normal -0 0 -1
    outer loop
      vertex 38.75 -71.5 6
      vertex 28.5 -81.75 6
      vertex -38.75 -71.5 6
    endloop
  endfacet
  facet normal 0 0 -1
    outer loop
      vertex 28.5 -81.75 6
      vertex 33.625 -80.3768 6
      vertex 31.1529 -81.4007 6
    endloop
  endfacet
  facet normal 0 0 -1
    outer loop
      vertex 38.75 71.5 6
      vertex 28.5 81.75 6
      vertex 38.4007 74.1529 6
    endloop
  endfacet
  facet normal 0 0 -1
    outer loop
      vertex 35.7478 78.7478 6
      vertex 28.5 81.75 6
      vertex 33.625 80.3768 6
    endloop
  endfacet
  facet normal 0 0 -1
    outer loop
      vertex 33.625 80.3768 6
      vertex 28.5 81.75 6
      vertex 31.1529 81.4007 6
    endloop
  endfacet
  facet normal 0 0 -1
    outer loop
      vertex -38.75 -71.5 6
      vertex 28.5 -81.75 6
      vertex -28.5 -81.75 6
    endloop
  endfacet
  facet normal 0 0 -1
    outer loop
      vertex 38.4007 74.1529 6
      vertex 28.5 81.75 6
      vertex 37.3768 76.625 6
    endloop
  endfacet
  facet normal 0 0 -1
    outer loop
      vertex -38.75 -71.5 6
      vertex -28.5 -81.75 6
      vertex -31.1529 -81.4007 6
    endloop
  endfacet
  facet normal 0 0 -1
    outer loop
      vertex 37.3768 76.625 6
      vertex 28.5 81.75 6
      vertex 35.7478 78.7478 6
    endloop
  endfacet
  facet normal 0 0 -1
    outer loop
      vertex -38.75 -71.5 6
      vertex -31.1529 -81.4007 6
      vertex -33.625 -80.3768 6
    endloop
  endfacet
  facet normal -0 0 -1
    outer loop
      vertex 28.5 81.75 6
      vertex -38.75 71.5 6
      vertex -28.5 81.75 6
    endloop
  endfacet
  facet normal 0 0 -1
    outer loop
      vertex -38.75 -71.5 6
      vertex -33.625 -80.3768 6
      vertex -35.7478 -78.7478 6
    endloop
  endfacet
  facet normal 0 0 -1
    outer loop
      vertex -28.5 81.75 6
      vertex -38.75 71.5 6
      vertex -31.1529 81.4007 6
    endloop
  endfacet
  facet normal 0 0 -1
    outer loop
      vertex -38.75 -71.5 6
      vertex -35.7478 -78.7478 6
      vertex -37.3768 -76.625 6
    endloop
  endfacet
  facet normal 0 0 -1
    outer loop
      vertex -31.1529 81.4007 6
      vertex -38.75 71.5 6
      vertex -33.625 80.3768 6
    endloop
  endfacet
  facet normal 0 0 -1
    outer loop
      vertex -38.75 -71.5 6
      vertex -37.3768 -76.625 6
      vertex -38.4007 -74.1529 6
    endloop
  endfacet
  facet normal 0 0 -1
    outer loop
      vertex -33.625 80.3768 6
      vertex -38.75 71.5 6
      vertex -35.7478 78.7478 6
    endloop
  endfacet
  facet normal 0 0 -1
    outer loop
      vertex -35.7478 78.7478 6
      vertex -38.75 71.5 6
      vertex -37.3768 76.625 6
    endloop
  endfacet
  facet normal 0 0 -1
    outer loop
      vertex -37.3768 76.625 6
      vertex -38.75 71.5 6
      vertex -38.4007 74.1529 6
    endloop
  endfacet
  facet normal 0.382659 -0.92389 0
    outer loop
      vertex -33.625 80.3768 -5.5
      vertex -31.1529 81.4007 6
      vertex -33.625 80.3768 6
    endloop
  endfacet
  facet normal 0.382659 -0.92389 0
    outer loop
      vertex -31.1529 81.4007 6
      vertex -33.625 80.3768 -5.5
      vertex -31.1529 81.4007 -5.5
    endloop
  endfacet
  facet normal 0.382659 0.92389 -0
    outer loop
      vertex -31.1529 -81.4007 -5.5
      vertex -33.625 -80.3768 6
      vertex -31.1529 -81.4007 6
    endloop
  endfacet
  facet normal 0.382659 0.92389 0
    outer loop
      vertex -33.625 -80.3768 6
      vertex -31.1529 -81.4007 -5.5
      vertex -33.625 -80.3768 -5.5
    endloop
  endfacet
  facet normal -1 0 0
    outer loop
      vertex 33.75 54.25 -6.25
      vertex 33.75 69.25 -5.5
      vertex 33.75 69.25 -6.25
    endloop
  endfacet
  facet normal -1 -0 0
    outer loop
      vertex 33.75 69.25 -5.5
      vertex 33.75 54.25 -6.25
      vertex 33.75 54.25 -5.5
    endloop
  endfacet
  facet normal 1 -0 0
    outer loop
      vertex -33.75 54.25 -5.5
      vertex -33.75 69.25 -6.25
      vertex -33.75 69.25 -5.5
    endloop
  endfacet
  facet normal 1 0 0
    outer loop
      vertex -33.75 69.25 -6.25
      vertex -33.75 54.25 -5.5
      vertex -33.75 54.25 -6.25
    endloop
  endfacet
  facet normal 0 -1 0
    outer loop
      vertex -33.75 69.25 -6.25
      vertex 33.75 69.25 -5.5
      vertex -33.75 69.25 -5.5
    endloop
  endfacet
  facet normal 0 -1 -0
    outer loop
      vertex 33.75 69.25 -5.5
      vertex -33.75 69.25 -6.25
      vertex 33.75 69.25 -6.25
    endloop
  endfacet
  facet normal 0 1 -0
    outer loop
      vertex 33.75 54.25 -6.25
      vertex -33.75 54.25 -5.5
      vertex 33.75 54.25 -5.5
    endloop
  endfacet
  facet normal 0 1 0
    outer loop
      vertex -33.75 54.25 -5.5
      vertex 33.75 54.25 -6.25
      vertex -33.75 54.25 -6.25
    endloop
  endfacet
  facet normal -1 0 0
    outer loop
      vertex 5 -83.5 -2.25
      vertex 5 -82 2.75
      vertex 5 -82 -2.25
    endloop
  endfacet
  facet normal -1 -0 0
    outer loop
      vertex 5 -82 2.75
      vertex 5 -83.5 -2.25
      vertex 5 -83.5 2.75
    endloop
  endfacet
  facet normal 0 0 -1
    outer loop
      vertex -5 -83.5 2.75
      vertex 5 -82 2.75
      vertex 5 -83.5 2.75
    endloop
  endfacet
  facet normal -0 0 -1
    outer loop
      vertex 5 -82 2.75
      vertex -5 -83.5 2.75
      vertex -5 -82 2.75
    endloop
  endfacet
  facet normal -0 0 1
    outer loop
      vertex -5 -82 -2.25
      vertex 5 -83.5 -2.25
      vertex 5 -82 -2.25
    endloop
  endfacet
  facet normal 0 0 1
    outer loop
      vertex 5 -83.5 -2.25
      vertex -5 -82 -2.25
      vertex -5 -83.5 -2.25
    endloop
  endfacet
  facet normal 1 -0 0
    outer loop
      vertex -5 -83.5 2.75
      vertex -5 -82 -2.25
      vertex -5 -82 2.75
    endloop
  endfacet
  facet normal 1 0 0
    outer loop
      vertex -5 -82 -2.25
      vertex -5 -83.5 2.75
      vertex -5 -83.5 -2.25
    endloop
  endfacet
  facet normal 0 -1 0
    outer loop
      vertex -5 -82 -2.25
      vertex 5 -82 2.75
      vertex -5 -82 2.75
    endloop
  endfacet
  facet normal 0 -1 -0
    outer loop
      vertex 5 -82 2.75
      vertex -5 -82 -2.25
      vertex 5 -82 -2.25
    endloop
  endfacet
  facet normal 0 0 -1
    outer loop
      vertex 39 12.5 1.75
      vertex 40.5 27.5 1.75
      vertex 40.5 12.5 1.75
    endloop
  endfacet
  facet normal -0 0 -1
    outer loop
      vertex 40.5 27.5 1.75
      vertex 39 12.5 1.75
      vertex 39 27.5 1.75
    endloop
  endfacet
  facet normal -0 0 1
    outer loop
      vertex 39 27.5 -1.25
      vertex 40.5 12.5 -1.25
      vertex 40.5 27.5 -1.25
    endloop
  endfacet
  facet normal 0 0 1
    outer loop
      vertex 40.5 12.5 -1.25
      vertex 39 27.5 -1.25
      vertex 39 12.5 -1.25
    endloop
  endfacet
  facet normal 1 -0 0
    outer loop
      vertex 39 12.5 1.75
      vertex 39 27.5 -1.25
      vertex 39 27.5 1.75
    endloop
  endfacet
  facet normal 1 0 0
    outer loop
      vertex 39 27.5 -1.25
      vertex 39 12.5 1.75
      vertex 39 12.5 -1.25
    endloop
  endfacet
  facet normal 0 -1 0
    outer loop
      vertex 39 27.5 -1.25
      vertex 40.5 27.5 1.75
      vertex 39 27.5 1.75
    endloop
  endfacet
  facet normal 0 -1 -0
    outer loop
      vertex 40.5 27.5 1.75
      vertex 39 27.5 -1.25
      vertex 40.5 27.5 -1.25
    endloop
  endfacet
  facet normal 0 1 -0
    outer loop
      vertex 40.5 12.5 -1.25
      vertex 39 12.5 1.75
      vertex 40.5 12.5 1.75
    endloop
  endfacet
  facet normal 0 1 0
    outer loop
      vertex 39 12.5 1.75
      vertex 40.5 12.5 -1.25
      vertex 39 12.5 -1.25
    endloop
  endfacet
  facet normal 0 0 -1
    outer loop
      vertex 39 35 1.75
      vertex 40.5 65 1.75
      vertex 40.5 35 1.75
    endloop
  endfacet
  facet normal -0 0 -1
    outer loop
      vertex 40.5 65 1.75
      vertex 39 35 1.75
      vertex 39 65 1.75
    endloop
  endfacet
  facet normal -0 0 1
    outer loop
      vertex 39 65 -1.25
      vertex 40.5 35 -1.25
      vertex 40.5 65 -1.25
    endloop
  endfacet
  facet normal 0 0 1
    outer loop
      vertex 40.5 35 -1.25
      vertex 39 65 -1.25
      vertex 39 35 -1.25
    endloop
  endfacet
  facet normal 1 -0 0
    outer loop
      vertex 39 35 1.75
      vertex 39 65 -1.25
      vertex 39 65 1.75
    endloop
  endfacet
  facet normal 1 0 0
    outer loop
      vertex 39 65 -1.25
      vertex 39 35 1.75
      vertex 39 35 -1.25
    endloop
  endfacet
  facet normal 0 -1 0
    outer loop
      vertex 39 65 -1.25
      vertex 40.5 65 1.75
      vertex 39 65 1.75
    endloop
  endfacet
  facet normal 0 -1 -0
    outer loop
      vertex 40.5 65 1.75
      vertex 39 65 -1.25
      vertex 40.5 65 -1.25
    endloop
  endfacet
  facet normal 0 1 -0
    outer loop
      vertex 40.5 35 -1.25
      vertex 39 35 1.75
      vertex 40.5 35 1.75
    endloop
  endfacet
  facet normal 0 1 0
    outer loop
      vertex 39 35 1.75
      vertex 40.5 35 -1.25
      vertex 39 35 -1.25
    endloop
  endfacet
endsolid OpenSCAD_Model
