solid OpenSCAD_Model
  facet normal 0 0 -1
    outer loop
      vertex -40 15 -95
      vertex 40 0 -95
      vertex -40 0 -95
    endloop
  endfacet
  facet normal 0 0 -1
    outer loop
      vertex 40 0 -95
      vertex -40 15 -95
      vertex 3.60297 100 -95
    endloop
  endfacet
  facet normal 0.939693 0.34202 -1.18701e-17
    outer loop
      vertex 40 0 -5
      vertex 3.60297 100 -95
      vertex 3.60297 100 -5
    endloop
  endfacet
  facet normal 0.939693 0.34202 -1.18701e-17
    outer loop
      vertex 3.60297 100 -95
      vertex 40 0 -5
      vertex 40 0 -95
    endloop
  endfacet
  facet normal 0 -1 0
    outer loop
      vertex -40 0 -38
      vertex -38 0 -5
      vertex -40 0 -5
    endloop
  endfacet
  facet normal 0 -1 -0
    outer loop
      vertex -38 0 -5
      vertex -40 0 -38
      vertex -38 0 -38
    endloop
  endfacet
  facet normal 0 -1 0
    outer loop
      vertex -40 0 -95
      vertex -38 0 -48
      vertex -40 0 -48
    endloop
  endfacet
  facet normal 0 -1 -0
    outer loop
      vertex -38 0 -48
      vertex -40 0 -95
      vertex -27 0 -48
    endloop
  endfacet
  facet normal 0 -1 -0
    outer loop
      vertex -27 0 -48
      vertex -40 0 -95
      vertex -22.5 0 -48
    endloop
  endfacet
  facet normal 0 -1 0
    outer loop
      vertex -22.5 0 -38
      vertex -27 0 -5
      vertex -27 0 -38
    endloop
  endfacet
  facet normal 0 -1 0
    outer loop
      vertex -27 0 -5
      vertex -22.5 0 -38
      vertex 40 0 -5
    endloop
  endfacet
  facet normal 0 -1 0
    outer loop
      vertex -22.5 0 -48
      vertex 40 0 -5
      vertex -22.5 0 -38
    endloop
  endfacet
  facet normal 0 -1 0
    outer loop
      vertex 40 0 -95
      vertex -22.5 0 -48
      vertex -40 0 -95
    endloop
  endfacet
  facet normal 0 -1 0
    outer loop
      vertex -22.5 0 -48
      vertex 40 0 -95
      vertex 40 0 -5
    endloop
  endfacet
  facet normal -0 0 1
    outer loop
      vertex -40 15 -5
      vertex -38 0 -5
      vertex -38 18.8988 -5
    endloop
  endfacet
  facet normal 0 0 1
    outer loop
      vertex -38 0 -5
      vertex -40 15 -5
      vertex -40 0 -5
    endloop
  endfacet
  facet normal -0 0 1
    outer loop
      vertex -27 40.3423 -5
      vertex 40 0 -5
      vertex 3.60297 100 -5
    endloop
  endfacet
  facet normal 0 0 1
    outer loop
      vertex 40 0 -5
      vertex -27 40.3423 -5
      vertex -27 0 -5
    endloop
  endfacet
  facet normal -1 0 0
    outer loop
      vertex -40 15 -95
      vertex -40 12.5 -48
      vertex -40 15 -5
    endloop
  endfacet
  facet normal -1 0 0
    outer loop
      vertex -40 0 -95
      vertex -40 12.5 -48
      vertex -40 15 -95
    endloop
  endfacet
  facet normal -1 -0 0
    outer loop
      vertex -40 12.5 -48
      vertex -40 0 -95
      vertex -40 0 -48
    endloop
  endfacet
  facet normal -1 0 0
    outer loop
      vertex -40 12.5 -38
      vertex -40 15 -5
      vertex -40 12.5 -48
    endloop
  endfacet
  facet normal -1 0 0
    outer loop
      vertex -40 0 -5
      vertex -40 12.5 -38
      vertex -40 0 -38
    endloop
  endfacet
  facet normal -1 0 0
    outer loop
      vertex -40 12.5 -38
      vertex -40 0 -5
      vertex -40 15 -5
    endloop
  endfacet
  facet normal -0.889761 0.456426 0
    outer loop
      vertex 3.60297 100 -95
      vertex -27 40.3423 -54.1126
      vertex 3.60297 100 -5
    endloop
  endfacet
  facet normal -0.889762 0.456424 -4.11824e-06
    outer loop
      vertex 3.60297 100 -95
      vertex -28.413 37.5877 -61.6808
      vertex -27 40.3423 -54.1126
    endloop
  endfacet
  facet normal -0.889761 0.456426 1.31778e-06
    outer loop
      vertex -40 15 -95
      vertex -28.413 37.5877 -61.6808
      vertex 3.60297 100 -95
    endloop
  endfacet
  facet normal -0.88976 0.456428 5.04279e-09
    outer loop
      vertex -28.413 37.5877 -61.6808
      vertex -40 15 -95
      vertex -38 18.8988 -54.8786
    endloop
  endfacet
  facet normal -0.88976 0.456428 0
    outer loop
      vertex -40 15 -5
      vertex -38 18.8988 -54.8786
      vertex -40 15 -95
    endloop
  endfacet
  facet normal -0.88976 0.456428 0
    outer loop
      vertex -38 18.8988 -54.8786
      vertex -40 15 -5
      vertex -38 18.8988 -5
    endloop
  endfacet
  facet normal -0.889761 0.456426 9.65896e-18
    outer loop
      vertex 3.60297 100 -5
      vertex -27 40.3423 -54.1126
      vertex -27 40.3423 -5
    endloop
  endfacet
  facet normal 1.30661e-16 0.34202 0.939693
    outer loop
      vertex -38 18.8988 -54.8786
      vertex -27 37.5877 -61.6808
      vertex -28.413 37.5877 -61.6808
    endloop
  endfacet
  facet normal -1.14045e-07 0.34202 0.939693
    outer loop
      vertex -27 37.5877 -61.6808
      vertex -38 18.8988 -54.8786
      vertex -27 0 -48
    endloop
  endfacet
  facet normal 0 0.34202 0.939693
    outer loop
      vertex -27 0 -48
      vertex -38 18.8988 -54.8786
      vertex -38 0 -48
    endloop
  endfacet
  facet normal 0 -0.939693 0.34202
    outer loop
      vertex -27 37.5877 -61.6808
      vertex -27 40.3423 -54.1126
      vertex -28.413 37.5877 -61.6808
    endloop
  endfacet
  facet normal -1 0 0
    outer loop
      vertex -27 37.5877 -61.6808
      vertex -27 0 -48
      vertex -27 12.5 -48
    endloop
  endfacet
  facet normal -1 0 0
    outer loop
      vertex -27 12.5 -48
      vertex -27 40.3423 -54.1126
      vertex -27 37.5877 -61.6808
    endloop
  endfacet
  facet normal -1 0 0
    outer loop
      vertex -27 40.3423 -54.1126
      vertex -27 12.5 -48
      vertex -27 12.5 -38
    endloop
  endfacet
  facet normal -1 0 0
    outer loop
      vertex -27 40.3423 -54.1126
      vertex -27 12.5 -38
      vertex -27 40.3423 -5
    endloop
  endfacet
  facet normal -1 0 0
    outer loop
      vertex -27 0 -5
      vertex -27 12.5 -38
      vertex -27 0 -38
    endloop
  endfacet
  facet normal -1 0 0
    outer loop
      vertex -27 12.5 -38
      vertex -27 0 -5
      vertex -27 40.3423 -5
    endloop
  endfacet
  facet normal 1 0 0
    outer loop
      vertex -38 18.8988 -5
      vertex -38 12.5 -38
      vertex -38 18.8988 -54.8786
    endloop
  endfacet
  facet normal 1 -0 0
    outer loop
      vertex -38 0 -5
      vertex -38 12.5 -38
      vertex -38 18.8988 -5
    endloop
  endfacet
  facet normal 1 0 0
    outer loop
      vertex -38 12.5 -38
      vertex -38 0 -5
      vertex -38 0 -38
    endloop
  endfacet
  facet normal 1 -0 0
    outer loop
      vertex -38 12.5 -48
      vertex -38 18.8988 -54.8786
      vertex -38 12.5 -38
    endloop
  endfacet
  facet normal 1 0 0
    outer loop
      vertex -38 18.8988 -54.8786
      vertex -38 12.5 -48
      vertex -38 0 -48
    endloop
  endfacet
  facet normal -1 0 0
    outer loop
      vertex -22.5 0 -48
      vertex -22.5 12.5 -38
      vertex -22.5 12.5 -48
    endloop
  endfacet
  facet normal -1 -0 0
    outer loop
      vertex -22.5 12.5 -38
      vertex -22.5 0 -48
      vertex -22.5 0 -38
    endloop
  endfacet
  facet normal 0 0 -1
    outer loop
      vertex -27 0 -38
      vertex -22.5 12.5 -38
      vertex -22.5 0 -38
    endloop
  endfacet
  facet normal -0 0 -1
    outer loop
      vertex -22.5 12.5 -38
      vertex -27 0 -38
      vertex -27 12.5 -38
    endloop
  endfacet
  facet normal 0 0 -1
    outer loop
      vertex -40 0 -38
      vertex -38 12.5 -38
      vertex -38 0 -38
    endloop
  endfacet
  facet normal -0 0 -1
    outer loop
      vertex -38 12.5 -38
      vertex -40 0 -38
      vertex -40 12.5 -38
    endloop
  endfacet
  facet normal -0 0 1
    outer loop
      vertex -40 12.5 -48
      vertex -38 0 -48
      vertex -38 12.5 -48
    endloop
  endfacet
  facet normal 0 0 1
    outer loop
      vertex -38 0 -48
      vertex -40 12.5 -48
      vertex -40 0 -48
    endloop
  endfacet
  facet normal -0 0 1
    outer loop
      vertex -27 12.5 -48
      vertex -22.5 0 -48
      vertex -22.5 12.5 -48
    endloop
  endfacet
  facet normal 0 0 1
    outer loop
      vertex -22.5 0 -48
      vertex -27 12.5 -48
      vertex -27 0 -48
    endloop
  endfacet
  facet normal 0 -1 0
    outer loop
      vertex -27 12.5 -48
      vertex -22.5 12.5 -38
      vertex -27 12.5 -38
    endloop
  endfacet
  facet normal 0 -1 -0
    outer loop
      vertex -22.5 12.5 -38
      vertex -27 12.5 -48
      vertex -22.5 12.5 -48
    endloop
  endfacet
  facet normal 0 -1 0
    outer loop
      vertex -40 12.5 -48
      vertex -38 12.5 -38
      vertex -40 12.5 -38
    endloop
  endfacet
  facet normal 0 -1 -0
    outer loop
      vertex -38 12.5 -38
      vertex -40 12.5 -48
      vertex -38 12.5 -48
    endloop
  endfacet
endsolid OpenSCAD_Model
