solid OpenSCAD_Model
  facet normal -0.130445 0.991456 0
    outer loop
      vertex -63 50 4.28901
      vertex -63.5176 49.9319 5
      vertex -63 50 5
    endloop
  endfacet
  facet normal -0.130445 0.991456 0
    outer loop
      vertex -63.5176 49.9319 5
      vertex -63 50 4.28901
      vertex -63.5176 49.9319 4.14287
    endloop
  endfacet
  facet normal 0 1 -0
    outer loop
      vertex -33 50 4.28901
      vertex -63 50 5
      vertex -33 50 5
    endloop
  endfacet
  facet normal 0 1 0
    outer loop
      vertex -63 50 5
      vertex -33 50 4.28901
      vertex -63 50 4.28901
    endloop
  endfacet
  facet normal 0 1 0
    outer loop
      vertex 63 50 5
      vertex 9 50 4.28901
      vertex -23 50 5
    endloop
  endfacet
  facet normal 0 1 -0
    outer loop
      vertex 63 50 0
      vertex 9 50 4.28901
      vertex 63 50 5
    endloop
  endfacet
  facet normal 0 1 0
    outer loop
      vertex 9 50 4.28901
      vertex 63 50 0
      vertex 9 50 0
    endloop
  endfacet
  facet normal 0 1 0
    outer loop
      vertex -23 50 5
      vertex 9 50 4.28901
      vertex -23 50 4.28901
    endloop
  endfacet
  facet normal 0 -1 0
    outer loop
      vertex -33 50 -0.443388
      vertex -23 50 4.28901
      vertex -33 50 4.28901
    endloop
  endfacet
  facet normal 0 -1 -0
    outer loop
      vertex -23 50 4.28901
      vertex -33 50 -0.443388
      vertex -23 50 -0.443388
    endloop
  endfacet
  facet normal -0 0 1
    outer loop
      vertex -63 50 5
      vertex -33 43.0054 5
      vertex -33 50 5
    endloop
  endfacet
  facet normal 0 0 1
    outer loop
      vertex -63 50 5
      vertex -63 43.0054 5
      vertex -33 43.0054 5
    endloop
  endfacet
  facet normal -0 0 1
    outer loop
      vertex -65 48 5
      vertex -63 43.0054 5
      vertex -63 50 5
    endloop
  endfacet
  facet normal 0 0 1
    outer loop
      vertex -63 43.0054 5
      vertex -65 48 5
      vertex -63 39.0054 5
    endloop
  endfacet
  facet normal 0 0 1
    outer loop
      vertex -65 48 5
      vertex -63 50 5
      vertex -63.5176 49.9319 5
    endloop
  endfacet
  facet normal 0 0 1
    outer loop
      vertex -65 -48 5
      vertex -63 39.0054 5
      vertex -65 48 5
    endloop
  endfacet
  facet normal 0 0 1
    outer loop
      vertex -65 48 5
      vertex -63.5176 49.9319 5
      vertex -64 49.732 5
    endloop
  endfacet
  facet normal 0 0 1
    outer loop
      vertex -63 39.0054 5
      vertex -65 -48 5
      vertex -63 -50 5
    endloop
  endfacet
  facet normal 0 0 1
    outer loop
      vertex -65 48 5
      vertex -64 49.732 5
      vertex -64.4142 49.4142 5
    endloop
  endfacet
  facet normal 0 0 1
    outer loop
      vertex -63 -50 5
      vertex -65 -48 5
      vertex -63.5176 -49.9319 5
    endloop
  endfacet
  facet normal 0 0 1
    outer loop
      vertex -65 48 5
      vertex -64.4142 49.4142 5
      vertex -64.732 49 5
    endloop
  endfacet
  facet normal 0 0 1
    outer loop
      vertex -63.5176 -49.9319 5
      vertex -65 -48 5
      vertex -64 -49.7321 5
    endloop
  endfacet
  facet normal 0 0 1
    outer loop
      vertex -65 48 5
      vertex -64.732 49 5
      vertex -64.9319 48.5176 5
    endloop
  endfacet
  facet normal 0 0 1
    outer loop
      vertex -64 -49.7321 5
      vertex -65 -48 5
      vertex -64.4142 -49.4142 5
    endloop
  endfacet
  facet normal 0 0 1
    outer loop
      vertex -64.4142 -49.4142 5
      vertex -65 -48 5
      vertex -64.732 -49 5
    endloop
  endfacet
  facet normal 0 0 1
    outer loop
      vertex -64.732 -49 5
      vertex -65 -48 5
      vertex -64.9319 -48.5176 5
    endloop
  endfacet
  facet normal -0 0 1
    outer loop
      vertex -63 39.0054 5
      vertex -33 -50 5
      vertex -33 39.0054 5
    endloop
  endfacet
  facet normal 0 0 1
    outer loop
      vertex -33 -50 5
      vertex -63 39.0054 5
      vertex -63 -50 5
    endloop
  endfacet
  facet normal 0 0 1
    outer loop
      vertex 65 -10 5
      vertex 62.1481 0.470475 5
      vertex 63 -6 5
    endloop
  endfacet
  facet normal 0 0 1
    outer loop
      vertex 65 48 5
      vertex 59.6506 6.5 5
      vertex 62.1481 0.470475 5
    endloop
  endfacet
  facet normal 0 0 1
    outer loop
      vertex 65 48 5
      vertex 55.6777 11.6777 5
      vertex 59.6506 6.5 5
    endloop
  endfacet
  facet normal 0 0 1
    outer loop
      vertex 65 48 5
      vertex 50.5 15.6506 5
      vertex 55.6777 11.6777 5
    endloop
  endfacet
  facet normal 0 0 1
    outer loop
      vertex 65 48 5
      vertex 44.4705 18.1481 5
      vertex 50.5 15.6506 5
    endloop
  endfacet
  facet normal 0 0 1
    outer loop
      vertex 63 50 5
      vertex 38 19 5
      vertex 44.4705 18.1481 5
    endloop
  endfacet
  facet normal -0 0 1
    outer loop
      vertex 7 43.0054 5
      vertex 38 19 5
      vertex 63 50 5
    endloop
  endfacet
  facet normal 0 0 1
    outer loop
      vertex 38 19 5
      vertex 7 43.0054 5
      vertex 31.5295 18.1481 5
    endloop
  endfacet
  facet normal -0 0 1
    outer loop
      vertex 7 39.0054 5
      vertex 31.5295 18.1481 5
      vertex 7 43.0054 5
    endloop
  endfacet
  facet normal 0 0 1
    outer loop
      vertex 13 -6 5
      vertex 11 -10 5
      vertex 13 -10 5
    endloop
  endfacet
  facet normal 0 0 1
    outer loop
      vertex 13.8519 0.470475 5
      vertex 11 -10 5
      vertex 13 -6 5
    endloop
  endfacet
  facet normal 0 0 1
    outer loop
      vertex 16.3494 6.5 5
      vertex -23 39.0054 5
      vertex 13.8519 0.470475 5
    endloop
  endfacet
  facet normal -0 0 1
    outer loop
      vertex -23 39.0054 5
      vertex 16.3494 6.5 5
      vertex 7 39.0054 5
    endloop
  endfacet
  facet normal 0 0 1
    outer loop
      vertex 20.3223 11.6777 5
      vertex 7 39.0054 5
      vertex 16.3494 6.5 5
    endloop
  endfacet
  facet normal 0 0 1
    outer loop
      vertex 25.5 15.6506 5
      vertex 7 39.0054 5
      vertex 20.3223 11.6777 5
    endloop
  endfacet
  facet normal 0 0 1
    outer loop
      vertex 31.5295 18.1481 5
      vertex 7 39.0054 5
      vertex 25.5 15.6506 5
    endloop
  endfacet
  facet normal -0 0 1
    outer loop
      vertex -23 50 5
      vertex 7 43.0054 5
      vertex 63 50 5
    endloop
  endfacet
  facet normal 0 0 1
    outer loop
      vertex 7 43.0054 5
      vertex -23 50 5
      vertex -23 43.0054 5
    endloop
  endfacet
  facet normal 0 0 1
    outer loop
      vertex 63 50 5
      vertex 65 48 5
      vertex 64.9319 48.5176 5
    endloop
  endfacet
  facet normal 0 0 1
    outer loop
      vertex 63 50 5
      vertex 64.9319 48.5176 5
      vertex 64.732 49 5
    endloop
  endfacet
  facet normal 0 0 1
    outer loop
      vertex 63 50 5
      vertex 64.732 49 5
      vertex 64.4142 49.4142 5
    endloop
  endfacet
  facet normal 0 0 1
    outer loop
      vertex 63 50 5
      vertex 64.4142 49.4142 5
      vertex 64 49.732 5
    endloop
  endfacet
  facet normal 0 0 1
    outer loop
      vertex 63 50 5
      vertex 64 49.732 5
      vertex 63.5176 49.9319 5
    endloop
  endfacet
  facet normal 0 0 1
    outer loop
      vertex 44.4705 18.1481 5
      vertex 65 48 5
      vertex 63 50 5
    endloop
  endfacet
  facet normal -0 0 1
    outer loop
      vertex 62.1481 0.470475 5
      vertex 65 -10 5
      vertex 65 48 5
    endloop
  endfacet
  facet normal 0 0 1
    outer loop
      vertex 65 -10 5
      vertex 63 -6 5
      vertex 63 -10 5
    endloop
  endfacet
  facet normal 0 0 1
    outer loop
      vertex 13.8519 0.470475 5
      vertex -23 39.0054 5
      vertex 11 -10 5
    endloop
  endfacet
  facet normal 0 0 1
    outer loop
      vertex 11 -10 5
      vertex -23 39.0054 5
      vertex -23 -50 5
    endloop
  endfacet
  facet normal 0 0 1
    outer loop
      vertex 11 -10 5
      vertex -23 -50 5
      vertex 11 -50 5
    endloop
  endfacet
  facet normal -0.38282 0.923823 0
    outer loop
      vertex -63.5176 49.9319 4.14287
      vertex -64 49.732 5
      vertex -63.5176 49.9319 5
    endloop
  endfacet
  facet normal -0.38282 0.923823 0
    outer loop
      vertex -64 49.732 5
      vertex -63.5176 49.9319 4.14287
      vertex -64 49.732 3.71439
    endloop
  endfacet
  facet normal 0 -1 0
    outer loop
      vertex -23 -50 0
      vertex 11 -50 5
      vertex -23 -50 5
    endloop
  endfacet
  facet normal 0 -1 0
    outer loop
      vertex 65 -50 0
      vertex 13.1317 -50 2
      vertex -23 -50 0
    endloop
  endfacet
  facet normal 0 -1 -0
    outer loop
      vertex 11 -50 5
      vertex -23 -50 0
      vertex 13.1317 -50 2
    endloop
  endfacet
  facet normal 0 -1 0
    outer loop
      vertex 11 -50 80
      vertex 13.1317 -50 42
      vertex 65 -50 80
    endloop
  endfacet
  facet normal 0 -1 0
    outer loop
      vertex 11 -50 5
      vertex 13.1317 -50 42
      vertex 11 -50 80
    endloop
  endfacet
  facet normal 0 -1 -0
    outer loop
      vertex 13.1317 -50 42
      vertex 11 -50 5
      vertex 13.1317 -50 2
    endloop
  endfacet
  facet normal 0 -1 0
    outer loop
      vertex 62.8683 -50 42
      vertex 65 -50 80
      vertex 13.1317 -50 42
    endloop
  endfacet
  facet normal 0 -1 0
    outer loop
      vertex 65 -50 0
      vertex 62.8683 -50 42
      vertex 62.8683 -50 2
    endloop
  endfacet
  facet normal 0 -1 0
    outer loop
      vertex 62.8683 -50 42
      vertex 65 -50 0
      vertex 65 -50 80
    endloop
  endfacet
  facet normal 0 -1 0
    outer loop
      vertex 13.1317 -50 2
      vertex 65 -50 0
      vertex 62.8683 -50 2
    endloop
  endfacet
  facet normal 0 -1 0
    outer loop
      vertex -63 -50 0
      vertex -33 -50 5
      vertex -63 -50 5
    endloop
  endfacet
  facet normal 0 -1 -0
    outer loop
      vertex -33 -50 5
      vertex -63 -50 0
      vertex -33 -50 0
    endloop
  endfacet
  facet normal 0.991456 0.130445 1.06635e-18
    outer loop
      vertex 65 48 5
      vertex 64.9319 48.5176 0
      vertex 64.9319 48.5176 5
    endloop
  endfacet
  facet normal 0.991456 0.130445 1.06635e-18
    outer loop
      vertex 64.9319 48.5176 0
      vertex 65 48 5
      vertex 65 48 0
    endloop
  endfacet
  facet normal -0.923823 0.38282 0
    outer loop
      vertex -64.9319 48.5176 5
      vertex -64.732 49 2.14451
      vertex -64.9319 48.5176 1.11008
    endloop
  endfacet
  facet normal -0.923823 0.38282 0
    outer loop
      vertex -64.732 49 2.14451
      vertex -64.9319 48.5176 5
      vertex -64.732 49 5
    endloop
  endfacet
  facet normal 0.608729 0.793378 -0
    outer loop
      vertex 64.4142 49.4142 0
      vertex 64 49.732 5
      vertex 64.4142 49.4142 5
    endloop
  endfacet
  facet normal 0.608729 0.793378 0
    outer loop
      vertex 64 49.732 5
      vertex 64.4142 49.4142 0
      vertex 64 49.732 0
    endloop
  endfacet
  facet normal -0.991456 0.130445 0
    outer loop
      vertex -65 48 5
      vertex -64.9319 48.5176 1.11008
      vertex -65 48 0
    endloop
  endfacet
  facet normal -0.991456 0.130445 0
    outer loop
      vertex -64.9319 48.5176 1.11008
      vertex -65 48 5
      vertex -64.9319 48.5176 5
    endloop
  endfacet
  facet normal -0.923823 -0.38282 1.22066e-18
    outer loop
      vertex -64.732 -49 0
      vertex -64.9319 -48.5176 5
      vertex -64.9319 -48.5176 0
    endloop
  endfacet
  facet normal -0.923823 -0.38282 1.22066e-18
    outer loop
      vertex -64.9319 -48.5176 5
      vertex -64.732 -49 0
      vertex -64.732 -49 5
    endloop
  endfacet
  facet normal 1 0 0
    outer loop
      vertex 65 -10 80
      vertex 65 -50 80
      vertex 65 -10 5
    endloop
  endfacet
  facet normal 1 -0 0
    outer loop
      vertex 65 -10 5
      vertex 65 48 0
      vertex 65 48 5
    endloop
  endfacet
  facet normal 1 0 0
    outer loop
      vertex 65 -10 5
      vertex 65 -50 0
      vertex 65 48 0
    endloop
  endfacet
  facet normal 1 0 0
    outer loop
      vertex 65 -50 0
      vertex 65 -10 5
      vertex 65 -50 80
    endloop
  endfacet
  facet normal -0.130445 -0.991456 0
    outer loop
      vertex -63.5176 -49.9319 0
      vertex -63 -50 5
      vertex -63.5176 -49.9319 5
    endloop
  endfacet
  facet normal -0.130445 -0.991456 -0
    outer loop
      vertex -63 -50 5
      vertex -63.5176 -49.9319 0
      vertex -63 -50 0
    endloop
  endfacet
  facet normal 0.923823 0.38282 1.22066e-18
    outer loop
      vertex 64.9319 48.5176 5
      vertex 64.732 49 0
      vertex 64.732 49 5
    endloop
  endfacet
  facet normal 0.923823 0.38282 1.22066e-18
    outer loop
      vertex 64.732 49 0
      vertex 64.9319 48.5176 5
      vertex 64.9319 48.5176 0
    endloop
  endfacet
  facet normal 0.38282 0.923823 -0
    outer loop
      vertex 64 49.732 0
      vertex 63.5176 49.9319 5
      vertex 64 49.732 5
    endloop
  endfacet
  facet normal 0.38282 0.923823 0
    outer loop
      vertex 63.5176 49.9319 5
      vertex 64 49.732 0
      vertex 63.5176 49.9319 0
    endloop
  endfacet
  facet normal -0.793378 0.608729 0
    outer loop
      vertex -64.732 49 5
      vertex -64.4142 49.4142 3.03279
      vertex -64.732 49 2.14451
    endloop
  endfacet
  facet normal -0.793378 0.608729 0
    outer loop
      vertex -64.4142 49.4142 3.03279
      vertex -64.732 49 5
      vertex -64.4142 49.4142 5
    endloop
  endfacet
  facet normal -0.793378 -0.608729 2.23281e-18
    outer loop
      vertex -64.4142 -49.4142 0
      vertex -64.732 -49 5
      vertex -64.732 -49 0
    endloop
  endfacet
  facet normal -0.793378 -0.608729 2.23281e-18
    outer loop
      vertex -64.732 -49 5
      vertex -64.4142 -49.4142 0
      vertex -64.4142 -49.4142 5
    endloop
  endfacet
  facet normal 0.793378 0.608729 2.23281e-18
    outer loop
      vertex 64.732 49 5
      vertex 64.4142 49.4142 0
      vertex 64.4142 49.4142 5
    endloop
  endfacet
  facet normal 0.793378 0.608729 2.23281e-18
    outer loop
      vertex 64.4142 49.4142 0
      vertex 64.732 49 5
      vertex 64.732 49 0
    endloop
  endfacet
  facet normal 0.130445 0.991456 -0
    outer loop
      vertex 63.5176 49.9319 0
      vertex 63 50 5
      vertex 63.5176 49.9319 5
    endloop
  endfacet
  facet normal 0.130445 0.991456 0
    outer loop
      vertex 63 50 5
      vertex 63.5176 49.9319 0
      vertex 63 50 0
    endloop
  endfacet
  facet normal -0.60885 -0.793286 0
    outer loop
      vertex -64.4142 -49.4142 0
      vertex -64 -49.7321 5
      vertex -64.4142 -49.4142 5
    endloop
  endfacet
  facet normal -0.60885 -0.793286 -0
    outer loop
      vertex -64 -49.7321 5
      vertex -64.4142 -49.4142 0
      vertex -64 -49.7321 0
    endloop
  endfacet
  facet normal -0.382656 -0.923891 0
    outer loop
      vertex -64 -49.7321 0
      vertex -63.5176 -49.9319 5
      vertex -64 -49.7321 5
    endloop
  endfacet
  facet normal -0.382656 -0.923891 -0
    outer loop
      vertex -63.5176 -49.9319 5
      vertex -64 -49.7321 0
      vertex -63.5176 -49.9319 0
    endloop
  endfacet
  facet normal -0.608729 0.793378 0
    outer loop
      vertex -64 49.732 3.71439
      vertex -64.4142 49.4142 5
      vertex -64 49.732 5
    endloop
  endfacet
  facet normal -0.608729 0.793378 0
    outer loop
      vertex -64.4142 49.4142 5
      vertex -64 49.732 3.71439
      vertex -64.4142 49.4142 3.03279
    endloop
  endfacet
  facet normal -1 0 0
    outer loop
      vertex -65 -48 0
      vertex -65 48 5
      vertex -65 48 0
    endloop
  endfacet
  facet normal -1 -0 0
    outer loop
      vertex -65 48 5
      vertex -65 -48 0
      vertex -65 -48 5
    endloop
  endfacet
  facet normal 0 0 -1
    outer loop
      vertex 9 48 0
      vertex 65 48 0
      vertex 65 -50 0
    endloop
  endfacet
  facet normal 0 -0 -1
    outer loop
      vertex 63 50 0
      vertex 65 48 0
      vertex 9 48 0
    endloop
  endfacet
  facet normal 0 0 -1
    outer loop
      vertex 65 48 0
      vertex 63 50 0
      vertex 64.9319 48.5176 0
    endloop
  endfacet
  facet normal 0 0 -1
    outer loop
      vertex 64.732 49 0
      vertex 63 50 0
      vertex 64.4142 49.4142 0
    endloop
  endfacet
  facet normal 0 0 -1
    outer loop
      vertex 64.4142 49.4142 0
      vertex 63 50 0
      vertex 64 49.732 0
    endloop
  endfacet
  facet normal 0 0 -1
    outer loop
      vertex 64 49.732 0
      vertex 63 50 0
      vertex 63.5176 49.9319 0
    endloop
  endfacet
  facet normal 0 0 -1
    outer loop
      vertex 64.9319 48.5176 0
      vertex 63 50 0
      vertex 64.732 49 0
    endloop
  endfacet
  facet normal 0 0 -1
    outer loop
      vertex -23 -50 0
      vertex 9 48 0
      vertex 65 -50 0
    endloop
  endfacet
  facet normal -0 0 -1
    outer loop
      vertex 9 48 0
      vertex -23 -50 0
      vertex -23 48 0
    endloop
  endfacet
  facet normal -0 0 -1
    outer loop
      vertex 63 50 0
      vertex 9 48 0
      vertex 9 50 0
    endloop
  endfacet
  facet normal 0 0 -1
    outer loop
      vertex -65 -48 0
      vertex -33 -50 0
      vertex -63 -50 0
    endloop
  endfacet
  facet normal 0 0 -1
    outer loop
      vertex -65 -48 0
      vertex -63 -50 0
      vertex -63.5176 -49.9319 0
    endloop
  endfacet
  facet normal 0 0 -1
    outer loop
      vertex -65 -48 0
      vertex -63.5176 -49.9319 0
      vertex -64 -49.7321 0
    endloop
  endfacet
  facet normal 0 0 -1
    outer loop
      vertex -65 -48 0
      vertex -64 -49.7321 0
      vertex -64.4142 -49.4142 0
    endloop
  endfacet
  facet normal 0 0 -1
    outer loop
      vertex -65 -48 0
      vertex -64.4142 -49.4142 0
      vertex -64.732 -49 0
    endloop
  endfacet
  facet normal 0 0 -1
    outer loop
      vertex -65 -48 0
      vertex -64.732 -49 0
      vertex -64.9319 -48.5176 0
    endloop
  endfacet
  facet normal 0 0 -1
    outer loop
      vertex -33 -50 0
      vertex -65 -48 0
      vertex -33 48 0
    endloop
  endfacet
  facet normal -0 0 -1
    outer loop
      vertex -33 48 0
      vertex -65 -48 0
      vertex -65 48 0
    endloop
  endfacet
  facet normal -0.991456 -0.130445 1.06635e-18
    outer loop
      vertex -64.9319 -48.5176 0
      vertex -65 -48 5
      vertex -65 -48 0
    endloop
  endfacet
  facet normal -0.991456 -0.130445 1.06635e-18
    outer loop
      vertex -65 -48 5
      vertex -64.9319 -48.5176 0
      vertex -64.9319 -48.5176 5
    endloop
  endfacet
  facet normal 0 -0.422621 -0.906306
    outer loop
      vertex -23 48 0
      vertex 9 49.8126 -0.845236
      vertex 9 48 0
    endloop
  endfacet
  facet normal -0 -0.422621 -0.906306
    outer loop
      vertex 9 49.8126 -0.845236
      vertex -23 48 0
      vertex -23 49.8126 -0.845236
    endloop
  endfacet
  facet normal 0 -0.422621 -0.906306
    outer loop
      vertex -65 48 0
      vertex -33 49.8126 -0.845236
      vertex -33 48 0
    endloop
  endfacet
  facet normal -0 -0.422621 -0.906306
    outer loop
      vertex -33 49.8126 -0.845236
      vertex -65 48 0
      vertex -65 49.8126 -0.845236
    endloop
  endfacet
  facet normal 0 0.906305 -0.422624
    outer loop
      vertex 9 107.464 122.788
      vertex 8 95.9231 98.0389
      vertex 8 107.464 122.788
    endloop
  endfacet
  facet normal 0 0.906308 -0.422619
    outer loop
      vertex 8 95.9231 98.0389
      vertex -23 50 -0.443388
      vertex -64 95.9231 98.0389
    endloop
  endfacet
  facet normal -0.00013598 0.906307 -0.42262
    outer loop
      vertex 9 49.8126 -0.845236
      vertex 8 95.9231 98.0389
      vertex 9 107.464 122.788
    endloop
  endfacet
  facet normal 4.22485e-07 0.906308 -0.422619
    outer loop
      vertex 9 49.8126 -0.845236
      vertex -23 50 -0.443388
      vertex 8 95.9231 98.0389
    endloop
  endfacet
  facet normal -4.41131e-19 0.906295 -0.422646
    outer loop
      vertex -23 50 -0.443388
      vertex 9 49.8126 -0.845236
      vertex -23 49.8126 -0.845236
    endloop
  endfacet
  facet normal 1.6466e-16 0.906305 -0.422624
    outer loop
      vertex -64 95.9231 98.0389
      vertex -65 107.464 122.788
      vertex -64 107.464 122.788
    endloop
  endfacet
  facet normal 0 0.906308 -0.422619
    outer loop
      vertex -33 50 -0.443388
      vertex -64 95.9231 98.0389
      vertex -23 50 -0.443388
    endloop
  endfacet
  facet normal 0 0.906295 -0.422646
    outer loop
      vertex -65 49.8126 -0.845236
      vertex -33 50 -0.443388
      vertex -33 49.8126 -0.845236
    endloop
  endfacet
  facet normal 0.00013598 0.906307 -0.42262
    outer loop
      vertex -64 95.9231 98.0389
      vertex -65 49.8126 -0.845236
      vertex -65 107.464 122.788
    endloop
  endfacet
  facet normal -4.22485e-07 0.906308 -0.422619
    outer loop
      vertex -33 50 -0.443388
      vertex -65 49.8126 -0.845236
      vertex -64 95.9231 98.0389
    endloop
  endfacet
  facet normal -0 0.422858 0.906196
    outer loop
      vertex 8 107.464 122.788
      vertex 9 105.651 123.634
      vertex 9 107.464 122.788
    endloop
  endfacet
  facet normal 0 0.422858 0.906196
    outer loop
      vertex 9 105.651 123.634
      vertex 8 107.464 122.788
      vertex 8 105.651 123.634
    endloop
  endfacet
  facet normal -0 0.422858 0.906196
    outer loop
      vertex -65 107.464 122.788
      vertex -64 105.651 123.634
      vertex -64 107.464 122.788
    endloop
  endfacet
  facet normal 0 0.422858 0.906196
    outer loop
      vertex -64 105.651 123.634
      vertex -65 107.464 122.788
      vertex -65 105.651 123.634
    endloop
  endfacet
  facet normal 1 0 0
    outer loop
      vertex 9 50 4.28901
      vertex 9 107.464 122.788
      vertex 9 105.651 123.634
    endloop
  endfacet
  facet normal 1 0 0
    outer loop
      vertex 9 50 0
      vertex 9 107.464 122.788
      vertex 9 50 4.28901
    endloop
  endfacet
  facet normal 1 -0 0
    outer loop
      vertex 9 50 0
      vertex 9 49.8126 -0.845236
      vertex 9 107.464 122.788
    endloop
  endfacet
  facet normal 1 0 -0
    outer loop
      vertex 9 49.8126 -0.845236
      vertex 9 50 0
      vertex 9 48 0
    endloop
  endfacet
  facet normal -1 0 0
    outer loop
      vertex -65 49.8126 -0.845236
      vertex -65 105.651 123.634
      vertex -65 107.464 122.788
    endloop
  endfacet
  facet normal -1 0 0
    outer loop
      vertex -65 105.651 123.634
      vertex -65 49.8126 -0.845236
      vertex -65 48 0
    endloop
  endfacet
  facet normal 0 -0.906315 0.422604
    outer loop
      vertex -65 105.651 123.634
      vertex -64 93.4619 97.4933
      vertex -64 105.651 123.634
    endloop
  endfacet
  facet normal 0 -0.906308 0.422618
    outer loop
      vertex -33 50 4.28901
      vertex -64 93.4619 97.4933
      vertex -63 50 4.28901
    endloop
  endfacet
  facet normal 0.000368774 -0.906309 0.422615
    outer loop
      vertex -65 48 0
      vertex -64 93.4619 97.4933
      vertex -65 105.651 123.634
    endloop
  endfacet
  facet normal -8.07237e-05 -0.906308 0.422618
    outer loop
      vertex -64 93.4619 97.4933
      vertex -63.5176 49.9319 4.14287
      vertex -63 50 4.28901
    endloop
  endfacet
  facet normal 0.000180636 -0.906307 0.422619
    outer loop
      vertex -64 93.4619 97.4933
      vertex -64 49.732 3.71439
      vertex -63.5176 49.9319 4.14287
    endloop
  endfacet
  facet normal -7.84493e-05 -0.906308 0.422619
    outer loop
      vertex -64 93.4619 97.4933
      vertex -64.4142 49.4142 3.03279
      vertex -64 49.732 3.71439
    endloop
  endfacet
  facet normal -3.50801e-05 -0.906308 0.422619
    outer loop
      vertex -64 93.4619 97.4933
      vertex -64.732 49 2.14451
      vertex -64.4142 49.4142 3.03279
    endloop
  endfacet
  facet normal 0.000174947 -0.906308 0.422617
    outer loop
      vertex -64 93.4619 97.4933
      vertex -64.9319 48.5176 1.11008
      vertex -64.732 49 2.14451
    endloop
  endfacet
  facet normal -0.00062514 -0.906305 0.422624
    outer loop
      vertex -64 93.4619 97.4933
      vertex -65 48 0
      vertex -64.9319 48.5176 1.11008
    endloop
  endfacet
  facet normal -8.98792e-16 -0.906315 0.422604
    outer loop
      vertex 8 93.4619 97.4933
      vertex 9 105.651 123.634
      vertex 8 105.651 123.634
    endloop
  endfacet
  facet normal 0 -0.906308 0.422618
    outer loop
      vertex -64 93.4619 97.4933
      vertex -33 50 4.28901
      vertex 8 93.4619 97.4933
    endloop
  endfacet
  facet normal 0 -0.906308 0.422618
    outer loop
      vertex -23 50 4.28901
      vertex 8 93.4619 97.4933
      vertex -33 50 4.28901
    endloop
  endfacet
  facet normal -0.000365106 -0.906309 0.422615
    outer loop
      vertex 8 93.4619 97.4933
      vertex 9 50 4.28901
      vertex 9 105.651 123.634
    endloop
  endfacet
  facet normal 0 -0.906308 0.422618
    outer loop
      vertex 9 50 4.28901
      vertex 8 93.4619 97.4933
      vertex -23 50 4.28901
    endloop
  endfacet
  facet normal 1 -0 0
    outer loop
      vertex 7 39.0054 15
      vertex 7 43.0054 5
      vertex 7 43.0054 15
    endloop
  endfacet
  facet normal 1 0 0
    outer loop
      vertex 7 43.0054 5
      vertex 7 39.0054 15
      vertex 7 39.0054 5
    endloop
  endfacet
  facet normal -0 0 1
    outer loop
      vertex -63 43.0054 15
      vertex 7 39.0054 15
      vertex 7 43.0054 15
    endloop
  endfacet
  facet normal 0 0 1
    outer loop
      vertex 7 39.0054 15
      vertex -63 43.0054 15
      vertex -63 39.0054 15
    endloop
  endfacet
  facet normal -1 0 0
    outer loop
      vertex -63 39.0054 5
      vertex -63 43.0054 15
      vertex -63 43.0054 5
    endloop
  endfacet
  facet normal -1 -0 0
    outer loop
      vertex -63 43.0054 15
      vertex -63 39.0054 5
      vertex -63 39.0054 15
    endloop
  endfacet
  facet normal 0 1 0
    outer loop
      vertex 7 43.0054 15
      vertex -23 43.0054 6
      vertex -63 43.0054 15
    endloop
  endfacet
  facet normal 0 1 -0
    outer loop
      vertex 7 43.0054 5
      vertex -23 43.0054 6
      vertex 7 43.0054 15
    endloop
  endfacet
  facet normal 0 1 0
    outer loop
      vertex -23 43.0054 6
      vertex 7 43.0054 5
      vertex -23 43.0054 5
    endloop
  endfacet
  facet normal 0 1 -0
    outer loop
      vertex -33 43.0054 6
      vertex -63 43.0054 15
      vertex -23 43.0054 6
    endloop
  endfacet
  facet normal 0 1 0
    outer loop
      vertex -63 43.0054 5
      vertex -33 43.0054 6
      vertex -33 43.0054 5
    endloop
  endfacet
  facet normal 0 1 0
    outer loop
      vertex -33 43.0054 6
      vertex -63 43.0054 5
      vertex -63 43.0054 15
    endloop
  endfacet
  facet normal 0 -1 0
    outer loop
      vertex -63 39.0054 15
      vertex -33 39.0054 6
      vertex 7 39.0054 15
    endloop
  endfacet
  facet normal 0 -1 0
    outer loop
      vertex -63 39.0054 5
      vertex -33 39.0054 6
      vertex -63 39.0054 15
    endloop
  endfacet
  facet normal 0 -1 -0
    outer loop
      vertex -33 39.0054 6
      vertex -63 39.0054 5
      vertex -33 39.0054 5
    endloop
  endfacet
  facet normal 0 -1 0
    outer loop
      vertex -23 39.0054 6
      vertex 7 39.0054 15
      vertex -33 39.0054 6
    endloop
  endfacet
  facet normal 0 -1 0
    outer loop
      vertex 7 39.0054 5
      vertex -23 39.0054 6
      vertex -23 39.0054 5
    endloop
  endfacet
  facet normal 0 -1 0
    outer loop
      vertex -23 39.0054 6
      vertex 7 39.0054 5
      vertex 7 39.0054 15
    endloop
  endfacet
  facet normal 0 0 1
    outer loop
      vertex 65 -10 80
      vertex 61 -12 80
      vertex 65 -50 80
    endloop
  endfacet
  facet normal 0 0 1
    outer loop
      vertex 65 -10 80
      vertex 51 -12 80
      vertex 61 -12 80
    endloop
  endfacet
  facet normal 0 0 1
    outer loop
      vertex 51 -12 80
      vertex 49 -12 80
      vertex 51 -48 80
    endloop
  endfacet
  facet normal 0 0 1
    outer loop
      vertex 65 -10 80
      vertex 49 -12 80
      vertex 51 -12 80
    endloop
  endfacet
  facet normal 0 0 1
    outer loop
      vertex 65 -10 80
      vertex 39 -12 80
      vertex 49 -12 80
    endloop
  endfacet
  facet normal 0 0 1
    outer loop
      vertex 39 -12 80
      vertex 37 -12 80
      vertex 39 -48 80
    endloop
  endfacet
  facet normal 0 0 1
    outer loop
      vertex 65 -10 80
      vertex 37 -12 80
      vertex 39 -12 80
    endloop
  endfacet
  facet normal -0 0 1
    outer loop
      vertex 11 -10 80
      vertex 37 -12 80
      vertex 65 -10 80
    endloop
  endfacet
  facet normal 0 0 1
    outer loop
      vertex 27 -12 80
      vertex 25 -12 80
      vertex 27 -48 80
    endloop
  endfacet
  facet normal 0 0 1
    outer loop
      vertex 37 -12 80
      vertex 11 -10 80
      vertex 27 -12 80
    endloop
  endfacet
  facet normal 0 0 1
    outer loop
      vertex 27 -12 80
      vertex 11 -10 80
      vertex 25 -12 80
    endloop
  endfacet
  facet normal 0 0 1
    outer loop
      vertex 15 -12 80
      vertex 11 -10 80
      vertex 15 -48 80
    endloop
  endfacet
  facet normal 0 0 1
    outer loop
      vertex 25 -12 80
      vertex 11 -10 80
      vertex 15 -12 80
    endloop
  endfacet
  facet normal -0 0 1
    outer loop
      vertex 61 -48 80
      vertex 65 -50 80
      vertex 61 -12 80
    endloop
  endfacet
  facet normal -0 0 1
    outer loop
      vertex 51 -48 80
      vertex 65 -50 80
      vertex 61 -48 80
    endloop
  endfacet
  facet normal 0 0 1
    outer loop
      vertex 49 -48 80
      vertex 51 -48 80
      vertex 49 -12 80
    endloop
  endfacet
  facet normal -0 0 1
    outer loop
      vertex 49 -48 80
      vertex 65 -50 80
      vertex 51 -48 80
    endloop
  endfacet
  facet normal -0 0 1
    outer loop
      vertex 39 -48 80
      vertex 65 -50 80
      vertex 49 -48 80
    endloop
  endfacet
  facet normal 0 0 1
    outer loop
      vertex 37 -48 80
      vertex 39 -48 80
      vertex 37 -12 80
    endloop
  endfacet
  facet normal -0 0 1
    outer loop
      vertex 37 -48 80
      vertex 65 -50 80
      vertex 39 -48 80
    endloop
  endfacet
  facet normal 0 0 1
    outer loop
      vertex 11 -50 80
      vertex 37 -48 80
      vertex 27 -48 80
    endloop
  endfacet
  facet normal 0 0 1
    outer loop
      vertex 25 -48 80
      vertex 27 -48 80
      vertex 25 -12 80
    endloop
  endfacet
  facet normal 0 0 1
    outer loop
      vertex 11 -50 80
      vertex 27 -48 80
      vertex 25 -48 80
    endloop
  endfacet
  facet normal 0 0 1
    outer loop
      vertex 11 -50 80
      vertex 25 -48 80
      vertex 15 -48 80
    endloop
  endfacet
  facet normal 0 0 1
    outer loop
      vertex 37 -48 80
      vertex 11 -50 80
      vertex 65 -50 80
    endloop
  endfacet
  facet normal 0 0 1
    outer loop
      vertex 11 -50 80
      vertex 15 -48 80
      vertex 11 -10 80
    endloop
  endfacet
  facet normal -1 0 0
    outer loop
      vertex 11 -50 5
      vertex 11 -10 80
      vertex 11 -10 5
    endloop
  endfacet
  facet normal -1 -0 0
    outer loop
      vertex 11 -10 80
      vertex 11 -50 5
      vertex 11 -50 80
    endloop
  endfacet
  facet normal 0 1 0
    outer loop
      vertex 65 -10 80
      vertex 63 -10 42
      vertex 11 -10 80
    endloop
  endfacet
  facet normal 0 1 -0
    outer loop
      vertex 65 -10 5
      vertex 63 -10 42
      vertex 65 -10 80
    endloop
  endfacet
  facet normal 0 1 0
    outer loop
      vertex 63 -10 42
      vertex 65 -10 5
      vertex 63 -10 5
    endloop
  endfacet
  facet normal 0 1 -0
    outer loop
      vertex 13 -10 42
      vertex 11 -10 80
      vertex 63 -10 42
    endloop
  endfacet
  facet normal 0 1 0
    outer loop
      vertex 11 -10 5
      vertex 13 -10 42
      vertex 13 -10 5
    endloop
  endfacet
  facet normal 0 1 0
    outer loop
      vertex 13 -10 42
      vertex 11 -10 5
      vertex 11 -10 80
    endloop
  endfacet
  facet normal 0 -0.216426 0.976299
    outer loop
      vertex -64 95.9231 98.0389
      vertex 8 93.4619 97.4933
      vertex 8 95.9231 98.0389
    endloop
  endfacet
  facet normal 0 -0.216426 0.976299
    outer loop
      vertex 8 93.4619 97.4933
      vertex -64 95.9231 98.0389
      vertex -64 93.4619 97.4933
    endloop
  endfacet
  facet normal 1 0 0
    outer loop
      vertex -64 105.651 123.634
      vertex -64 95.9231 98.0389
      vertex -64 107.464 122.788
    endloop
  endfacet
  facet normal 1 0 -0
    outer loop
      vertex -64 95.9231 98.0389
      vertex -64 105.651 123.634
      vertex -64 93.4619 97.4933
    endloop
  endfacet
  facet normal -1 0 0
    outer loop
      vertex 8 95.9231 98.0389
      vertex 8 105.651 123.634
      vertex 8 107.464 122.788
    endloop
  endfacet
  facet normal -1 0 0
    outer loop
      vertex 8 105.651 123.634
      vertex 8 95.9231 98.0389
      vertex 8 93.4619 97.4933
    endloop
  endfacet
  facet normal -1 0 0
    outer loop
      vertex -23 48 0
      vertex -23 50 4.28901
      vertex -23 50 -0.443388
    endloop
  endfacet
  facet normal -1 0 0
    outer loop
      vertex -23 48 0
      vertex -23 50 -0.443388
      vertex -23 49.8126 -0.845236
    endloop
  endfacet
  facet normal -1 0 0
    outer loop
      vertex -23 43.0054 5
      vertex -23 50 4.28901
      vertex -23 48 0
    endloop
  endfacet
  facet normal -1 0 0
    outer loop
      vertex -23 50 4.28901
      vertex -23 43.0054 5
      vertex -23 50 5
    endloop
  endfacet
  facet normal -1 0 0
    outer loop
      vertex -23 43.0054 5
      vertex -23 39.0054 5
      vertex -23 43.0054 6
    endloop
  endfacet
  facet normal -1 0 0
    outer loop
      vertex -23 48 0
      vertex -23 39.0054 5
      vertex -23 43.0054 5
    endloop
  endfacet
  facet normal -1 0 0
    outer loop
      vertex -23 -50 0
      vertex -23 39.0054 5
      vertex -23 48 0
    endloop
  endfacet
  facet normal -1 -0 0
    outer loop
      vertex -23 39.0054 5
      vertex -23 -50 0
      vertex -23 -50 5
    endloop
  endfacet
  facet normal -1 -0 0
    outer loop
      vertex -23 43.0054 6
      vertex -23 39.0054 5
      vertex -23 39.0054 6
    endloop
  endfacet
  facet normal 0 0 -1
    outer loop
      vertex -33 39.0054 6
      vertex -23 43.0054 6
      vertex -23 39.0054 6
    endloop
  endfacet
  facet normal -0 0 -1
    outer loop
      vertex -23 43.0054 6
      vertex -33 39.0054 6
      vertex -33 43.0054 6
    endloop
  endfacet
  facet normal 1 0 0
    outer loop
      vertex -33 43.0054 6
      vertex -33 39.0054 6
      vertex -33 43.0054 5
    endloop
  endfacet
  facet normal 1 -0 0
    outer loop
      vertex -33 43.0054 5
      vertex -33 50 4.28901
      vertex -33 50 5
    endloop
  endfacet
  facet normal 1 0 0
    outer loop
      vertex -33 50 4.28901
      vertex -33 48 0
      vertex -33 50 -0.443388
    endloop
  endfacet
  facet normal 1 0 0
    outer loop
      vertex -33 50 -0.443388
      vertex -33 48 0
      vertex -33 49.8126 -0.845236
    endloop
  endfacet
  facet normal 1 0 0
    outer loop
      vertex -33 50 4.28901
      vertex -33 43.0054 5
      vertex -33 48 0
    endloop
  endfacet
  facet normal 1 0 0
    outer loop
      vertex -33 39.0054 5
      vertex -33 43.0054 5
      vertex -33 39.0054 6
    endloop
  endfacet
  facet normal 1 0 0
    outer loop
      vertex -33 43.0054 5
      vertex -33 39.0054 5
      vertex -33 48 0
    endloop
  endfacet
  facet normal 1 0 0
    outer loop
      vertex -33 -50 0
      vertex -33 39.0054 5
      vertex -33 -50 5
    endloop
  endfacet
  facet normal 1 0 0
    outer loop
      vertex -33 39.0054 5
      vertex -33 -50 0
      vertex -33 48 0
    endloop
  endfacet
  facet normal -1 0 0
    outer loop
      vertex 25 -48 42
      vertex 25 -12 80
      vertex 25 -12 42
    endloop
  endfacet
  facet normal -1 -0 0
    outer loop
      vertex 25 -12 80
      vertex 25 -48 42
      vertex 25 -48 80
    endloop
  endfacet
  facet normal 0 0 -1
    outer loop
      vertex 62.8683 -50 42
      vertex 51 -48 42
      vertex 61 -48 42
    endloop
  endfacet
  facet normal 0 0 -1
    outer loop
      vertex 51 -48 42
      vertex 49 -48 42
      vertex 51 -12 42
    endloop
  endfacet
  facet normal 0 0 -1
    outer loop
      vertex 62.8683 -50 42
      vertex 49 -48 42
      vertex 51 -48 42
    endloop
  endfacet
  facet normal 0 0 -1
    outer loop
      vertex 62.8683 -50 42
      vertex 39 -48 42
      vertex 49 -48 42
    endloop
  endfacet
  facet normal 0 0 -1
    outer loop
      vertex 39 -48 42
      vertex 37 -48 42
      vertex 39 -12 42
    endloop
  endfacet
  facet normal 0 0 -1
    outer loop
      vertex 62.8683 -50 42
      vertex 37 -48 42
      vertex 39 -48 42
    endloop
  endfacet
  facet normal 0 0 -1
    outer loop
      vertex 13.1317 -50 42
      vertex 37 -48 42
      vertex 62.8683 -50 42
    endloop
  endfacet
  facet normal 0 0 -1
    outer loop
      vertex 27 -48 42
      vertex 25 -48 42
      vertex 27 -12 42
    endloop
  endfacet
  facet normal -0 0 -1
    outer loop
      vertex 37 -48 42
      vertex 13.1317 -50 42
      vertex 27 -48 42
    endloop
  endfacet
  facet normal -0 0 -1
    outer loop
      vertex 27 -48 42
      vertex 13.1317 -50 42
      vertex 25 -48 42
    endloop
  endfacet
  facet normal 0 0 -1
    outer loop
      vertex 13 -49 42
      vertex 15 -48 42
      vertex 13.1317 -50 42
    endloop
  endfacet
  facet normal -0 0 -1
    outer loop
      vertex 25 -48 42
      vertex 13.1317 -50 42
      vertex 15 -48 42
    endloop
  endfacet
  facet normal 0 0 -1
    outer loop
      vertex 61 -48 42
      vertex 63 -49 42
      vertex 62.8683 -50 42
    endloop
  endfacet
  facet normal 0 0 -1
    outer loop
      vertex 61 -12 42
      vertex 63 -49 42
      vertex 61 -48 42
    endloop
  endfacet
  facet normal 0 0 -1
    outer loop
      vertex 63 -49 42
      vertex 61 -12 42
      vertex 63 -10 42
    endloop
  endfacet
  facet normal 0 0 -1
    outer loop
      vertex 51 -12 42
      vertex 63 -10 42
      vertex 61 -12 42
    endloop
  endfacet
  facet normal 0 0 -1
    outer loop
      vertex 49 -12 42
      vertex 51 -12 42
      vertex 49 -48 42
    endloop
  endfacet
  facet normal 0 0 -1
    outer loop
      vertex 49 -12 42
      vertex 63 -10 42
      vertex 51 -12 42
    endloop
  endfacet
  facet normal 0 0 -1
    outer loop
      vertex 39 -12 42
      vertex 63 -10 42
      vertex 49 -12 42
    endloop
  endfacet
  facet normal 0 0 -1
    outer loop
      vertex 37 -12 42
      vertex 39 -12 42
      vertex 37 -48 42
    endloop
  endfacet
  facet normal 0 0 -1
    outer loop
      vertex 37 -12 42
      vertex 63 -10 42
      vertex 39 -12 42
    endloop
  endfacet
  facet normal 0 0 -1
    outer loop
      vertex 13 -10 42
      vertex 37 -12 42
      vertex 27 -12 42
    endloop
  endfacet
  facet normal 0 0 -1
    outer loop
      vertex 25 -12 42
      vertex 27 -12 42
      vertex 25 -48 42
    endloop
  endfacet
  facet normal 0 0 -1
    outer loop
      vertex 13 -10 42
      vertex 27 -12 42
      vertex 25 -12 42
    endloop
  endfacet
  facet normal 0 0 -1
    outer loop
      vertex 13 -10 42
      vertex 25 -12 42
      vertex 15 -12 42
    endloop
  endfacet
  facet normal -0 0 -1
    outer loop
      vertex 15 -48 42
      vertex 13 -49 42
      vertex 15 -12 42
    endloop
  endfacet
  facet normal 0 0 -1
    outer loop
      vertex 37 -12 42
      vertex 13 -10 42
      vertex 63 -10 42
    endloop
  endfacet
  facet normal 0 0 -1
    outer loop
      vertex 13 -10 42
      vertex 15 -12 42
      vertex 13 -49 42
    endloop
  endfacet
  facet normal 1 -0 0
    outer loop
      vertex 15 -48 80
      vertex 15 -12 42
      vertex 15 -12 80
    endloop
  endfacet
  facet normal 1 0 0
    outer loop
      vertex 15 -12 42
      vertex 15 -48 80
      vertex 15 -48 42
    endloop
  endfacet
  facet normal 0 -1 0
    outer loop
      vertex 15 -12 42
      vertex 25 -12 80
      vertex 15 -12 80
    endloop
  endfacet
  facet normal 0 -1 -0
    outer loop
      vertex 25 -12 80
      vertex 15 -12 42
      vertex 25 -12 42
    endloop
  endfacet
  facet normal 0 1 -0
    outer loop
      vertex 25 -48 42
      vertex 15 -48 80
      vertex 25 -48 80
    endloop
  endfacet
  facet normal 0 1 0
    outer loop
      vertex 15 -48 80
      vertex 25 -48 42
      vertex 15 -48 42
    endloop
  endfacet
  facet normal -1 0 0
    outer loop
      vertex 37 -48 42
      vertex 37 -12 80
      vertex 37 -12 42
    endloop
  endfacet
  facet normal -1 -0 0
    outer loop
      vertex 37 -12 80
      vertex 37 -48 42
      vertex 37 -48 80
    endloop
  endfacet
  facet normal 1 -0 0
    outer loop
      vertex 27 -48 80
      vertex 27 -12 42
      vertex 27 -12 80
    endloop
  endfacet
  facet normal 1 0 0
    outer loop
      vertex 27 -12 42
      vertex 27 -48 80
      vertex 27 -48 42
    endloop
  endfacet
  facet normal 0 -1 0
    outer loop
      vertex 27 -12 42
      vertex 37 -12 80
      vertex 27 -12 80
    endloop
  endfacet
  facet normal 0 -1 -0
    outer loop
      vertex 37 -12 80
      vertex 27 -12 42
      vertex 37 -12 42
    endloop
  endfacet
  facet normal 0 1 -0
    outer loop
      vertex 37 -48 42
      vertex 27 -48 80
      vertex 37 -48 80
    endloop
  endfacet
  facet normal 0 1 0
    outer loop
      vertex 27 -48 80
      vertex 37 -48 42
      vertex 27 -48 42
    endloop
  endfacet
  facet normal -1 0 0
    outer loop
      vertex 49 -48 42
      vertex 49 -12 80
      vertex 49 -12 42
    endloop
  endfacet
  facet normal -1 -0 0
    outer loop
      vertex 49 -12 80
      vertex 49 -48 42
      vertex 49 -48 80
    endloop
  endfacet
  facet normal 1 -0 0
    outer loop
      vertex 39 -48 80
      vertex 39 -12 42
      vertex 39 -12 80
    endloop
  endfacet
  facet normal 1 0 0
    outer loop
      vertex 39 -12 42
      vertex 39 -48 80
      vertex 39 -48 42
    endloop
  endfacet
  facet normal 0 -1 0
    outer loop
      vertex 39 -12 42
      vertex 49 -12 80
      vertex 39 -12 80
    endloop
  endfacet
  facet normal 0 -1 -0
    outer loop
      vertex 49 -12 80
      vertex 39 -12 42
      vertex 49 -12 42
    endloop
  endfacet
  facet normal 0 1 -0
    outer loop
      vertex 49 -48 42
      vertex 39 -48 80
      vertex 49 -48 80
    endloop
  endfacet
  facet normal 0 1 0
    outer loop
      vertex 39 -48 80
      vertex 49 -48 42
      vertex 39 -48 42
    endloop
  endfacet
  facet normal -1 0 0
    outer loop
      vertex 61 -48 42
      vertex 61 -12 80
      vertex 61 -12 42
    endloop
  endfacet
  facet normal -1 -0 0
    outer loop
      vertex 61 -12 80
      vertex 61 -48 42
      vertex 61 -48 80
    endloop
  endfacet
  facet normal 1 -0 0
    outer loop
      vertex 51 -48 80
      vertex 51 -12 42
      vertex 51 -12 80
    endloop
  endfacet
  facet normal 1 0 0
    outer loop
      vertex 51 -12 42
      vertex 51 -48 80
      vertex 51 -48 42
    endloop
  endfacet
  facet normal 0 -1 0
    outer loop
      vertex 51 -12 42
      vertex 61 -12 80
      vertex 51 -12 80
    endloop
  endfacet
  facet normal 0 -1 -0
    outer loop
      vertex 61 -12 80
      vertex 51 -12 42
      vertex 61 -12 42
    endloop
  endfacet
  facet normal 0 1 -0
    outer loop
      vertex 61 -48 42
      vertex 51 -48 80
      vertex 61 -48 80
    endloop
  endfacet
  facet normal 0 1 0
    outer loop
      vertex 51 -48 80
      vertex 61 -48 42
      vertex 51 -48 42
    endloop
  endfacet
  facet normal 1 0 0
    outer loop
      vertex 13 -10 42
      vertex 13 -49 42
      vertex 13 -10 5
    endloop
  endfacet
  facet normal 1 -0 0
    outer loop
      vertex 13 -10 5
      vertex 13 -6 2
      vertex 13 -6 5
    endloop
  endfacet
  facet normal 1 0 0
    outer loop
      vertex 13 -10 5
      vertex 13 -49 2
      vertex 13 -6 2
    endloop
  endfacet
  facet normal 1 0 0
    outer loop
      vertex 13 -49 2
      vertex 13 -10 5
      vertex 13 -49 42
    endloop
  endfacet
  facet normal 0.608753 -0.79336 0
    outer loop
      vertex 20.3223 11.6777 2
      vertex 25.5 15.6506 5
      vertex 20.3223 11.6777 5
    endloop
  endfacet
  facet normal 0.608753 -0.79336 0
    outer loop
      vertex 25.5 15.6506 5
      vertex 20.3223 11.6777 2
      vertex 25.5 15.6506 2
    endloop
  endfacet
  facet normal -0.92388 -0.382682 -1.15943e-17
    outer loop
      vertex 62.1481 0.470475 2
      vertex 59.6506 6.5 5
      vertex 59.6506 6.5 2
    endloop
  endfacet
  facet normal -0.92388 -0.382682 -1.15943e-17
    outer loop
      vertex 59.6506 6.5 5
      vertex 62.1481 0.470475 2
      vertex 62.1481 0.470475 5
    endloop
  endfacet
  facet normal 0 0 1
    outer loop
      vertex 13 -49 2
      vertex 63 -49 2
      vertex 63 -6 2
    endloop
  endfacet
  facet normal 0 0 1
    outer loop
      vertex 13 -6 2
      vertex 63 -6 2
      vertex 62.1481 0.470475 2
    endloop
  endfacet
  facet normal 0 0 1
    outer loop
      vertex 13 -6 2
      vertex 62.1481 0.470475 2
      vertex 59.6506 6.5 2
    endloop
  endfacet
  facet normal 0 0 1
    outer loop
      vertex 13 -6 2
      vertex 59.6506 6.5 2
      vertex 55.6777 11.6777 2
    endloop
  endfacet
  facet normal 0 0 1
    outer loop
      vertex 13 -6 2
      vertex 55.6777 11.6777 2
      vertex 50.5 15.6506 2
    endloop
  endfacet
  facet normal 0 0 1
    outer loop
      vertex 13 -6 2
      vertex 50.5 15.6506 2
      vertex 44.4705 18.1481 2
    endloop
  endfacet
  facet normal 0 0 1
    outer loop
      vertex 13 -6 2
      vertex 44.4705 18.1481 2
      vertex 38 19 2
    endloop
  endfacet
  facet normal 0 0 1
    outer loop
      vertex 13 -6 2
      vertex 38 19 2
      vertex 31.5295 18.1481 2
    endloop
  endfacet
  facet normal 0 0 1
    outer loop
      vertex 13 -6 2
      vertex 31.5295 18.1481 2
      vertex 25.5 15.6506 2
    endloop
  endfacet
  facet normal 0 0 1
    outer loop
      vertex 13 -6 2
      vertex 25.5 15.6506 2
      vertex 20.3223 11.6777 2
    endloop
  endfacet
  facet normal 0 0 1
    outer loop
      vertex 13 -6 2
      vertex 20.3223 11.6777 2
      vertex 16.3494 6.5 2
    endloop
  endfacet
  facet normal 0 0 1
    outer loop
      vertex 13 -6 2
      vertex 16.3494 6.5 2
      vertex 13.8519 0.470475 2
    endloop
  endfacet
  facet normal 0 0 1
    outer loop
      vertex 13 -49 2
      vertex 63 -6 2
      vertex 13 -6 2
    endloop
  endfacet
  facet normal 0 0 1
    outer loop
      vertex 63 -49 2
      vertex 13 -49 2
      vertex 62.8683 -50 2
    endloop
  endfacet
  facet normal 0 0 1
    outer loop
      vertex 62.8683 -50 2
      vertex 13 -49 2
      vertex 13.1317 -50 2
    endloop
  endfacet
  facet normal 0.382683 -0.92388 0
    outer loop
      vertex 25.5 15.6506 2
      vertex 31.5295 18.1481 5
      vertex 25.5 15.6506 5
    endloop
  endfacet
  facet normal 0.382683 -0.92388 0
    outer loop
      vertex 31.5295 18.1481 5
      vertex 25.5 15.6506 2
      vertex 31.5295 18.1481 2
    endloop
  endfacet
  facet normal 0.79336 -0.608753 -4.39797e-17
    outer loop
      vertex 16.3494 6.5 5
      vertex 20.3223 11.6777 2
      vertex 20.3223 11.6777 5
    endloop
  endfacet
  facet normal 0.79336 -0.608753 -4.39797e-17
    outer loop
      vertex 20.3223 11.6777 2
      vertex 16.3494 6.5 5
      vertex 16.3494 6.5 2
    endloop
  endfacet
  facet normal -1 0 0
    outer loop
      vertex 63 -6 2
      vertex 63 -10 5
      vertex 63 -6 5
    endloop
  endfacet
  facet normal -1 0 0
    outer loop
      vertex 63 -49 2
      vertex 63 -10 5
      vertex 63 -6 2
    endloop
  endfacet
  facet normal -1 0 0
    outer loop
      vertex 63 -49 42
      vertex 63 -10 5
      vertex 63 -49 2
    endloop
  endfacet
  facet normal -1 0 0
    outer loop
      vertex 63 -10 5
      vertex 63 -49 42
      vertex 63 -10 42
    endloop
  endfacet
  facet normal -0.608753 -0.79336 0
    outer loop
      vertex 50.5 15.6506 2
      vertex 55.6777 11.6777 5
      vertex 50.5 15.6506 5
    endloop
  endfacet
  facet normal -0.608753 -0.79336 -0
    outer loop
      vertex 55.6777 11.6777 5
      vertex 50.5 15.6506 2
      vertex 55.6777 11.6777 2
    endloop
  endfacet
  facet normal 0.991439 0.130572 0
    outer loop
      vertex 13.1317 -50 42
      vertex 13 -49 2
      vertex 13 -49 42
    endloop
  endfacet
  facet normal 0.991439 0.130572 0
    outer loop
      vertex 13 -49 2
      vertex 13.1317 -50 42
      vertex 13.1317 -50 2
    endloop
  endfacet
  facet normal -0.991439 0.130572 0
    outer loop
      vertex 62.8683 -50 2
      vertex 63 -49 42
      vertex 63 -49 2
    endloop
  endfacet
  facet normal -0.991439 0.130572 0
    outer loop
      vertex 63 -49 42
      vertex 62.8683 -50 2
      vertex 62.8683 -50 42
    endloop
  endfacet
  facet normal 0.130533 -0.991444 0
    outer loop
      vertex 31.5295 18.1481 2
      vertex 38 19 5
      vertex 31.5295 18.1481 5
    endloop
  endfacet
  facet normal 0.130533 -0.991444 0
    outer loop
      vertex 38 19 5
      vertex 31.5295 18.1481 2
      vertex 38 19 2
    endloop
  endfacet
  facet normal 0.92388 -0.382682 6.23683e-18
    outer loop
      vertex 13.8519 0.470475 5
      vertex 16.3494 6.5 2
      vertex 16.3494 6.5 5
    endloop
  endfacet
  facet normal 0.92388 -0.382682 6.23683e-18
    outer loop
      vertex 16.3494 6.5 2
      vertex 13.8519 0.470475 5
      vertex 13.8519 0.470475 2
    endloop
  endfacet
  facet normal -0.79336 -0.608753 7.62245e-17
    outer loop
      vertex 59.6506 6.5 2
      vertex 55.6777 11.6777 5
      vertex 55.6777 11.6777 2
    endloop
  endfacet
  facet normal -0.79336 -0.608753 7.62245e-17
    outer loop
      vertex 55.6777 11.6777 5
      vertex 59.6506 6.5 2
      vertex 59.6506 6.5 5
    endloop
  endfacet
  facet normal -0.991444 -0.130533 -3.56832e-18
    outer loop
      vertex 63 -6 2
      vertex 62.1481 0.470475 5
      vertex 62.1481 0.470475 2
    endloop
  endfacet
  facet normal -0.991444 -0.130533 -3.56832e-18
    outer loop
      vertex 62.1481 0.470475 5
      vertex 63 -6 2
      vertex 63 -6 5
    endloop
  endfacet
  facet normal -0.130533 -0.991444 0
    outer loop
      vertex 38 19 2
      vertex 44.4705 18.1481 5
      vertex 38 19 5
    endloop
  endfacet
  facet normal -0.130533 -0.991444 -0
    outer loop
      vertex 44.4705 18.1481 5
      vertex 38 19 2
      vertex 44.4705 18.1481 2
    endloop
  endfacet
  facet normal 0.991444 -0.130533 3.56832e-18
    outer loop
      vertex 13 -6 5
      vertex 13.8519 0.470475 2
      vertex 13.8519 0.470475 5
    endloop
  endfacet
  facet normal 0.991444 -0.130533 3.56832e-18
    outer loop
      vertex 13.8519 0.470475 2
      vertex 13 -6 5
      vertex 13 -6 2
    endloop
  endfacet
  facet normal -0.382683 -0.92388 0
    outer loop
      vertex 44.4705 18.1481 2
      vertex 50.5 15.6506 5
      vertex 44.4705 18.1481 5
    endloop
  endfacet
  facet normal -0.382683 -0.92388 -0
    outer loop
      vertex 50.5 15.6506 5
      vertex 44.4705 18.1481 2
      vertex 50.5 15.6506 2
    endloop
  endfacet
endsolid OpenSCAD_Model
