solid OpenSCAD_Model
  facet normal 1 -0 0
    outer loop
      vertex 30 -20 0
      vertex 30 20 -27
      vertex 30 20 0
    endloop
  endfacet
  facet normal 1 0 0
    outer loop
      vertex 30 20 -27
      vertex 30 -20 0
      vertex 30 -20 -27
    endloop
  endfacet
  facet normal 0 0 1
    outer loop
      vertex 30 20 0
      vertex 28 18 0
      vertex 30 -20 0
    endloop
  endfacet
  facet normal 0 0 1
    outer loop
      vertex 30 20 0
      vertex -28 18 0
      vertex 28 18 0
    endloop
  endfacet
  facet normal 0 0 1
    outer loop
      vertex -28 18 0
      vertex -30 20 0
      vertex -28 -18 0
    endloop
  endfacet
  facet normal -0 0 1
    outer loop
      vertex -30 20 0
      vertex -28 18 0
      vertex 30 20 0
    endloop
  endfacet
  facet normal -0 0 1
    outer loop
      vertex 28 -18 0
      vertex 30 -20 0
      vertex 28 18 0
    endloop
  endfacet
  facet normal -0 0 1
    outer loop
      vertex -28 -18 0
      vertex 30 -20 0
      vertex 28 -18 0
    endloop
  endfacet
  facet normal 0 0 1
    outer loop
      vertex -28 -18 0
      vertex -30 -20 0
      vertex 30 -20 0
    endloop
  endfacet
  facet normal 0 0 1
    outer loop
      vertex -30 -20 0
      vertex -28 -18 0
      vertex -30 20 0
    endloop
  endfacet
  facet normal 0 0 -1
    outer loop
      vertex -30 -20 -27
      vertex 30 20 -27
      vertex 30 -20 -27
    endloop
  endfacet
  facet normal -0 0 -1
    outer loop
      vertex 30 20 -27
      vertex -30 -20 -27
      vertex -30 20 -27
    endloop
  endfacet
  facet normal -1 0 0
    outer loop
      vertex -30 -20 -27
      vertex -30 20 0
      vertex -30 20 -27
    endloop
  endfacet
  facet normal -1 -0 0
    outer loop
      vertex -30 20 0
      vertex -30 -20 -27
      vertex -30 -20 0
    endloop
  endfacet
  facet normal 0 1 -0
    outer loop
      vertex 30 20 -27
      vertex -30 20 0
      vertex 30 20 0
    endloop
  endfacet
  facet normal 0 1 0
    outer loop
      vertex -30 20 0
      vertex 30 20 -27
      vertex -30 20 -27
    endloop
  endfacet
  facet normal 0 -1 0
    outer loop
      vertex -30 -20 -27
      vertex 30 -20 0
      vertex -30 -20 0
    endloop
  endfacet
  facet normal 0 -1 -0
    outer loop
      vertex 30 -20 0
      vertex -30 -20 -27
      vertex 30 -20 -27
    endloop
  endfacet
  facet normal -1 0 0
    outer loop
      vertex 28 -18 -25
      vertex 28 18 0
      vertex 28 18 -25
    endloop
  endfacet
  facet normal -1 -0 0
    outer loop
      vertex 28 18 0
      vertex 28 -18 -25
      vertex 28 -18 0
    endloop
  endfacet
  facet normal -0 0 1
    outer loop
      vertex -28 18 -25
      vertex 28 -18 -25
      vertex 28 18 -25
    endloop
  endfacet
  facet normal 0 0 1
    outer loop
      vertex 28 -18 -25
      vertex -28 18 -25
      vertex -28 -18 -25
    endloop
  endfacet
  facet normal 1 -0 0
    outer loop
      vertex -28 -18 0
      vertex -28 18 -25
      vertex -28 18 0
    endloop
  endfacet
  facet normal 1 0 0
    outer loop
      vertex -28 18 -25
      vertex -28 -18 0
      vertex -28 -18 -25
    endloop
  endfacet
  facet normal 0 -1 0
    outer loop
      vertex -28 18 -25
      vertex 28 18 0
      vertex -28 18 0
    endloop
  endfacet
  facet normal 0 -1 -0
    outer loop
      vertex 28 18 0
      vertex -28 18 -25
      vertex 28 18 -25
    endloop
  endfacet
  facet normal 0 1 -0
    outer loop
      vertex 28 -18 -25
      vertex -28 -18 0
      vertex 28 -18 0
    endloop
  endfacet
  facet normal 0 1 0
    outer loop
      vertex -28 -18 0
      vertex 28 -18 -25
      vertex -28 -18 -25
    endloop
  endfacet
  facet normal 1 -0 0
    outer loop
      vertex 30 -20 35
      vertex 30 20 32
      vertex 30 20 35
    endloop
  endfacet
  facet normal 1 0 0
    outer loop
      vertex 30 20 32
      vertex 30 -20 35
      vertex 30 -20 32
    endloop
  endfacet
  facet normal -0 0 1
    outer loop
      vertex -30 20 35
      vertex 30 -20 35
      vertex 30 20 35
    endloop
  endfacet
  facet normal 0 0 1
    outer loop
      vertex 30 -20 35
      vertex -30 20 35
      vertex -30 -20 35
    endloop
  endfacet
  facet normal 0 0 -1
    outer loop
      vertex 30 -20 32
      vertex 27.9 -17.9 32
      vertex 30 20 32
    endloop
  endfacet
  facet normal 0 0 -1
    outer loop
      vertex 30 -20 32
      vertex -27.9 -17.9 32
      vertex 27.9 -17.9 32
    endloop
  endfacet
  facet normal -0 0 -1
    outer loop
      vertex -27.9 -17.9 32
      vertex -30 -20 32
      vertex -27.9 17.9 32
    endloop
  endfacet
  facet normal 0 0 -1
    outer loop
      vertex -30 -20 32
      vertex -27.9 -17.9 32
      vertex 30 -20 32
    endloop
  endfacet
  facet normal 0 0 -1
    outer loop
      vertex 27.9 17.9 32
      vertex 30 20 32
      vertex 27.9 -17.9 32
    endloop
  endfacet
  facet normal 0 0 -1
    outer loop
      vertex -27.9 17.9 32
      vertex 30 20 32
      vertex 27.9 17.9 32
    endloop
  endfacet
  facet normal 0 0 -1
    outer loop
      vertex -27.9 17.9 32
      vertex -30 20 32
      vertex 30 20 32
    endloop
  endfacet
  facet normal 0 0 -1
    outer loop
      vertex -30 20 32
      vertex -27.9 17.9 32
      vertex -30 -20 32
    endloop
  endfacet
  facet normal -1 0 0
    outer loop
      vertex -30 -20 32
      vertex -30 20 35
      vertex -30 20 32
    endloop
  endfacet
  facet normal -1 -0 0
    outer loop
      vertex -30 20 35
      vertex -30 -20 32
      vertex -30 -20 35
    endloop
  endfacet
  facet normal 0 1 -0
    outer loop
      vertex 30 20 32
      vertex -30 20 35
      vertex 30 20 35
    endloop
  endfacet
  facet normal 0 1 0
    outer loop
      vertex -30 20 35
      vertex 30 20 32
      vertex -30 20 32
    endloop
  endfacet
  facet normal 0 -1 0
    outer loop
      vertex -30 -20 32
      vertex 30 -20 35
      vertex -30 -20 35
    endloop
  endfacet
  facet normal 0 -1 -0
    outer loop
      vertex 30 -20 35
      vertex -30 -20 32
      vertex 30 -20 32
    endloop
  endfacet
  facet normal 1 -0 0
    outer loop
      vertex 27.9 -17.9 32
      vertex 27.9 17.9 24
      vertex 27.9 17.9 32
    endloop
  endfacet
  facet normal 1 0 0
    outer loop
      vertex 27.9 17.9 24
      vertex 27.9 -17.9 32
      vertex 27.9 -17.9 24
    endloop
  endfacet
  facet normal 0 0 -1
    outer loop
      vertex -27.9 -17.9 24
      vertex 27.9 17.9 24
      vertex 27.9 -17.9 24
    endloop
  endfacet
  facet normal -0 0 -1
    outer loop
      vertex 27.9 17.9 24
      vertex -27.9 -17.9 24
      vertex -27.9 17.9 24
    endloop
  endfacet
  facet normal -1 0 0
    outer loop
      vertex -27.9 -17.9 24
      vertex -27.9 17.9 32
      vertex -27.9 17.9 24
    endloop
  endfacet
  facet normal -1 -0 0
    outer loop
      vertex -27.9 17.9 32
      vertex -27.9 -17.9 24
      vertex -27.9 -17.9 32
    endloop
  endfacet
  facet normal 0 1 -0
    outer loop
      vertex 27.9 17.9 24
      vertex -27.9 17.9 32
      vertex 27.9 17.9 32
    endloop
  endfacet
  facet normal 0 1 0
    outer loop
      vertex -27.9 17.9 32
      vertex 27.9 17.9 24
      vertex -27.9 17.9 24
    endloop
  endfacet
  facet normal 0 -1 0
    outer loop
      vertex -27.9 -17.9 24
      vertex 27.9 -17.9 32
      vertex -27.9 -17.9 32
    endloop
  endfacet
  facet normal 0 -1 -0
    outer loop
      vertex 27.9 -17.9 32
      vertex -27.9 -17.9 24
      vertex 27.9 -17.9 24
    endloop
  endfacet
endsolid OpenSCAD_Model
