solid OpenSCAD_Model
  facet normal 0 1 0
    outer loop
      vertex 44 45 55
      vertex 0 45 36.6667
      vertex -44 45 55
    endloop
  endfacet
  facet normal 0 1 0
    outer loop
      vertex 44 45 55
      vertex 9.49003 45 35.4173
      vertex 0 45 36.6667
    endloop
  endfacet
  facet normal 0 1 0
    outer loop
      vertex 44 45 55
      vertex 18.3333 45 31.7543
      vertex 9.49003 45 35.4173
    endloop
  endfacet
  facet normal 0 1 0
    outer loop
      vertex 44 45 55
      vertex 25.9272 45 25.9272
      vertex 18.3333 45 31.7543
    endloop
  endfacet
  facet normal 0 1 0
    outer loop
      vertex 44 45 55
      vertex 31.7543 45 18.3333
      vertex 25.9272 45 25.9272
    endloop
  endfacet
  facet normal 0 1 0
    outer loop
      vertex 44 45 55
      vertex 35.4173 45 9.49003
      vertex 31.7543 45 18.3333
    endloop
  endfacet
  facet normal 0 1 0
    outer loop
      vertex 44 45 55
      vertex 36.6667 45 0
      vertex 35.4173 45 9.49003
    endloop
  endfacet
  facet normal 0 1 -0
    outer loop
      vertex 44 45 -55
      vertex 36.6667 45 0
      vertex 44 45 55
    endloop
  endfacet
  facet normal 0 1 0
    outer loop
      vertex 9.49003 45 -35.4173
      vertex 44 45 -55
      vertex 0 45 -36.6667
    endloop
  endfacet
  facet normal 0 1 0
    outer loop
      vertex 18.3333 45 -31.7543
      vertex 44 45 -55
      vertex 9.49003 45 -35.4173
    endloop
  endfacet
  facet normal 0 1 0
    outer loop
      vertex 25.9272 45 -25.9272
      vertex 44 45 -55
      vertex 18.3333 45 -31.7543
    endloop
  endfacet
  facet normal 0 1 0
    outer loop
      vertex 31.7543 45 -18.3333
      vertex 44 45 -55
      vertex 25.9272 45 -25.9272
    endloop
  endfacet
  facet normal 0 1 0
    outer loop
      vertex 35.4173 45 -9.49003
      vertex 44 45 -55
      vertex 31.7543 45 -18.3333
    endloop
  endfacet
  facet normal 0 1 0
    outer loop
      vertex 36.6667 45 0
      vertex 44 45 -55
      vertex 35.4173 45 -9.49003
    endloop
  endfacet
  facet normal 0 1 -0
    outer loop
      vertex -9.49003 45 35.4173
      vertex -44 45 55
      vertex 0 45 36.6667
    endloop
  endfacet
  facet normal 0 1 -0
    outer loop
      vertex -18.3333 45 31.7543
      vertex -44 45 55
      vertex -9.49003 45 35.4173
    endloop
  endfacet
  facet normal 0 1 -0
    outer loop
      vertex -25.9272 45 25.9272
      vertex -44 45 55
      vertex -18.3333 45 31.7543
    endloop
  endfacet
  facet normal 0 1 -0
    outer loop
      vertex -31.7543 45 18.3333
      vertex -44 45 55
      vertex -25.9272 45 25.9272
    endloop
  endfacet
  facet normal 0 1 -0
    outer loop
      vertex -35.4173 45 9.49003
      vertex -44 45 55
      vertex -31.7543 45 18.3333
    endloop
  endfacet
  facet normal 0 1 -0
    outer loop
      vertex -36.6667 45 0
      vertex -44 45 55
      vertex -35.4173 45 9.49003
    endloop
  endfacet
  facet normal 0 1 0
    outer loop
      vertex -44 45 -55
      vertex -36.6667 45 0
      vertex -35.4173 45 -9.49003
    endloop
  endfacet
  facet normal 0 1 0
    outer loop
      vertex -44 45 -55
      vertex 0 45 -36.6667
      vertex 44 45 -55
    endloop
  endfacet
  facet normal 0 1 0
    outer loop
      vertex -36.6667 45 0
      vertex -44 45 -55
      vertex -44 45 55
    endloop
  endfacet
  facet normal 0 1 0
    outer loop
      vertex -31.7543 45 -18.3333
      vertex -44 45 -55
      vertex -35.4173 45 -9.49003
    endloop
  endfacet
  facet normal 0 1 0
    outer loop
      vertex -25.9272 45 -25.9272
      vertex -44 45 -55
      vertex -31.7543 45 -18.3333
    endloop
  endfacet
  facet normal 0 1 0
    outer loop
      vertex -18.3333 45 -31.7543
      vertex -44 45 -55
      vertex -25.9272 45 -25.9272
    endloop
  endfacet
  facet normal 0 1 0
    outer loop
      vertex -9.49003 45 -35.4173
      vertex -44 45 -55
      vertex -18.3333 45 -31.7543
    endloop
  endfacet
  facet normal 0 1 0
    outer loop
      vertex 0 45 -36.6667
      vertex -44 45 -55
      vertex -9.49003 45 -35.4173
    endloop
  endfacet
  facet normal 0 -1 0
    outer loop
      vertex 12 -45 -55
      vertex 44 -45 -54.9081
      vertex 12 -45 -54.9081
    endloop
  endfacet
  facet normal 0 -1 -0
    outer loop
      vertex 44 -45 -54.9081
      vertex 12 -45 -55
      vertex 44 -45 -55
    endloop
  endfacet
  facet normal 0 -1 0
    outer loop
      vertex -44 -45 -55
      vertex -12 -45 -54.9081
      vertex -44 -45 -54.9081
    endloop
  endfacet
  facet normal 0 -1 -0
    outer loop
      vertex -12 -45 -54.9081
      vertex -44 -45 -55
      vertex -12 -45 -55
    endloop
  endfacet
  facet normal 0 -1 0
    outer loop
      vertex -44 -45 -40.0096
      vertex 44 -45 -39
      vertex -44 -45 -39
    endloop
  endfacet
  facet normal 0 -1 -0
    outer loop
      vertex 44 -45 -39
      vertex -44 -45 -40.0096
      vertex 44 -45 -40.0096
    endloop
  endfacet
  facet normal 1 0 0
    outer loop
      vertex 44 -45 -54.9081
      vertex 44 -45 -55
      vertex 44 -44.7475 -55
    endloop
  endfacet
  facet normal 1 -0 0
    outer loop
      vertex 44 42 55
      vertex 44 45 -55
      vertex 44 45 55
    endloop
  endfacet
  facet normal 1 0 0
    outer loop
      vertex 44 42 55
      vertex 44 -3.81422 -55
      vertex 44 45 -55
    endloop
  endfacet
  facet normal 1 -0 0
    outer loop
      vertex 44 -45 -39
      vertex 44 -3.81422 -55
      vertex 44 42 55
    endloop
  endfacet
  facet normal 1 0 0
    outer loop
      vertex 44 -3.81422 -55
      vertex 44 -45 -39
      vertex 44 -45 -40.0096
    endloop
  endfacet
  facet normal 0 0 -1
    outer loop
      vertex 12 -45 -55
      vertex 44 -44.7475 -55
      vertex 44 -45 -55
    endloop
  endfacet
  facet normal -0 0 -1
    outer loop
      vertex 44 -44.7475 -55
      vertex 12 -45 -55
      vertex 12 -44.7475 -55
    endloop
  endfacet
  facet normal 0 0 -1
    outer loop
      vertex -44 -3.81422 -55
      vertex 44 45 -55
      vertex 44 -3.81422 -55
    endloop
  endfacet
  facet normal -0 0 -1
    outer loop
      vertex 44 45 -55
      vertex -44 -3.81422 -55
      vertex -44 45 -55
    endloop
  endfacet
  facet normal 0 0 -1
    outer loop
      vertex -44 -45 -55
      vertex -12 -44.7475 -55
      vertex -12 -45 -55
    endloop
  endfacet
  facet normal -0 0 -1
    outer loop
      vertex -12 -44.7475 -55
      vertex -44 -45 -55
      vertex -44 -44.7475 -55
    endloop
  endfacet
  facet normal -1 0 0
    outer loop
      vertex -44 -44.7475 -55
      vertex -44 -45 -55
      vertex -44 -45 -54.9081
    endloop
  endfacet
  facet normal -1 0 0
    outer loop
      vertex -44 45 -55
      vertex -44 42 55
      vertex -44 45 55
    endloop
  endfacet
  facet normal -1 0 0
    outer loop
      vertex -44 -3.81422 -55
      vertex -44 42 55
      vertex -44 45 -55
    endloop
  endfacet
  facet normal -1 0 0
    outer loop
      vertex -44 -45 -39
      vertex -44 -3.81422 -55
      vertex -44 -45 -40.0096
    endloop
  endfacet
  facet normal -1 0 0
    outer loop
      vertex -44 -3.81422 -55
      vertex -44 -45 -39
      vertex -44 42 55
    endloop
  endfacet
  facet normal 0 -0.733904 0.679253
    outer loop
      vertex -44 42 55
      vertex 0 25.0319 36.6667
      vertex 44 42 55
    endloop
  endfacet
  facet normal -3.68417e-06 -0.733908 0.679249
    outer loop
      vertex -44 42 55
      vertex -9.49003 23.8756 35.4173
      vertex 0 25.0319 36.6667
    endloop
  endfacet
  facet normal 3.79857e-06 -0.733902 0.679256
    outer loop
      vertex -44 42 55
      vertex -18.3333 20.4853 31.7543
      vertex -9.49003 23.8756 35.4173
    endloop
  endfacet
  facet normal -4.32955e-06 -0.733906 0.679251
    outer loop
      vertex -44 42 55
      vertex -25.9272 15.0922 25.9272
      vertex -18.3333 20.4853 31.7543
    endloop
  endfacet
  facet normal -1.78798e-06 -0.733905 0.679252
    outer loop
      vertex -44 42 55
      vertex -31.7543 8.06383 18.3333
      vertex -25.9272 15.0922 25.9272
    endloop
  endfacet
  facet normal 4.20116e-06 -0.733904 0.679253
    outer loop
      vertex -44 42 55
      vertex -35.4173 -0.120929 9.49003
      vertex -31.7543 8.06383 18.3333
    endloop
  endfacet
  facet normal -1.0858e-06 -0.733905 0.679252
    outer loop
      vertex -44 42 55
      vertex -36.6667 -8.90425 0
      vertex -35.4173 -0.120929 9.49003
    endloop
  endfacet
  facet normal 5.32332e-07 -0.733905 0.679252
    outer loop
      vertex -44 -45 -39
      vertex -36.6667 -8.90425 0
      vertex -44 42 55
    endloop
  endfacet
  facet normal 1.99332e-06 -0.733915 0.679242
    outer loop
      vertex -9.49003 -41.6841 -35.4173
      vertex -44 -45 -39
      vertex 0 -42.8404 -36.6667
    endloop
  endfacet
  facet normal -1.32818e-06 -0.733899 0.679259
    outer loop
      vertex -18.3333 -38.2938 -31.7543
      vertex -44 -45 -39
      vertex -9.49003 -41.6841 -35.4173
    endloop
  endfacet
  facet normal 5.87572e-06 -0.733911 0.679245
    outer loop
      vertex -25.9272 -32.9008 -25.9272
      vertex -44 -45 -39
      vertex -18.3333 -38.2938 -31.7543
    endloop
  endfacet
  facet normal -7.08361e-06 -0.733903 0.679255
    outer loop
      vertex -31.7543 -25.8723 -18.3333
      vertex -44 -45 -39
      vertex -25.9272 -32.9008 -25.9272
    endloop
  endfacet
  facet normal 2.69675e-06 -0.733905 0.679252
    outer loop
      vertex -35.4173 -17.6876 -9.49003
      vertex -44 -45 -39
      vertex -31.7543 -25.8723 -18.3333
    endloop
  endfacet
  facet normal -5.58013e-06 -0.733904 0.679253
    outer loop
      vertex -36.6667 -8.90425 0
      vertex -44 -45 -39
      vertex -35.4173 -17.6876 -9.49003
    endloop
  endfacet
  facet normal 3.68417e-06 -0.733908 0.679249
    outer loop
      vertex 9.49003 23.8756 35.4173
      vertex 44 42 55
      vertex 0 25.0319 36.6667
    endloop
  endfacet
  facet normal -3.79857e-06 -0.733902 0.679256
    outer loop
      vertex 18.3333 20.4853 31.7543
      vertex 44 42 55
      vertex 9.49003 23.8756 35.4173
    endloop
  endfacet
  facet normal 4.32955e-06 -0.733906 0.679251
    outer loop
      vertex 25.9272 15.0922 25.9272
      vertex 44 42 55
      vertex 18.3333 20.4853 31.7543
    endloop
  endfacet
  facet normal 1.78798e-06 -0.733905 0.679252
    outer loop
      vertex 31.7543 8.06383 18.3333
      vertex 44 42 55
      vertex 25.9272 15.0922 25.9272
    endloop
  endfacet
  facet normal -4.20116e-06 -0.733904 0.679253
    outer loop
      vertex 35.4173 -0.120929 9.49003
      vertex 44 42 55
      vertex 31.7543 8.06383 18.3333
    endloop
  endfacet
  facet normal 1.0858e-06 -0.733905 0.679252
    outer loop
      vertex 36.6667 -8.90425 0
      vertex 44 42 55
      vertex 35.4173 -0.120929 9.49003
    endloop
  endfacet
  facet normal 5.58013e-06 -0.733904 0.679253
    outer loop
      vertex 44 -45 -39
      vertex 36.6667 -8.90425 0
      vertex 35.4173 -17.6876 -9.49003
    endloop
  endfacet
  facet normal -5.32332e-07 -0.733905 0.679252
    outer loop
      vertex 36.6667 -8.90425 0
      vertex 44 -45 -39
      vertex 44 42 55
    endloop
  endfacet
  facet normal -2.69675e-06 -0.733905 0.679252
    outer loop
      vertex 31.7543 -25.8723 -18.3333
      vertex 44 -45 -39
      vertex 35.4173 -17.6876 -9.49003
    endloop
  endfacet
  facet normal 7.08361e-06 -0.733903 0.679255
    outer loop
      vertex 25.9272 -32.9008 -25.9272
      vertex 44 -45 -39
      vertex 31.7543 -25.8723 -18.3333
    endloop
  endfacet
  facet normal -5.87572e-06 -0.733911 0.679245
    outer loop
      vertex 18.3333 -38.2938 -31.7543
      vertex 44 -45 -39
      vertex 25.9272 -32.9008 -25.9272
    endloop
  endfacet
  facet normal 1.32818e-06 -0.733899 0.679259
    outer loop
      vertex 9.49003 -41.6841 -35.4173
      vertex 44 -45 -39
      vertex 18.3333 -38.2938 -31.7543
    endloop
  endfacet
  facet normal -1.99332e-06 -0.733915 0.679242
    outer loop
      vertex 0 -42.8404 -36.6667
      vertex 44 -45 -39
      vertex 9.49003 -41.6841 -35.4173
    endloop
  endfacet
  facet normal 0 -0.733896 0.679262
    outer loop
      vertex 44 -45 -39
      vertex 0 -42.8404 -36.6667
      vertex -44 -45 -39
    endloop
  endfacet
  facet normal -0 0 1
    outer loop
      vertex -44 45 55
      vertex 44 42 55
      vertex 44 45 55
    endloop
  endfacet
  facet normal 0 0 1
    outer loop
      vertex 44 42 55
      vertex -44 45 55
      vertex -44 42 55
    endloop
  endfacet
  facet normal -0 0.342012 0.939696
    outer loop
      vertex -44 -44.7475 -55
      vertex -12 -45 -54.9081
      vertex -12 -44.7475 -55
    endloop
  endfacet
  facet normal 0 0.342012 0.939696
    outer loop
      vertex -12 -45 -54.9081
      vertex -44 -44.7475 -55
      vertex -44 -45 -54.9081
    endloop
  endfacet
  facet normal -0 0.342012 0.939696
    outer loop
      vertex 12 -44.7475 -55
      vertex 44 -45 -54.9081
      vertex 44 -44.7475 -55
    endloop
  endfacet
  facet normal 0 0.342012 0.939696
    outer loop
      vertex 44 -45 -54.9081
      vertex 12 -44.7475 -55
      vertex 12 -45 -54.9081
    endloop
  endfacet
  facet normal -1.13636e-06 -0.342032 -0.939688
    outer loop
      vertex 12 -41 -41.4655
      vertex 44 -45 -40.0096
      vertex 12 -42.2789 -41
    endloop
  endfacet
  facet normal 1.47229e-18 -0.34202 -0.939693
    outer loop
      vertex 44 -45 -40.0096
      vertex -12 -42.2789 -41
      vertex 12 -42.2789 -41
    endloop
  endfacet
  facet normal 1.13636e-06 -0.342032 -0.939688
    outer loop
      vertex -12 -42.2789 -41
      vertex -44 -45 -40.0096
      vertex -12 -41 -41.4655
    endloop
  endfacet
  facet normal 0 -0.34202 -0.939693
    outer loop
      vertex -44 -45 -40.0096
      vertex -12 -42.2789 -41
      vertex 44 -45 -40.0096
    endloop
  endfacet
  facet normal 5.54072e-07 -0.34202 -0.939693
    outer loop
      vertex 44 -45 -40.0096
      vertex 12 -41 -41.4655
      vertex 44 -3.81422 -55
    endloop
  endfacet
  facet normal 0 -0.34202 -0.939693
    outer loop
      vertex -12 -41 -41.4655
      vertex 44 -3.81422 -55
      vertex 12 -41 -41.4655
    endloop
  endfacet
  facet normal -5.54072e-07 -0.34202 -0.939693
    outer loop
      vertex -44 -3.81422 -55
      vertex -12 -41 -41.4655
      vertex -44 -45 -40.0096
    endloop
  endfacet
  facet normal 3.95291e-18 -0.34202 -0.939693
    outer loop
      vertex -12 -41 -41.4655
      vertex -44 -3.81422 -55
      vertex 44 -3.81422 -55
    endloop
  endfacet
  facet normal -1 -0 -0
    outer loop
      vertex 12 -41 -41
      vertex 12 -41 -41.4655
      vertex 12 -42.2789 -41
    endloop
  endfacet
  facet normal -1 0 0
    outer loop
      vertex 12 -45 -54.9081
      vertex 12 -44.7475 -55
      vertex 12 -45 -55
    endloop
  endfacet
  facet normal 0 0 -1
    outer loop
      vertex -12 -42.2789 -41
      vertex 12 -41 -41
      vertex 12 -42.2789 -41
    endloop
  endfacet
  facet normal -0 0 -1
    outer loop
      vertex 12 -41 -41
      vertex -12 -42.2789 -41
      vertex -12 -41 -41
    endloop
  endfacet
  facet normal 1 0 -0
    outer loop
      vertex -12 -41 -41.4655
      vertex -12 -41 -41
      vertex -12 -42.2789 -41
    endloop
  endfacet
  facet normal 1 0 0
    outer loop
      vertex -12 -44.7475 -55
      vertex -12 -45 -54.9081
      vertex -12 -45 -55
    endloop
  endfacet
  facet normal 0 -1 0
    outer loop
      vertex -12 -41 -41.4655
      vertex 12 -41 -41
      vertex -12 -41 -41
    endloop
  endfacet
  facet normal 0 -1 -0
    outer loop
      vertex 12 -41 -41
      vertex -12 -41 -41.4655
      vertex 12 -41 -41.4655
    endloop
  endfacet
  facet normal -0.991445 -4.88351e-19 0.130528
    outer loop
      vertex 35.4173 45 -9.49003
      vertex 36.6667 -8.90425 0
      vertex 36.6667 45 0
    endloop
  endfacet
  facet normal -0.991445 -4.19927e-19 0.130528
    outer loop
      vertex 36.6667 -8.90425 0
      vertex 35.4173 45 -9.49003
      vertex 35.4173 -17.6876 -9.49003
    endloop
  endfacet
  facet normal -0.608768 1.70436e-18 -0.793349
    outer loop
      vertex 18.3333 20.4853 31.7543
      vertex 25.9272 45 25.9272
      vertex 25.9272 15.0922 25.9272
    endloop
  endfacet
  facet normal -0.608768 2.07931e-18 -0.793349
    outer loop
      vertex 25.9272 45 25.9272
      vertex 18.3333 20.4853 31.7543
      vertex 18.3333 45 31.7543
    endloop
  endfacet
  facet normal -0.92388 7.00953e-18 -0.382683
    outer loop
      vertex 35.4173 45 9.49003
      vertex 31.7543 8.06383 18.3333
      vertex 31.7543 45 18.3333
    endloop
  endfacet
  facet normal -0.92388 5.73803e-18 -0.382683
    outer loop
      vertex 31.7543 8.06383 18.3333
      vertex 35.4173 45 9.49003
      vertex 35.4173 -0.120929 9.49003
    endloop
  endfacet
  facet normal -0.608768 -6.54341e-19 0.793349
    outer loop
      vertex 18.3333 45 -31.7543
      vertex 25.9272 -32.9008 -25.9272
      vertex 25.9272 45 -25.9272
    endloop
  endfacet
  facet normal -0.608768 -6.11974e-19 0.793349
    outer loop
      vertex 25.9272 -32.9008 -25.9272
      vertex 18.3333 45 -31.7543
      vertex 18.3333 -38.2938 -31.7543
    endloop
  endfacet
  facet normal -0.793349 -7.19232e-19 0.608768
    outer loop
      vertex 25.9272 45 -25.9272
      vertex 31.7543 -25.8723 -18.3333
      vertex 31.7543 45 -18.3333
    endloop
  endfacet
  facet normal -0.793349 -6.54341e-19 0.608768
    outer loop
      vertex 31.7543 -25.8723 -18.3333
      vertex 25.9272 45 -25.9272
      vertex 25.9272 -32.9008 -25.9272
    endloop
  endfacet
  facet normal 0.991445 0 -0.130528
    outer loop
      vertex -35.4173 -0.120929 9.49003
      vertex -36.6667 45 0
      vertex -35.4173 45 9.49003
    endloop
  endfacet
  facet normal 0.991445 0 -0.130528
    outer loop
      vertex -36.6667 45 0
      vertex -35.4173 -0.120929 9.49003
      vertex -36.6667 -8.90425 0
    endloop
  endfacet
  facet normal -0.793349 1.70436e-18 -0.608768
    outer loop
      vertex 31.7543 45 18.3333
      vertex 25.9272 15.0922 25.9272
      vertex 25.9272 45 25.9272
    endloop
  endfacet
  facet normal -0.793349 1.38005e-18 -0.608768
    outer loop
      vertex 25.9272 15.0922 25.9272
      vertex 31.7543 45 18.3333
      vertex 31.7543 8.06383 18.3333
    endloop
  endfacet
  facet normal -0.382683 -3.10834e-18 0.92388
    outer loop
      vertex 9.49003 45 -35.4173
      vertex 18.3333 -38.2938 -31.7543
      vertex 18.3333 45 -31.7543
    endloop
  endfacet
  facet normal -0.382683 -2.98677e-18 0.92388
    outer loop
      vertex 18.3333 -38.2938 -31.7543
      vertex 9.49003 45 -35.4173
      vertex 9.49003 -41.6841 -35.4173
    endloop
  endfacet
  facet normal -0.991445 5.83415e-19 -0.130528
    outer loop
      vertex 36.6667 45 0
      vertex 35.4173 -0.120929 9.49003
      vertex 35.4173 45 9.49003
    endloop
  endfacet
  facet normal -0.991445 4.88351e-19 -0.130528
    outer loop
      vertex 35.4173 -0.120929 9.49003
      vertex 36.6667 45 0
      vertex 36.6667 -8.90425 0
    endloop
  endfacet
  facet normal 0.92388 0 -0.382683
    outer loop
      vertex -31.7543 8.06383 18.3333
      vertex -35.4173 45 9.49003
      vertex -31.7543 45 18.3333
    endloop
  endfacet
  facet normal 0.92388 0 -0.382683
    outer loop
      vertex -35.4173 45 9.49003
      vertex -31.7543 8.06383 18.3333
      vertex -35.4173 -0.120929 9.49003
    endloop
  endfacet
  facet normal 0.382683 0 -0.92388
    outer loop
      vertex -18.3333 45 31.7543
      vertex -9.49003 23.8756 35.4173
      vertex -18.3333 20.4853 31.7543
    endloop
  endfacet
  facet normal 0.382683 0 -0.92388
    outer loop
      vertex -9.49003 23.8756 35.4173
      vertex -18.3333 45 31.7543
      vertex -9.49003 45 35.4173
    endloop
  endfacet
  facet normal -0.130528 -3.0368e-19 0.991445
    outer loop
      vertex 0 45 -36.6667
      vertex 9.49003 -41.6841 -35.4173
      vertex 9.49003 45 -35.4173
    endloop
  endfacet
  facet normal -0.130528 -2.99682e-19 0.991445
    outer loop
      vertex 9.49003 -41.6841 -35.4173
      vertex 0 45 -36.6667
      vertex 0 -42.8404 -36.6667
    endloop
  endfacet
  facet normal -0.130528 1.24615e-18 -0.991445
    outer loop
      vertex 0 25.0319 36.6667
      vertex 9.49003 45 35.4173
      vertex 9.49003 23.8756 35.4173
    endloop
  endfacet
  facet normal -0.130528 1.31831e-18 -0.991445
    outer loop
      vertex 9.49003 45 35.4173
      vertex 0 25.0319 36.6667
      vertex 0 45 36.6667
    endloop
  endfacet
  facet normal 0.382683 -0 0.92388
    outer loop
      vertex -18.3333 -38.2938 -31.7543
      vertex -9.49003 45 -35.4173
      vertex -18.3333 45 -31.7543
    endloop
  endfacet
  facet normal 0.382683 0 0.92388
    outer loop
      vertex -9.49003 45 -35.4173
      vertex -18.3333 -38.2938 -31.7543
      vertex -9.49003 -41.6841 -35.4173
    endloop
  endfacet
  facet normal -0.382683 1.05612e-17 -0.92388
    outer loop
      vertex 9.49003 23.8756 35.4173
      vertex 18.3333 45 31.7543
      vertex 18.3333 20.4853 31.7543
    endloop
  endfacet
  facet normal -0.382683 1.22562e-17 -0.92388
    outer loop
      vertex 18.3333 45 31.7543
      vertex 9.49003 23.8756 35.4173
      vertex 9.49003 45 35.4173
    endloop
  endfacet
  facet normal 0.793349 0 -0.608768
    outer loop
      vertex -25.9272 15.0922 25.9272
      vertex -31.7543 45 18.3333
      vertex -25.9272 45 25.9272
    endloop
  endfacet
  facet normal 0.793349 0 -0.608768
    outer loop
      vertex -31.7543 45 18.3333
      vertex -25.9272 15.0922 25.9272
      vertex -31.7543 8.06383 18.3333
    endloop
  endfacet
  facet normal -0.92388 -4.13009e-18 0.382683
    outer loop
      vertex 31.7543 45 -18.3333
      vertex 35.4173 -17.6876 -9.49003
      vertex 35.4173 45 -9.49003
    endloop
  endfacet
  facet normal -0.92388 -3.65312e-18 0.382683
    outer loop
      vertex 35.4173 -17.6876 -9.49003
      vertex 31.7543 45 -18.3333
      vertex 31.7543 -25.8723 -18.3333
    endloop
  endfacet
  facet normal 0.130528 0 -0.991445
    outer loop
      vertex -9.49003 45 35.4173
      vertex 0 25.0319 36.6667
      vertex -9.49003 23.8756 35.4173
    endloop
  endfacet
  facet normal 0.130528 0 -0.991445
    outer loop
      vertex 0 25.0319 36.6667
      vertex -9.49003 45 35.4173
      vertex 0 45 36.6667
    endloop
  endfacet
  facet normal 0.608768 -0 0.793349
    outer loop
      vertex -25.9272 -32.9008 -25.9272
      vertex -18.3333 45 -31.7543
      vertex -25.9272 45 -25.9272
    endloop
  endfacet
  facet normal 0.608768 0 0.793349
    outer loop
      vertex -18.3333 45 -31.7543
      vertex -25.9272 -32.9008 -25.9272
      vertex -18.3333 -38.2938 -31.7543
    endloop
  endfacet
  facet normal 0.793349 -0 0.608768
    outer loop
      vertex -31.7543 -25.8723 -18.3333
      vertex -25.9272 45 -25.9272
      vertex -31.7543 45 -18.3333
    endloop
  endfacet
  facet normal 0.793349 0 0.608768
    outer loop
      vertex -25.9272 45 -25.9272
      vertex -31.7543 -25.8723 -18.3333
      vertex -25.9272 -32.9008 -25.9272
    endloop
  endfacet
  facet normal 0.608768 0 -0.793349
    outer loop
      vertex -25.9272 45 25.9272
      vertex -18.3333 20.4853 31.7543
      vertex -25.9272 15.0922 25.9272
    endloop
  endfacet
  facet normal 0.608768 0 -0.793349
    outer loop
      vertex -18.3333 20.4853 31.7543
      vertex -25.9272 45 25.9272
      vertex -18.3333 45 31.7543
    endloop
  endfacet
  facet normal 0.130528 -0 0.991445
    outer loop
      vertex -9.49003 -41.6841 -35.4173
      vertex 0 45 -36.6667
      vertex -9.49003 45 -35.4173
    endloop
  endfacet
  facet normal 0.130528 0 0.991445
    outer loop
      vertex 0 45 -36.6667
      vertex -9.49003 -41.6841 -35.4173
      vertex 0 -42.8404 -36.6667
    endloop
  endfacet
  facet normal 0.92388 -0 0.382683
    outer loop
      vertex -35.4173 -17.6876 -9.49003
      vertex -31.7543 45 -18.3333
      vertex -35.4173 45 -9.49003
    endloop
  endfacet
  facet normal 0.92388 0 0.382683
    outer loop
      vertex -31.7543 45 -18.3333
      vertex -35.4173 -17.6876 -9.49003
      vertex -31.7543 -25.8723 -18.3333
    endloop
  endfacet
  facet normal 0.991445 -0 0.130528
    outer loop
      vertex -36.6667 -8.90425 0
      vertex -35.4173 45 -9.49003
      vertex -36.6667 45 0
    endloop
  endfacet
  facet normal 0.991445 0 0.130528
    outer loop
      vertex -35.4173 45 -9.49003
      vertex -36.6667 -8.90425 0
      vertex -35.4173 -17.6876 -9.49003
    endloop
  endfacet
endsolid OpenSCAD_Model
